<svg width="198" height="67" viewBox="0 0 198 67" fill="none" xmlns="http://www.w3.org/2000/svg">
<path d="M63.07 44.295C63.455 44.295 64.573 43.757 64.728 43.564C64.845 43.409 65.191 43.1781 65.345 42.9851C65.383 42.8711 65.731 42.2541 65.769 42.2141L65.731 42.175L65.693 42.2141C65.693 42.2141 65.693 42.253 65.653 42.253C65.615 42.291 65.615 42.291 65.615 42.369C65.537 42.407 65.499 42.444 65.461 42.521C65.307 42.598 65.191 42.6371 65.037 42.7141C64.883 42.7921 64.228 42.9081 63.996 42.9081C63.264 42.9081 62.3 42.944 61.722 43.099L61.8 43.9481C61.8 44.0641 61.76 44.18 61.722 44.294L63.07 44.295Z" fill="black"/>
<path d="M65.769 40.7109H65.461V41.1739C65.461 41.5209 65.345 41.5209 65.307 41.7119L65.461 41.7509C65.769 41.5979 65.962 41.5209 65.962 41.0579C65.962 40.9019 65.924 40.7109 65.769 40.7109Z" fill="black"/>
<path d="M63.727 38.591C63.495 38.436 63.533 38.359 63.379 38.167C63.225 39.94 63.495 41.674 62.223 42.369L62.261 42.407C62.3 42.444 63.417 41.597 63.533 41.404C63.572 41.288 63.687 41.174 63.764 41.096C63.841 40.941 63.881 40.864 63.957 40.71C64.112 40.517 64.228 40.131 64.228 39.823V39.4C64.228 39.168 64.15 39.206 64.15 38.937C63.996 38.821 63.919 38.705 63.727 38.591Z" fill="black"/>
<path d="M64.0729 45.337C65.2289 45.337 66.3859 44.295 66.3859 43.14V42.946C66.3859 42.755 66.3469 42.638 66.2319 42.561C66.1559 42.832 65.3459 43.564 65.1139 43.796C64.8829 43.987 63.9569 44.604 63.5719 44.604L62.4919 44.875C62.7619 45.105 63.2629 45.338 63.7269 45.338L64.0729 45.337Z" fill="black"/>
<path d="M8.867 40.673C9.021 40.479 9.291 40.21 9.445 40.016C9.599 39.825 9.946 39.553 10.062 39.401C10.178 39.207 10.525 38.938 10.641 38.745C10.833 38.515 11.065 38.32 11.22 38.09C11.45 37.782 12.145 36.973 12.222 36.663L11.412 36.239C11.22 36.972 10.95 37.242 10.68 37.819C10.602 37.973 10.294 38.32 10.179 38.475C9.986 38.668 9.832 38.938 9.639 39.09C9.369 39.361 8.791 40.055 8.598 40.364C8.444 40.634 8.328 40.827 8.174 41.096C8.02 41.326 7.904 41.827 7.828 41.944V42.097C7.866 42.06 8.213 41.481 8.29 41.326C8.404 41.174 8.751 40.827 8.867 40.673Z" fill="black"/>
<path d="M57.134 53.2011V52.9711L56.671 52.8931C56.709 52.9711 56.825 53.0481 56.825 53.1631C56.825 53.2791 56.786 53.3181 56.786 53.4341C56.942 53.4341 57.134 53.3551 57.134 53.2011Z" fill="black"/>
<path d="M59.293 38.167H59.138L58.559 38.089C58.752 38.398 59.331 38.591 59.831 38.591H60.602C60.794 38.591 61.103 38.051 61.181 37.819C61.335 37.472 61.335 37.126 61.335 36.624C61.411 36.588 61.411 36.547 61.488 36.547H61.682C61.682 36.317 61.488 36.239 61.258 36.239H61.181C61.026 36.239 60.718 36.934 60.679 37.087C60.217 37.087 59.947 36.779 59.716 36.779H59.523C59.292 36.779 59.292 36.934 59.214 37.087C59.483 37.087 59.599 37.126 59.754 37.281C59.831 37.319 60.101 37.628 60.101 37.705C60.103 37.935 59.563 38.167 59.293 38.167Z" fill="black"/>
<path d="M64.458 41.635C64.42 41.79 64.228 42.214 64.228 42.214C64.382 42.175 64.883 41.635 64.96 41.482C65.153 41.25 65.308 40.751 65.308 40.327V40.095L65.269 40.133L64.458 39.554C64.498 39.865 64.651 40.635 64.612 40.982C64.536 41.249 64.574 41.404 64.458 41.635Z" fill="black"/>
<path d="M62.1069 40.7889C61.7599 41.1359 61.4509 41.4039 60.8359 41.4429C60.8359 41.7119 61.3749 42.2139 61.4899 42.2139C61.7219 42.2139 62.2999 41.4039 62.4539 41.2109C62.6849 40.9019 62.9159 40.2479 62.9159 39.6689C62.7239 39.8629 62.6849 40.0159 62.5309 40.2479C62.3769 40.5179 62.3389 40.5949 62.1069 40.7889Z" fill="black"/>
<path d="M57.211 39.2061C57.365 39.7471 57.828 40.2101 58.291 40.4781C58.792 40.7891 59.293 41.0571 59.794 41.3271C60.102 41.5201 60.835 42.2141 60.835 42.6771V44.2591C61.182 44.2591 61.451 43.8711 61.451 43.4871V43.2171C61.451 41.9841 60.14 41.2111 59.485 40.5571C59.062 40.0941 58.754 39.9021 58.368 39.3621C58.175 39.1321 58.021 38.9381 57.906 38.6691C57.867 38.5151 57.675 37.8571 57.635 37.7441C57.906 37.8191 57.983 37.9731 58.368 37.9731H58.56C58.56 37.5491 58.059 37.4721 58.059 37.1251C58.059 36.9341 58.676 36.3541 58.676 36.0081V35.8921C58.676 35.6621 58.521 35.5841 58.406 35.5061V35.8141C58.213 36.0851 58.02 36.1641 57.789 36.3931C57.558 36.5461 57.249 36.6631 57.249 37.0861V37.1251C57.249 37.3181 57.48 37.5491 57.558 37.7041C57.017 37.7041 57.057 37.3961 56.671 37.3961C56.671 37.9731 57.018 38.7441 57.211 39.2061ZM57.597 37.7041C57.519 37.7811 57.674 37.6271 57.597 37.7041V37.7041Z" fill="black"/>
<path d="M73.595 48.536H73.904C73.904 48.15 73.556 47.957 73.326 47.804C73.055 47.996 72.94 48.19 72.863 48.575L73.595 48.536Z" fill="black"/>
<path d="M57.519 55.0141L57.635 54.1651C57.674 53.8571 57.25 53.6641 56.942 53.6641L57.212 53.9351V54.8201L57.519 55.0141Z" fill="black"/>
<path d="M0.92502 51.7751C1.15602 51.7751 1.23402 51.9281 1.34802 52.0841C1.38702 52.0451 1.50302 52.0451 1.50302 51.9681C1.50302 51.8151 1.07902 51.2361 0.810019 51.2361H0.46302C0.42402 51.4661 0.27002 51.5441 0.27002 51.8151C0.27002 52.2391 0.73302 52.7001 0.73302 52.9321H0.810019C0.848019 52.8161 0.848019 52.8551 0.848019 52.7771C0.848019 52.5481 0.655019 52.2781 0.655019 52.0461C0.655019 51.8911 0.69402 51.9691 0.69402 51.8161C0.84802 51.8141 0.77102 51.7751 0.92502 51.7751Z" fill="black"/>
<path d="M1.92801 54.088C1.88901 54.049 1.88902 54.088 1.88902 54.01C1.85002 53.935 1.81201 53.935 1.77301 53.897C1.73401 53.819 1.65801 53.586 1.65801 53.511V53.087C1.73401 53.048 1.73401 53.048 1.85001 53.048H1.88902C2.00502 53.048 2.19702 53.239 2.39002 53.239C2.23502 52.663 1.84901 52.508 1.42601 52.238L1.19502 52.314C1.15702 52.546 1.08001 52.352 1.04101 52.738C1.00201 53.009 1.04101 52.97 1.04101 53.239C1.19501 53.471 1.23401 53.55 1.42601 53.78C1.58001 53.934 1.85001 54.088 1.92702 54.204L1.96601 54.165V54.127C1.92801 54.165 1.92801 54.127 1.92801 54.088Z" fill="black"/>
<path d="M1.002 51.1189V50.7339C1.002 50.4639 0.771 50.2319 0.501 50.2319H0.385C0.154 50.2319 0.116 50.5419 0 50.6559V51.0049L0.154 51.2749H0.193V50.9279C0.193 50.8119 0.193 50.8119 0.231 50.7349H0.54C0.771 50.7339 0.694 51.0799 1.002 51.1189Z" fill="black"/>
<path d="M0.848019 50.1569H0.886019C0.964019 50.1569 1.00202 50.1179 1.00202 50.0409V50.0019C1.00202 49.8469 0.92502 49.8469 0.92502 49.6919V49.5389H1.23402C1.38802 49.5389 1.38802 49.2699 1.38802 49.1149C1.08002 48.9599 1.04102 48.7679 0.69502 48.6909C0.54002 48.9599 0.27002 49.1919 0.27002 49.6169V49.7689C0.27002 49.8469 0.848019 50.1569 0.848019 50.1569Z" fill="black"/>
<path d="M3.74004 54.936V54.667C3.81704 54.628 3.81704 54.628 3.93204 54.628H3.97204C4.04804 54.628 4.08704 54.705 4.16404 54.744C4.04804 54.281 3.50904 54.165 2.93104 54.165C2.85404 54.165 2.73804 54.204 2.73804 54.32C2.73804 54.783 3.04704 55.051 3.31604 55.207C3.50904 55.321 4.08804 55.668 4.35804 55.668C4.31804 55.398 3.74004 55.13 3.74004 54.936Z" fill="black"/>
<path d="M11.411 51.6211C11.064 51.6981 10.756 51.3121 10.601 51.1961C10.524 51.1581 9.754 50.6561 9.754 51.0051V51.0421C9.754 51.4271 10.023 51.4661 10.139 51.9291L9.599 51.7381C9.638 52.2781 9.792 52.3151 10.178 52.5091C10.563 52.7391 10.872 52.6251 11.334 52.7391C11.449 52.6641 11.797 52.1231 11.797 52.0071V51.8161C11.797 51.7001 11.758 51.6611 11.72 51.5841L11.411 51.6211Z" fill="black"/>
<path d="M5.47406 55.2441C5.47406 54.8971 6.05306 54.7831 6.28406 54.6281C6.16806 54.6281 6.13006 54.5891 6.01406 54.5891H5.89906C5.39806 54.5891 4.35706 54.7831 4.35706 55.2071C4.35706 55.7841 5.74506 56.0171 6.43906 56.0171C6.13006 55.8231 5.47406 55.7451 5.47406 55.2441Z" fill="black"/>
<path d="M2.54403 54.049C2.54403 53.974 2.58303 53.935 2.62203 53.935C2.81403 53.935 2.85303 54.01 3.04603 54.01H3.08403C3.47003 54.01 2.69903 53.395 2.23603 53.356C2.19703 53.511 2.08203 53.626 2.08203 53.703V54.128C2.08203 54.399 2.50603 54.784 2.69903 54.899C2.66003 54.669 2.54503 54.436 2.54503 54.322V54.049H2.54403Z" fill="black"/>
<path d="M69.123 48.5361L69.239 49.3481C69.317 49.4621 69.431 49.6181 69.509 49.7701C69.701 50.0801 69.701 49.8861 69.856 50.1191C70.049 50.3491 70.511 50.5051 70.782 50.6181C70.704 50.3491 70.589 50.1581 70.589 49.8091V49.7701C70.589 49.0391 71.205 48.8081 71.669 48.4981C71.785 48.4981 72.671 48.3461 72.671 48.2681C72.671 48.1521 72.517 48.0751 72.479 47.9211C72.632 47.8831 72.671 47.8051 72.748 47.6891C72.864 47.6141 73.057 47.5761 73.057 47.4981C73.057 46.5721 72.054 45.9551 71.052 45.9551H70.86C70.398 45.9551 69.896 46.1091 69.626 46.3021C69.395 46.4951 68.971 46.8421 68.971 47.2271C68.971 47.2661 69.009 47.3051 69.087 47.3051C69.203 47.3051 69.203 47.1521 69.433 47.1141C69.318 47.3441 69.241 47.4991 69.087 47.6901C69.009 47.8061 68.816 48.1531 68.816 48.3471V48.8101H68.971L69.123 48.5361ZM70.203 47.8431C70.203 47.3801 71.167 46.9951 71.706 46.9951H71.899C72.169 46.9951 72.516 47.0721 72.592 47.3031C72.515 47.2641 72.515 47.2251 72.438 47.2251H71.899C71.706 47.2251 71.358 47.3031 71.32 47.4961L72.169 47.6121L72.246 47.8421C72.13 47.7651 71.899 47.6871 71.745 47.6871C71.167 47.6871 70.704 48.1501 70.281 48.2661C70.242 48.1891 70.203 48.1121 70.203 47.9561V47.8431Z" fill="black"/>
<path d="M63.9961 48.922C63.8411 49.193 63.6871 49.423 63.4951 49.693L63.5331 49.731C63.5721 49.77 64.7671 49 64.8831 48.922C65.1921 48.692 65.7691 48.151 65.9241 47.804C66.0781 47.613 66.2321 47.419 66.3471 47.15C66.5011 46.918 66.5791 46.687 66.6951 46.417C66.8491 46.147 67.1191 45.067 67.1191 44.643V43.797C67.1191 43.371 66.8101 42.062 66.6171 41.907C66.6171 42.37 66.6561 42.794 66.6561 43.178C66.6561 43.719 66.5791 43.949 66.5411 44.373C66.5011 44.758 65.9241 46.069 65.7311 46.225L65.5771 45.491L63.8031 46.417C63.4951 46.417 63.2251 46.571 62.7611 46.571H62.6071C62.6841 46.918 63.5321 47.073 63.9561 47.073H64.1491C64.7661 47.073 65.0361 46.763 65.4601 46.649C65.3441 47.034 64.6111 47.688 64.4191 48.113C64.3431 48.345 64.1121 48.729 63.9961 48.922ZM65.5001 46.57L65.5381 46.609L65.5001 46.648L65.4611 46.609L65.5001 46.57Z" fill="black"/>
<path d="M8.79 47.6881C8.906 47.8431 8.79 47.7661 8.983 47.9581C9.021 47.9971 9.137 48.1511 9.176 48.2291C9.407 48.4981 9.985 48.9221 10.101 49.1161C10.256 49.1161 11.065 49.6561 11.334 49.7311C10.987 49.2321 10.756 48.7301 10.409 48.2291C10.331 48.0741 10.331 48.0351 10.178 47.8431C10.101 47.6881 10.024 47.6131 9.947 47.4581C9.831 47.3031 9.446 46.9171 9.446 46.7261C9.6 46.7261 9.831 46.9171 10.063 46.9961C10.256 47.0341 10.68 47.0731 10.873 47.0731C11.335 47.0731 12.145 46.9181 12.223 46.5711H11.991C11.606 46.5711 11.375 46.4171 10.989 46.4171L9.214 45.4901C9.176 45.6061 9.098 45.8391 9.098 45.9141V46.1071C9.098 46.2241 9.098 46.2241 9.137 46.2991C8.752 46.0291 8.173 44.3331 8.173 43.5631V43.5241V41.9441C7.98 42.1741 7.672 43.5241 7.672 44.0651V44.3341C7.672 45.4151 8.058 46.4161 8.444 47.1491C8.597 47.4191 8.635 47.4191 8.79 47.6881ZM9.33 46.5701L9.408 46.7251L9.292 46.6091L9.33 46.5701Z" fill="black"/>
<path d="M57.635 49.1151C57.713 49.1151 58.484 49.3841 58.715 49.4621C59.139 49.5391 59.447 49.655 59.949 49.655H60.258C60.605 49.655 61.261 49.5 61.376 49.306C60.914 49.306 59.911 49.2311 59.564 49.076C59.179 48.96 58.716 48.345 58.716 47.882V47.458C58.716 47.033 59.025 46.8011 59.295 46.6091C59.874 46.9171 59.796 47.188 59.988 47.842C60.18 48.344 60.412 48.6911 61.106 48.6911C60.797 48.2281 60.373 47.996 60.373 47.149V46.995C60.373 46.57 60.528 46.416 60.528 46.146C60.643 46.069 61.413 44.913 61.413 44.68C61.413 44.566 61.375 44.41 61.337 44.333C61.067 44.372 59.447 45.336 59.139 45.528C58.985 45.644 58.368 46.145 58.214 46.299C58.022 46.492 57.559 47.111 57.405 47.188C57.173 47.072 56.826 46.917 56.826 46.57V46.5321C56.826 45.6451 58.715 44.411 59.679 44.411H59.91V44.6031C59.833 44.6411 59.795 44.6031 59.795 44.7191C59.795 44.7961 59.833 44.835 59.873 44.835C60.219 44.835 60.721 44.565 60.721 44.181C60.721 43.987 60.567 43.87 60.489 43.718C60.219 43.718 60.258 43.6021 60.065 43.6021H59.873C58.639 43.6021 56.017 45.4901 56.017 46.5321V46.801C56.017 47.189 56.749 47.5351 57.135 47.5741C57.096 47.7261 56.865 48.1121 56.749 48.2281C56.672 48.3821 56.518 48.8431 56.441 48.9991C56.287 49.5391 56.132 50.1931 56.132 50.8511V50.9281C56.132 51.3521 58.368 52.6991 58.407 52.8931C58.136 52.8161 57.829 52.7001 57.443 52.7001H57.212C57.096 52.7001 57.096 52.7 57.019 52.739C57.174 52.932 57.675 53.163 58.022 53.163H58.677V53.1241L59.063 53.4351C59.101 53.3191 59.217 53.2031 59.217 53.0881L59.178 52.739C59.139 52.7 58.87 52.431 58.793 52.315C58.6 52.162 58.446 52.1231 58.137 52.1231L58.098 52.085L58.329 51.7761L58.368 51.815C58.329 51.466 56.942 51.66 56.942 50.773V50.618C56.942 50.505 57.173 50.349 57.25 50.349H58.561V50.3101C58.369 50.0801 57.52 49.963 57.52 49.5V49.231C57.519 49.154 57.559 49.1151 57.635 49.1151ZM58.638 53.01L58.677 53.048L58.638 53.0871L58.599 53.048L58.638 53.01Z" fill="black"/>
<path d="M60.025 40.7109H60.448C60.68 40.7109 61.066 40.2099 61.066 39.9779V39.9019C61.066 39.7479 61.066 39.9019 61.027 39.7859C60.565 40.0949 60.025 40.0559 59.755 40.4409C59.794 40.5179 59.91 40.7109 60.025 40.7109Z" fill="black"/>
<path d="M1.96605 48.575C1.88905 48.228 1.77305 47.996 1.50305 47.804C1.27205 47.92 0.925049 48.151 0.925049 48.536H1.23405L1.96605 48.575Z" fill="black"/>
<path d="M73.518 49.5389C73.634 49.5389 73.904 49.4999 73.904 49.6169C73.904 49.8079 73.827 49.8459 73.827 50.0409V50.1569H73.982C73.982 50.1569 74.559 49.8459 74.559 49.7689V49.5779C74.559 49.2699 74.251 48.9219 74.135 48.6909C73.712 48.7679 73.672 49.0379 73.403 49.1149L73.518 49.5389Z" fill="black"/>
<path d="M2.15899 48.2289C2.15899 48.3829 2.69899 48.3829 2.85299 48.4199C3.16099 48.5359 3.23799 48.5359 3.50799 48.6909C3.85499 48.9209 4.23998 49.2309 4.23998 49.7689V49.8079C4.23998 50.0789 4.08699 50.4249 4.00999 50.6169C4.77999 50.4259 5.66699 49.6919 5.66699 48.7679V48.5359H5.78299L5.82199 48.8069H5.97599C6.01499 48.7289 6.01499 48.7289 6.01499 48.6129V48.3439C6.01499 48.1499 5.51499 47.3409 5.39899 47.1109L5.74499 47.3019L5.86099 47.2239C5.74499 46.7619 5.20499 46.1069 4.70499 46.1069C4.55099 45.9909 4.31898 45.9529 4.04899 45.9529H3.73999C3.04599 45.9529 2.81399 46.1459 2.39099 46.3769C2.00499 46.6089 1.84999 47.0329 1.73499 47.5349C2.00599 47.6119 2.15899 47.9199 2.35199 47.9199C2.31299 48.0339 2.15899 48.1889 2.15899 48.2289ZM2.23599 47.2639C2.31399 47.0339 2.73699 46.9949 3.04599 46.9949H3.08399C3.62399 46.9949 4.62599 47.3419 4.62599 47.8429V47.9569C4.62599 48.0729 4.58699 48.2669 4.50999 48.2669C4.35599 48.2669 3.58599 47.6879 3.12199 47.6879C2.89099 47.6879 2.73699 47.7659 2.58199 47.8429L2.65899 47.6129L3.50699 47.4969C3.46899 47.3429 3.12099 47.2259 2.96699 47.2259H2.42899C2.35199 47.2249 2.27399 47.2639 2.23599 47.2639Z" fill="black"/>
<path d="M9.67699 53.935H9.52099C9.40699 53.935 9.29099 53.781 9.29099 53.625V53.434C9.29099 53.356 9.48299 52.777 9.52099 52.624C9.32999 52.776 8.24999 53.896 8.24999 54.127V54.628C8.24999 54.898 8.48099 54.936 8.71299 54.936C8.59699 55.014 8.32799 55.13 8.13399 55.13H7.55599C7.40199 55.13 7.24799 55.014 7.24799 54.898V54.784C7.24799 54.435 7.67099 54.435 7.67099 54.089C7.20899 54.128 6.43799 54.784 6.43799 55.361C6.43799 55.746 6.93899 55.978 7.32599 55.978H7.43999C8.17199 55.978 9.02099 55.438 9.29099 54.936C10.177 54.898 10.91 54.127 10.91 53.163C10.563 53.395 10.371 53.935 9.67699 53.935Z" fill="black"/>
<path d="M10.486 49.77C10.332 49.656 10.409 49.656 10.256 49.54C10.14 49.424 9.908 49.116 9.755 49.116C9.755 49.307 9.677 49.385 9.677 49.579C9.677 50.427 10.294 51.043 11.142 51.043C11.334 51.043 11.836 50.89 11.874 50.696C11.257 50.543 11.103 50.388 10.717 50.003C10.641 49.925 10.563 49.847 10.486 49.77Z" fill="black"/>
<path d="M15.614 37.086C15.575 36.972 15.498 36.778 15.344 36.778H15.229C14.843 36.778 14.535 37.086 14.265 37.086H14.188L13.725 36.238H13.493C13.301 36.238 13.185 36.392 13.147 36.546H13.339C13.416 36.546 13.416 36.587 13.493 36.623C13.493 37.202 13.455 37.396 13.648 37.818C13.725 38.089 13.957 38.59 14.265 38.59H15.113C15.459 38.59 16.154 38.358 16.231 38.088L15.614 38.166C15.344 38.204 14.727 37.934 14.727 37.742C14.727 37.433 15.189 37.086 15.614 37.086Z" fill="black"/>
<path d="M11.913 36.432C12.337 36.432 12.569 36.623 12.993 36.355C13.302 36.164 13.378 35.853 13.533 35.545C13.687 35.237 13.803 34.966 14.15 34.813C14.42 34.62 14.882 34.62 14.959 34.273C13.61 34.312 12.646 35.662 12.376 35.662C11.875 35.662 11.605 34.967 11.605 34.429V34.39C11.605 34.119 11.682 33.811 11.759 33.618C11.913 33.271 11.99 33.271 12.145 33.041C11.49 33.194 10.988 33.851 10.988 34.66V34.814C10.988 35.275 11.104 35.507 11.258 35.815C11.449 36.201 11.758 36.238 11.913 36.432Z" fill="black"/>
<path d="M18.7739 46.917V46.454C18.7739 45.453 16.1529 43.6021 14.8809 43.6021H14.7649C14.4949 43.6021 14.1089 43.8711 14.1089 44.1031V44.217C14.1089 44.68 15.0339 44.9891 15.0339 44.7191C15.0339 44.5661 14.8799 44.641 14.8799 44.528C14.8799 44.45 14.9179 44.411 14.9949 44.411H15.1109C15.5349 44.411 15.7269 44.6031 16.0359 44.6031C16.4209 44.8741 16.8449 44.99 17.1929 45.336C17.4239 45.528 17.9639 46.107 17.9639 46.453V46.6081C17.9639 46.9161 17.6169 47.148 17.3469 47.187C17.2699 46.916 15.9209 45.721 15.6509 45.528C15.3029 45.336 13.7999 44.372 13.4909 44.333C13.4529 44.449 13.4139 44.4491 13.4139 44.6031V44.641C13.4139 45.259 14.4549 45.9911 14.4549 46.916V47.148C14.4549 47.919 13.9929 48.265 13.7229 48.69C14.4169 48.69 14.6099 48.343 14.8029 47.841C15.0729 47.187 14.8799 47.0311 15.4969 46.6081C15.7669 46.7611 16.0759 46.9551 16.0759 47.3791V47.995C16.0759 48.458 15.5739 48.998 15.2279 49.114C14.8039 49.191 13.9159 49.305 13.4149 49.305C13.5309 49.4601 14.2249 49.654 14.5719 49.654H14.8029C15.3809 49.654 15.6129 49.5381 16.0749 49.4221C16.4979 49.3471 16.9609 49.114 17.2689 49.114C17.2689 49.23 17.3079 49.3051 17.3079 49.3461L17.2689 49.6911C16.9609 49.8451 16.6909 50.192 16.2669 50.231V50.308V50.347H17.4629C17.6169 50.347 17.8869 50.4631 17.8869 50.6161V50.8101C17.8869 51.3501 17.0389 51.6581 16.4599 51.6581C16.4599 51.9281 16.6529 51.8131 16.6529 52.0051V52.121H16.5399C16.0769 52.121 15.6139 52.5841 15.6139 53.0471V53.086C15.6139 53.238 15.6909 53.316 15.7679 53.433L16.1529 53.086V53.161H16.7319C17.1559 53.161 17.5799 53.009 17.7729 52.737C17.4649 52.737 17.3489 52.698 16.9629 52.737C16.6159 52.775 16.5399 52.8911 16.3069 52.9691C16.5389 52.5831 17.1939 52.351 17.5799 52.043C17.7339 51.888 18.6979 51.117 18.6979 50.965C18.6979 50.463 18.5439 49.4211 18.3889 49.0741C18.3119 48.8421 18.1959 48.4951 18.0809 48.3031C18.0039 48.1871 17.7329 47.685 17.6949 47.572C17.9649 47.535 18.7739 47.188 18.7739 46.917ZM16.1919 53.0871L16.1529 53.048L16.1919 53.01L16.2299 53.048L16.1919 53.0871ZM16.2689 52.9711C16.1919 53.048 16.3459 52.8931 16.2689 52.9711V52.9711Z" fill="black"/>
<path d="M16.384 35.468C16.384 35.468 16.153 35.7 16.153 35.892V36.124C16.153 36.276 16.77 37.048 16.77 37.086C16.77 37.433 16.346 37.549 16.23 37.973C16.924 37.973 16.846 37.819 17.232 37.704C16.885 38.319 16.962 38.744 16.5 39.323C16.077 39.863 15.768 40.094 15.344 40.556C14.65 41.248 13.339 41.983 13.339 43.332C13.339 43.832 13.57 44.181 13.956 44.258C13.956 44.217 13.994 44.142 13.994 44.142C13.994 43.679 13.956 43.293 13.956 42.831C13.956 42.56 14.226 42.021 14.38 41.866C15.035 41.248 15.304 41.21 16.037 40.788C16.846 40.325 16.962 40.286 17.502 39.516C17.695 39.205 18.12 37.895 18.158 37.396C17.849 37.396 17.657 37.704 17.502 37.704H17.271C17.348 37.472 17.541 37.472 17.541 37.125V36.895C17.541 36.471 16.077 36.047 16.423 35.506L16.384 35.468Z" fill="black"/>
<path d="M8.44299 43.062V43.294C8.44299 44.411 9.71499 45.337 10.948 45.337H10.987C11.527 45.337 12.028 45.144 12.337 44.874C11.643 44.874 10.486 44.373 10.062 44.065C9.32999 43.486 9.09799 43.177 8.51999 42.521L8.44299 43.062Z" fill="black"/>
<path d="M9.09802 42.2141C9.21402 42.7151 9.48402 42.9091 9.75402 43.2171C9.98402 43.5641 10.563 43.8331 10.679 43.9881C10.987 43.9881 11.295 44.2961 11.835 44.2961H13.03L13.069 43.1411C13.069 42.9861 11.18 42.9111 10.871 42.9111C10.601 42.9111 9.98402 42.8341 9.79102 42.7561C9.67602 42.7171 9.52002 42.6011 9.40602 42.5241C9.13702 42.4071 9.25202 42.3301 9.09802 42.2141Z" fill="black"/>
<path d="M13.301 25.5979C13.301 25.6749 13.108 25.908 13.108 26.023C13.108 26.177 13.417 26.177 13.571 26.177C13.763 26.177 13.879 26.2929 14.111 26.2929L14.034 25.9839H14.457C14.843 25.9839 15.305 25.328 15.305 24.943V24.788C15.305 24.712 15.267 24.673 15.19 24.673H15.074C14.65 24.673 14.689 25.175 14.265 25.212C14.226 24.982 13.956 24.943 13.956 24.673V24.558H14.65C14.573 24.442 13.648 23.9789 13.416 24.0179L13.069 24.0569V24.4419C13.069 24.7889 13.3 25.2519 13.3 25.4069L13.301 25.5979Z" fill="black"/>
<path d="M11.565 40.6729C11.489 39.9409 11.449 38.8989 11.449 38.1279C11.064 38.6679 10.563 38.7819 10.563 39.5919C10.563 40.3259 10.872 40.8639 11.219 41.2879C11.373 41.4809 11.565 41.7509 11.797 41.8669C11.836 41.9059 12.491 42.3689 12.491 42.3689L12.53 42.3299C12.53 42.3299 12.376 42.2139 12.338 42.2139C12.222 42.1369 12.261 42.1369 12.184 42.0229C12.068 41.9069 11.952 41.8289 11.875 41.6739C11.758 41.3649 11.604 41.0189 11.565 40.6729Z" fill="black"/>
<path d="M15.42 40.0159C15.961 40.0159 16.153 39.5529 16.153 39.0149C15.999 39.0539 15.729 39.131 15.536 39.131L15.266 39.1679L13.376 38.8979C13.415 39.2839 14.726 40.0149 15.228 40.0149L15.42 40.0159Z" fill="black"/>
<path d="M17.079 27.333C16.963 27.333 16.925 27.371 16.809 27.371H16.578C16.385 27.371 16.385 27.294 16.307 27.18C16.346 27.025 16.384 26.987 16.384 26.831V26.601C16.384 26.33 15.883 25.908 15.729 25.675C15.69 25.985 15.382 25.946 15.382 26.33V26.445C15.382 26.523 15.42 26.5611 15.498 26.5611H15.537C15.729 26.5611 15.999 26.445 15.999 26.639V26.677C15.999 26.83 15.729 26.869 15.729 27.293C15.729 27.409 15.729 27.409 15.768 27.486C15.999 27.486 16.077 27.564 16.307 27.564H16.616C16.809 27.565 17.041 27.487 17.079 27.333Z" fill="black"/>
<path d="M18.158 52.854L17.696 52.97V53.2C17.696 53.354 17.888 53.432 18.043 53.432C18.043 53.316 18.005 53.277 18.005 53.161V53.122C18.004 53.048 18.12 52.971 18.158 52.854Z" fill="black"/>
<path d="M12.9541 39.2061C12.8771 38.9371 12.9151 38.5911 12.8771 38.2811C12.8381 37.7811 12.6461 37.0481 12.2221 36.9331C12.1451 37.2411 12.0291 37.4321 12.0291 37.8181V38.1281C12.0291 38.5521 12.1841 38.8211 12.1841 39.1681C12.3761 39.4781 12.4141 39.8241 12.6841 40.0941C12.9931 40.3651 13.1081 40.5571 13.5321 40.6731L13.0701 40.0551C13.0691 39.8241 12.9921 39.4781 12.9541 39.2061Z" fill="black"/>
<path d="M9.521 40.094V40.404C9.521 41.058 10.177 42.098 10.601 42.215L10.37 41.829V41.675L10.293 41.561L10.216 40.943L10.177 40.752L10.37 39.594C9.946 39.631 9.869 40.094 9.521 40.094Z" fill="black"/>
<path d="M13.7629 39.824V39.977C13.7629 40.209 14.1489 40.71 14.3409 40.71H14.7659C14.8819 40.71 15.0359 40.517 15.0739 40.439C14.9199 40.209 14.7659 40.13 14.4569 40.092C14.1489 40.016 13.9559 39.863 13.7629 39.824Z" fill="black"/>
<path d="M9.25204 40.7109H9.06004C8.98304 40.7109 8.86804 40.8269 8.86804 40.9019V41.2109C8.86804 41.4429 9.13804 41.7119 9.29204 41.7119H9.48404C9.44504 41.4819 9.36804 41.5209 9.36804 41.2109C9.36804 41.0189 9.44504 40.7109 9.25204 40.7109Z" fill="black"/>
<path d="M11.951 40.3261L12.183 40.9801C12.337 41.0571 12.992 42.2131 13.301 42.2131C13.455 42.2131 13.956 41.7501 13.956 41.4421C13.262 41.2871 13.107 41.2101 12.645 40.7881C12.298 40.4391 12.183 39.9391 11.874 39.5911L11.951 40.3261Z" fill="black"/>
<path d="M17.8879 53.6641H17.6569C17.4649 53.7801 17.1949 53.8181 17.1949 54.1651V54.2431L17.3109 55.0141C17.6579 54.9361 17.5809 54.7051 17.5809 54.3211C17.5799 53.8571 17.6569 53.8961 17.8879 53.6641Z" fill="black"/>
<path d="M12.9151 46.416C13.1071 46.57 13.4551 47.303 13.4931 47.651C13.7251 47.612 13.8791 47.149 13.8791 46.839V46.648C13.8791 46.03 13.3781 45.22 12.8001 45.22H12.5691C12.2981 45.22 11.8751 45.49 11.8361 45.683C12.0671 45.799 12.2221 45.799 12.4141 45.991C12.5291 46.069 12.7991 46.341 12.9151 46.416Z" fill="black"/>
<path d="M58.136 27.5651H58.56C58.792 27.5651 58.753 27.4871 59.023 27.4871C59.062 27.4101 59.099 27.4101 59.099 27.3331V27.2561C59.099 27.0641 58.869 26.7931 58.791 26.6401L58.906 26.5241L59.215 26.5621H59.254C59.37 26.5621 59.37 26.5621 59.446 26.5241V26.4091C59.446 26.0231 59.176 25.9851 59.099 25.7151H59.023C59.023 25.9461 58.406 26.2941 58.406 26.7181C58.406 26.9091 58.483 26.9481 58.483 27.1421V27.1811C58.483 27.2571 58.367 27.3721 58.291 27.3721H57.982C57.866 27.3721 57.828 27.3341 57.712 27.3341C57.79 27.4491 57.944 27.5651 58.136 27.5651Z" fill="black"/>
<path d="M60.488 25.2121C60.179 25.2121 60.179 24.6731 59.717 24.6731H59.64C59.563 24.6731 59.525 24.7121 59.525 24.7881V24.9431C59.525 25.3281 59.987 25.9841 60.296 25.9841H60.797L60.681 26.2931L61.723 26.0991C61.684 25.8701 61.529 25.6751 61.529 25.5981V25.4451C61.529 25.1751 61.723 25.0211 61.723 24.5191V24.0571C61.607 24.0571 61.568 24.0181 61.452 24.0181C61.106 24.0181 60.296 24.4031 60.18 24.5581L60.258 24.5971C60.605 24.5971 60.567 24.4421 60.875 24.5971C60.835 24.7881 60.681 25.2121 60.488 25.2121Z" fill="black"/>
<path d="M57.5971 26.523C58.2141 26.523 58.4841 26.561 58.4841 25.945V25.753C58.4841 25.444 58.2921 25.251 57.9831 25.251H57.9451C57.6741 25.251 57.2501 25.406 57.0961 25.483L56.8651 25.251L56.8261 25.29C56.8261 25.637 56.6331 25.714 56.6331 25.945C56.6331 26.06 56.6721 26.098 56.7101 26.176C57.0961 25.984 57.7901 25.984 57.8291 25.483L58.0981 25.713C57.9831 25.906 57.2501 26.214 56.9801 26.292C57.0581 26.6 57.2891 26.907 57.6351 26.946V26.87C57.5591 26.831 57.4431 26.793 57.4431 26.717C57.4431 26.601 57.5191 26.562 57.5971 26.523ZM57.3651 25.83H57.2881C57.1731 25.83 57.1731 25.83 57.0961 25.791L57.2881 25.521L57.6351 25.483C57.6351 25.637 57.5191 25.83 57.3651 25.83Z" fill="black"/>
<path d="M62.7239 33.0391L62.6849 33.0781H62.7239C62.7239 33.1161 62.7239 33.1161 62.7619 33.1161C62.7619 33.1541 62.8009 33.1541 62.8009 33.1921C62.8779 33.2691 62.8779 33.2301 62.9169 33.3081C62.9939 33.4621 63.0329 33.5391 63.0709 33.6561C63.1489 33.9651 63.2259 34.1171 63.2259 34.5031C63.2259 34.9661 62.8779 35.6611 62.4929 35.6611C62.3399 35.6611 61.4909 34.9271 61.3369 34.8121C61.2599 34.7351 60.7969 34.4661 60.7199 34.4271C60.5279 34.3501 60.0259 34.3501 59.8719 34.2721C59.9479 34.6191 60.7199 34.7351 61.0279 35.0821C61.3749 35.4291 61.3369 35.9691 61.7999 36.3151C62.2609 36.6621 62.8779 36.4701 63.2639 36.2011C63.5719 35.9691 63.8419 35.3121 63.8419 34.7741V34.6191C63.8419 34.1951 63.6499 33.9261 63.5339 33.5781C63.3789 33.2701 62.9929 33.1921 62.7239 33.0391Z" fill="black"/>
<path d="M60.372 27.2561V27.0641C60.372 26.5241 59.987 25.9081 59.678 25.7141L59.524 26.8701V27.2181L59.293 27.1801V27.3331C59.293 28.0651 58.907 28.0271 58.676 28.3361L58.252 28.5281C59.023 28.5281 59.062 28.2191 59.563 28.1041C59.601 28.1801 59.64 28.1801 59.64 28.2571V28.3731C60.025 28.2971 60.372 27.7181 60.372 27.2561Z" fill="black"/>
<path d="M63.3789 36.238C63.1859 36.276 63.1859 36.392 63.0319 36.47C62.8769 36.545 62.7229 36.545 62.5699 36.622C62.8779 37.085 63.0699 37.509 63.4559 37.894C63.5339 38.01 63.5719 38.126 63.6879 38.204C63.8419 38.357 63.8039 38.396 63.9189 38.513C64.1499 38.704 64.2659 38.821 64.4579 39.053C64.5359 39.167 64.9209 39.477 64.9979 39.591C65.1909 39.823 65.3069 39.94 65.5379 40.131C65.6539 40.247 65.5779 40.247 65.7689 40.44C65.8469 40.517 65.9239 40.633 65.9999 40.75C66.1929 40.902 66.3089 41.211 66.5009 41.365L67.0029 42.097C67.0029 41.248 65.6919 39.63 65.2289 39.13C65.0359 38.937 64.3039 38.088 64.1489 37.856C64.0719 37.665 63.8399 37.318 63.7259 37.085C63.5719 36.817 63.4949 36.509 63.3789 36.238Z" fill="black"/>
<path d="M61.915 38.7819C61.915 39.2059 61.838 39.5159 61.76 39.9009C61.606 40.5169 61.529 40.2869 61.26 40.6719C61.645 40.6719 62.223 40.0149 62.339 39.7069C62.492 39.3989 62.608 39.3989 62.647 38.9759C62.685 38.7049 62.801 38.4739 62.801 38.0879V37.8169C62.801 37.4699 62.685 37.2399 62.609 36.9319C62.068 37.0479 61.953 38.0889 61.915 38.7819Z" fill="black"/>
<path d="M62.993 45.6839C62.955 45.4909 62.531 45.2209 62.261 45.2209H61.953C61.528 45.2209 60.912 46.1079 60.912 46.5709V46.8009C60.912 47.0719 61.105 47.5349 61.298 47.6519C61.489 47.3029 61.567 46.6869 61.876 46.4169C62.261 46.1459 62.454 45.7999 62.993 45.6839Z" fill="black"/>
<path d="M15.1891 25.675C14.8421 25.907 14.4561 26.4851 14.4561 27.1031V27.333C14.4561 27.757 14.8421 28.2971 15.1501 28.3741C15.3041 28.0651 15.1121 27.989 15.5741 28.258C15.7671 28.336 15.9981 28.452 16.1531 28.529H16.5391C16.3841 28.298 15.5361 28.337 15.5361 27.372V27.18L15.3041 27.2181V27.025C15.3041 26.717 15.1501 26.331 15.1501 26.177V25.869C15.1511 25.753 15.1511 25.753 15.1891 25.675Z" fill="black"/>
<path d="M17.001 25.483C17.04 25.713 17.271 25.945 17.464 25.984C17.695 26.022 18.158 26.254 18.158 26.06V25.945C18.158 25.674 18.004 25.597 18.004 25.406V25.29C17.733 25.328 17.849 25.483 17.733 25.483C17.656 25.483 17.232 25.251 16.846 25.251H16.808C16.539 25.251 16.307 25.483 16.307 25.791C16.307 26.484 16.5 26.523 17.194 26.523C17.232 26.561 17.386 26.639 17.386 26.677C17.386 26.83 17.232 26.792 17.194 26.947C17.541 26.87 17.772 26.639 17.849 26.293C17.734 26.293 16.732 25.83 16.732 25.753C16.732 25.637 16.924 25.521 17.001 25.483ZM17.734 25.791C17.657 25.83 17.657 25.83 17.541 25.83C17.31 25.83 17.194 25.714 17.194 25.483C17.464 25.483 17.696 25.521 17.734 25.791Z" fill="black"/>
<path d="M15.189 24.5971C15.382 24.5971 15.729 24.9441 15.768 25.0981L17.001 24.9821H17.194C17.464 24.9821 17.695 25.0601 17.926 25.0981C18.273 25.1361 18.35 25.3281 18.543 25.3681V25.1761C18.543 25.1371 18.389 24.7891 18.35 24.7501C18.158 24.7501 17.733 24.6371 17.502 24.5981C17.194 24.5591 16.808 24.5591 16.539 24.5201C16.114 24.4821 15.998 24.5591 15.768 24.2901C15.69 24.1751 15.267 23.9031 15.113 23.9031H14.804L14.958 24.5981L15.189 24.5971Z" fill="black"/>
<path d="M61.451 38.8979L59.485 39.1679L59.371 39.131L58.677 39.054C58.677 39.631 58.908 40.0159 59.448 40.0159C60.179 40.0159 61.221 39.3999 61.451 38.8979Z" fill="black"/>
<path d="M21.859 7.86398C21.974 8.44298 22.476 11.102 22.399 11.641L22.36 12.104C22.283 12.182 21.898 12.683 21.898 12.722V12.837C21.898 12.913 22.052 13.068 22.09 13.068C22.129 13.068 23.054 12.413 23.208 12.335C23.555 12.104 24.018 11.835 24.365 11.641C24.326 11.565 24.211 11.256 24.133 11.256C23.902 11.256 23.786 11.488 23.478 11.488C23.054 11.488 22.938 10.562 22.938 10.06L24.79 8.90398C25.02 9.09598 25.792 9.51998 25.792 9.86698V9.94398C25.792 10.138 25.291 10.407 25.291 10.562C25.291 10.677 25.445 10.87 25.521 10.909C26.099 10.601 26.678 10.022 27.257 9.75298C27.449 9.63698 28.953 8.74998 29.029 8.63498C28.991 8.48098 28.952 8.28698 28.759 8.28698C28.682 8.28698 28.374 8.47998 28.142 8.47998H27.91C27.602 8.47998 26.599 7.70898 26.369 7.51598C26.137 7.36098 25.096 6.55098 24.903 6.47398C24.711 6.35998 23.708 5.62698 23.477 5.39598C23.323 5.31798 21.973 4.35498 21.973 4.35498H21.781C21.241 4.35498 21.511 5.54998 21.589 5.97298C21.743 6.55298 21.743 7.20998 21.859 7.86398ZM22.36 7.13198L24.327 8.55898L22.785 9.52198L22.323 7.13198H22.36Z" fill="black"/>
<path d="M43.14 8.249C43.178 8.212 43.294 8.058 43.294 7.98V7.864C43.294 7.71 42.562 7.556 42.562 7.171V6.9C42.562 6.785 42.831 5.974 42.87 5.782C42.947 5.435 43.14 5.089 43.178 4.626L45.954 5.475C45.916 5.552 45.491 6.863 45.491 6.939C45.414 7.363 45.221 8.134 44.72 8.097L44.18 8.058C44.141 8.097 44.026 8.249 44.026 8.328V8.405C44.026 8.482 44.064 8.482 44.104 8.521L45.183 8.791L45.299 8.868C45.569 8.868 47.728 9.561 47.96 9.678C48.075 9.6 48.152 9.484 48.152 9.331V9.291C48.152 9.175 47.303 8.982 47.303 8.443C47.303 8.212 47.613 7.248 47.69 6.977C47.844 6.552 47.96 5.974 48.113 5.551C48.267 5.165 48.421 4.548 48.537 4.124C48.653 3.7 48.808 3.006 49.308 3.006H49.654L50.001 3.044C50.001 2.852 50.079 2.891 50.079 2.736V2.659C50.079 2.506 49.347 2.351 49.155 2.351C49 2.236 47.92 2.043 47.612 1.927C47.38 1.812 46.3 1.426 46.108 1.426C46.108 1.619 46.031 1.58 46.031 1.736V1.812C46.031 1.889 46.07 1.889 46.108 1.966C46.338 1.966 46.724 2.237 46.724 2.352V2.738C46.724 3.123 46.493 3.508 46.416 3.817C46.377 4.203 46.107 4.666 46.107 4.935C45.837 4.935 44.565 4.472 44.218 4.357C43.948 4.318 43.37 4.242 43.408 4.009C43.408 3.817 43.639 3.199 43.678 3.083L43.987 2.159V2.005C44.103 1.812 44.179 1.58 44.487 1.58H44.719L45.142 1.619C45.181 1.542 45.22 1.503 45.22 1.388V1.117C44.911 1.04 44.565 1.001 44.257 0.886C43.948 0.772 43.562 0.733 43.293 0.616C43.023 0.54 42.638 0.386 42.368 0.308C42.214 0.27 41.521 0.038 41.443 0H41.29C41.251 0.153 41.173 0.192 41.173 0.27V0.463C41.482 0.501 41.983 0.849 41.983 1.195C41.983 1.696 41.675 2.236 41.597 2.659C41.52 3.045 41.289 3.701 41.173 4.125C41.019 4.549 40.865 5.089 40.75 5.552C40.634 5.975 40.48 6.708 39.979 6.669L39.324 6.631C39.285 6.708 39.208 6.823 39.208 6.862V7.054C39.825 7.209 40.596 7.439 41.213 7.594C41.791 7.786 42.639 8.019 43.14 8.249Z" fill="black"/>
<path d="M49.0379 10.178C48.8839 10.178 48.8069 10.37 48.7679 10.525C48.8459 10.679 50.1569 11.527 50.4259 11.758C50.6189 11.874 52.0839 13.03 52.0839 13.03C52.1999 13.03 52.3919 12.759 52.3919 12.722C52.3919 12.335 51.3899 12.413 52.1999 11.178C52.3539 10.987 52.5859 10.717 52.7009 10.486C52.7389 10.447 53.2009 9.83004 53.2399 9.79204C53.5489 9.44404 54.0119 8.79004 54.2819 8.40404C54.3969 8.21204 54.6289 7.90204 54.7829 7.71004C54.9369 7.47904 55.1299 7.21004 55.5149 7.21004H55.5539C55.7069 7.21004 56.2089 7.47904 56.2089 7.47904C56.3629 7.47904 56.4789 7.24904 56.5169 7.09404C56.0549 6.86304 53.2019 4.66504 53.2019 4.66504H53.0099C52.9709 4.81804 52.8939 4.85604 52.8939 4.93504C52.8939 5.12804 53.3949 5.32004 53.3949 5.86104C53.3949 6.13004 52.7779 6.90104 52.5859 7.09404C52.3149 7.44004 52.0459 7.94204 51.7369 8.28804C51.4279 8.59704 51.1589 9.13604 50.8499 9.44404C50.5799 9.75404 50.2719 10.447 49.8089 10.447C49.4999 10.447 49.1159 10.178 49.0379 10.178Z" fill="black"/>
<path d="M29.53 1.65808C29.839 2.23608 29.762 2.12108 29.878 2.92908C29.955 3.35408 30.07 3.81608 30.148 4.27808C30.187 4.54908 30.187 4.81808 30.225 5.01108C30.264 5.28108 30.341 5.47408 30.341 5.70408C30.379 6.16708 30.534 6.59108 30.534 7.17008C30.534 7.67208 29.994 7.86308 29.609 7.94108V8.13308C29.609 8.24808 29.648 8.28708 29.686 8.36408C30.457 8.36408 31.614 7.94008 32.307 7.94008C32.769 7.94008 34.582 7.63208 34.929 7.51608C36.394 6.97608 37.627 6.12708 37.627 4.12308C37.627 3.08108 37.165 1.84808 36.587 1.38608C36.124 0.999082 36.047 0.884082 35.43 0.654082C35.198 0.540082 34.196 0.270082 33.81 0.347082V0.309082L28.567 1.11808C28.528 1.15708 28.528 1.15708 28.528 1.27308C28.528 1.38808 28.605 1.50308 28.644 1.54308L29.53 1.65808ZM31.844 1.54208C31.844 1.04008 32.768 0.925082 33.27 0.925082C33.618 0.925082 33.733 1.04008 34.042 1.04008C34.157 1.23308 34.504 1.34908 34.697 1.73508C34.89 2.00508 35.006 2.31208 35.121 2.65908C35.314 3.27608 35.507 4.16408 35.507 4.97208C35.507 5.43508 35.314 5.78208 35.314 6.12808C34.928 6.70708 34.697 7.05408 33.849 7.20908C32.577 7.43808 32.731 7.13108 32.538 6.08908C32.422 5.35808 32.268 4.58708 32.191 3.85508C32.152 3.46908 32.036 3.16008 31.998 2.77508C31.96 2.38908 31.844 1.92608 31.844 1.61908V1.54208Z" fill="black"/>
<path d="M56.4399 24.7489L56.2469 25.3669C56.4789 25.3279 56.5559 25.1359 56.8259 25.0969C57.0959 25.0579 57.2499 24.9809 57.5589 24.9809H57.9059L58.9849 25.0969C59.1779 24.9809 59.3709 24.5959 59.6399 24.5959H59.8329L59.9869 23.9009H59.8329C59.5249 23.9009 59.2939 24.0559 59.0999 24.2109C58.9849 24.2879 59.0239 24.3639 58.8309 24.4809C58.6769 24.5579 58.5219 24.5189 58.3299 24.5189C58.0989 24.5969 57.6359 24.5969 57.3659 24.5969C57.0569 24.5969 56.7089 24.7489 56.4399 24.7489Z" fill="black"/>
<path d="M63.379 49.925C62.955 49.886 62.492 49.115 62.492 48.653V48.42C62.492 48.034 62.646 47.766 62.723 47.458C62.261 47.574 62.261 47.687 62.029 47.996C62.029 48.15 61.837 49.192 61.8 49.348C61.684 49.809 61.529 50.158 60.99 50.158H60.836C60.296 50.158 60.026 49.964 59.64 49.964C59.833 50.273 60.141 50.58 60.528 50.657C60.488 51.043 59.333 51.006 58.908 51.043C59.024 51.197 59.718 51.314 60.026 51.314H60.103C60.99 51.314 61.337 51.121 61.992 50.929C62.416 50.774 63.303 50.003 63.38 50.003L63.379 49.925Z" fill="black"/>
<path d="M50.157 40.4031H42.5229V40.9411H50.157V40.4031Z" fill="black"/>
<path d="M19.16 27.0239C19.16 27.2169 19.276 27.3329 19.43 27.3329C19.546 27.3329 19.661 27.2939 19.661 27.1799C19.661 27.0639 19.545 27.0249 19.43 27.0249L19.16 27.0239Z" fill="black"/>
<path d="M46.339 38.1279H42.5229V38.6279H46.339V38.1279Z" fill="black"/>
<path d="M40.865 35.853H38.3979V36.355H40.865V35.853Z" fill="black"/>
<path d="M46.339 39.2451H42.5229V39.7851H46.339V39.2451Z" fill="black"/>
<path d="M19.238 26.4839C19.16 26.4839 19.084 26.5609 19.084 26.6389V26.6769C19.084 26.7539 19.199 26.8689 19.276 26.8689H19.43C19.507 26.8689 19.546 26.8299 19.546 26.7539V26.7159C19.546 26.6009 19.314 26.4839 19.238 26.4839Z" fill="black"/>
<path d="M55.399 35.8531C55.707 36.2021 55.823 36.3551 56.17 36.7021C56.324 36.8181 57.018 37.2811 57.211 37.3191C57.211 37.0871 57.095 37.1261 57.095 37.0111V36.8561C57.095 36.7401 57.095 36.7021 57.134 36.6241C57.095 36.5881 56.748 36.2771 56.709 36.2021C56.517 36.0861 56.401 35.9311 56.247 35.7761C55.977 35.4681 55.707 35.1601 55.476 34.8131C55.283 34.5031 54.204 32.8841 54.204 32.5771V32.3851C54.204 32.2701 54.358 32.1931 54.358 31.9981C54.358 31.8841 54.281 31.7681 54.243 31.6131C54.32 31.5741 54.32 31.5361 54.397 31.5361H54.552C54.899 31.5361 54.783 31.6901 55.13 31.6901C54.938 31.3821 54.32 31.2271 54.32 30.9971V30.8801C54.32 30.8031 54.474 30.5331 54.59 30.5331H54.783C55.13 30.5331 55.593 30.7631 55.746 30.9581C55.669 31.1491 55.515 31.8451 55.515 32.1131C55.515 32.7301 55.9 33.5781 56.247 33.8091C56.595 34.0401 57.288 34.6581 57.789 34.6961C57.75 34.3501 57.558 34.4671 57.518 34.2721C57.828 34.5021 58.097 35.0041 58.406 35.2731C58.559 35.4281 59.215 36.2011 59.408 36.2011C59.484 36.2011 59.524 36.1631 59.524 36.0851C59.524 35.2371 58.329 34.3511 58.329 34.0031V33.8491C58.329 33.6171 58.407 33.4251 58.599 33.3861L58.715 33.5401C58.754 33.4631 58.793 33.4251 58.793 33.3091V32.9621C58.793 32.5761 57.945 31.9971 57.906 31.5731C58.522 31.9971 59.024 32.3441 60.065 32.3441C59.834 32.1911 59.063 32.0741 59.024 31.6501C59.718 31.6501 59.91 31.8441 60.373 32.0751C60.335 31.5731 59.873 31.3821 59.679 31.0721C60.566 31.0721 60.991 31.5731 61.568 31.8831C61.568 31.2271 61.028 31.1111 61.028 30.7641C61.028 30.6871 61.105 30.6111 61.143 30.6111C61.374 30.6111 61.374 30.8421 61.49 30.9201C61.49 30.0711 61.221 30.2251 61.143 29.8781C61.567 29.8391 61.722 29.4921 61.876 29.1471C61.915 28.9171 61.953 28.8001 62.029 28.5681C62.107 28.3761 62.3 28.2591 62.339 28.1061C62.724 28.1061 62.916 28.1441 62.916 28.6061C62.916 28.8381 62.531 28.7221 62.531 29.0691C62.762 29.1081 62.878 29.8011 62.878 30.0721V30.3421C62.647 30.3031 62.685 30.1881 62.378 30.1881H62.224C62.108 30.1881 62.108 30.1881 62.03 30.2261L61.992 30.4581H62.107C62.57 30.4581 62.647 30.5731 62.916 30.7271C62.916 31.1521 62.8 31.3451 62.839 31.8851C62.877 32.3471 62.955 32.5781 63.186 32.8491C63.148 32.6551 63.032 32.5401 63.032 32.3101V32.2711L63.07 31.7311C63.263 31.4601 63.379 30.3811 63.379 29.8791L63.417 28.6851C63.417 27.4901 62.684 26.7571 61.991 26.2951H61.837C61.914 26.4101 62.029 26.4861 62.029 26.6801V26.8721C62.029 27.1041 61.837 27.3731 61.722 27.4891C61.722 27.1811 61.221 26.6021 61.028 26.6021H60.912C60.912 26.9101 60.951 27.1421 61.221 27.2191C61.183 27.4111 61.105 27.3341 60.874 27.3341L61.143 27.8741C61.105 27.8741 60.912 27.7191 60.912 27.7191C60.796 27.7191 60.372 28.5301 60.372 28.6841L60.064 28.6061C59.872 29.4931 58.946 29.3391 58.792 29.5711L58.984 29.6091L58.56 30.1111L58.599 30.1491C58.715 30.0721 59.024 29.8781 59.216 29.8781H59.948C60.372 29.8781 60.835 30.2641 60.835 30.6881C60.604 30.5351 60.064 30.3411 59.678 30.3411H59.524C59.138 30.3411 58.792 30.5341 58.521 30.6501L58.367 29.7631C58.483 29.5711 58.714 29.6091 58.714 29.4541V29.2631C58.714 29.1851 58.521 28.9921 58.444 28.9921H58.328C57.981 28.9921 57.48 29.5311 57.133 29.4541V29.5701H56.67C56.439 29.5701 56.284 29.4921 56.208 29.3391C56.67 29.1081 57.133 29.3781 57.711 28.9921C57.711 28.1431 57.21 27.1031 56.323 27.1031C56.014 27.1031 55.976 27.4881 55.629 27.4881H55.205C55.089 27.4881 54.781 27.1801 54.588 27.1801H54.434L54.356 27.0251L54.51 27.1031C54.51 26.9871 54.472 26.9481 54.472 26.9091L54.55 26.6401L54.858 26.3301C55.167 26.5231 55.86 26.4451 56.323 26.4451C56.207 26.2931 55.899 26.1371 55.667 26.1371H55.243C54.935 26.1371 54.781 26.2141 54.549 26.2531L54.433 26.2141C54.587 25.6361 56.052 26.1371 56.052 25.4431H55.9V25.2111C55.9 25.0201 55.784 24.9811 55.784 24.8641C55.784 24.6721 55.9 24.5951 55.977 24.4791C55.861 24.4011 55.63 24.2871 55.668 24.0551L55.706 23.6691C55.784 23.5921 55.861 23.5531 55.938 23.4381C56.169 23.2071 56.054 23.3611 56.246 23.2461C56.054 23.2461 55.553 23.2841 55.553 23.1301C55.553 22.5131 55.9 22.3201 56.555 22.3201C56.478 22.2051 56.439 22.0901 56.246 22.0901H55.822C55.668 22.0901 55.475 22.2051 55.398 22.2811C55.436 22.1281 55.745 21.9341 55.822 21.9341H55.976C56.785 21.9341 57.518 22.6271 57.518 23.4381V24.0931C57.518 24.2091 57.48 24.2471 57.48 24.3631C57.596 24.2101 57.789 23.8241 57.789 23.5921V23.3221C57.789 22.5111 57.057 21.7031 56.208 21.7031H56.13C55.938 21.7031 55.591 21.7801 55.475 21.8561L55.514 13.2201C55.36 13.2591 55.321 13.2591 55.205 13.3351C55.013 13.4131 54.974 13.3351 54.819 13.4131C54.549 13.4511 54.356 13.5291 54.087 13.6061C53.586 13.7201 53.046 13.7971 52.545 13.8761C51.774 14.0301 50.155 14.1841 49.23 14.1841H47.996C46.492 14.1841 43.524 13.1441 42.368 12.6811C41.52 12.3331 40.671 11.9871 39.862 11.6011C39.477 11.4481 38.976 11.2541 38.628 11.0611C38.551 10.9851 37.433 10.4451 37.433 10.4451C37.433 10.4451 35.66 11.2931 35.544 11.3711C35.313 11.4871 34.811 11.7181 34.542 11.7951C34.388 11.8721 34.233 11.9111 34.079 12.0261C33.848 12.1411 33.771 12.1411 33.54 12.2181C32.922 12.4891 29.993 13.6821 29.338 13.6821C29.068 13.8761 27.295 14.1841 26.794 14.1841H25.598C24.442 14.1841 23.324 14.0311 22.283 13.8761C21.203 13.7601 20.278 13.4511 19.314 13.2201V14.0311L19.354 21.8561C19.276 21.8171 18.93 21.7031 18.775 21.7031H18.467C17.812 21.7031 17.041 22.5901 17.041 23.2451V23.5141C17.041 23.7851 17.233 24.2861 17.349 24.3631L17.272 23.5921C17.195 22.7821 18.043 21.9341 18.814 21.9341H18.969C19.123 21.9341 19.354 22.1271 19.431 22.2431L19.392 22.2811L19.354 22.2431L19.314 22.2051C19.314 22.2051 19.238 22.1661 19.198 22.1661C19.122 22.1281 19.044 22.0901 18.929 22.0901H18.582C18.389 22.0901 18.312 22.1661 18.274 22.3201C18.891 22.3201 19.276 22.5121 19.276 23.0911C19.276 23.2841 18.813 23.2461 18.582 23.2461C18.852 23.3991 19.16 23.5931 19.16 23.9771V24.0931C19.16 24.2471 18.968 24.4011 18.851 24.4791C18.929 24.5951 19.006 24.5951 19.006 24.7871V24.8261C19.006 25.1351 18.851 25.1351 18.929 25.4431H18.736L18.775 25.6731C19.123 25.7511 19.084 25.8281 19.624 25.8671C19.932 25.9051 20.279 25.9821 20.395 26.1751L20.279 26.2521C20.048 26.2131 19.855 26.1361 19.624 26.1361H19.354C19.007 26.1361 18.544 26.2521 18.467 26.4831C18.814 26.3291 19.585 26.5991 19.97 26.3291C20.086 26.4831 20.356 26.5601 20.356 26.8691C20.356 26.9461 20.317 27.0231 20.279 27.0621L20.318 27.1011L20.473 27.0231L20.395 27.1781H20.24C20.047 27.1781 19.7 27.4861 19.584 27.4861H19.198C18.851 27.4861 18.813 27.1011 18.505 27.1011C17.657 27.1011 17.117 28.1031 17.117 28.9141C17.117 29.2981 18.351 29.1831 18.621 29.3371C18.544 29.4521 18.351 29.5681 18.159 29.5681H17.658L17.697 29.4901L17.658 29.4521L17.619 29.4901H17.503L17.387 29.4141C17.233 29.2981 17.271 29.3371 17.117 29.2611C17.002 29.2221 16.694 28.9901 16.578 28.9901H16.385C16.308 28.9901 16.077 29.2211 16.077 29.2981V29.3371C16.077 29.5291 16.307 29.6841 16.462 29.7231L16.308 30.6481C16.038 30.5331 15.691 30.3391 15.306 30.3391H15.114C14.651 30.3391 14.266 30.5321 13.957 30.6861C14.072 30.2231 14.419 29.8761 14.998 29.8761H15.615C15.846 29.8761 16.078 30.1081 16.27 30.1081L15.884 29.6451L15.846 29.6831V29.6061L16.039 29.5291L15.23 29.2981C15.075 29.0671 14.806 29.0291 14.767 28.6041H14.574V28.6821H14.458L13.996 27.6791L13.649 27.8721L13.919 27.3321L13.572 27.2931C13.688 27.1401 13.764 27.2551 13.842 27.0231C13.919 26.8691 13.88 26.7531 13.958 26.5601C13.572 26.6381 13.109 27.0621 13.109 27.4861C12.955 27.3701 12.762 26.9851 12.762 26.7151C12.762 26.5221 12.916 26.4061 12.993 26.2911H12.839C12.145 26.7531 11.412 27.4471 11.412 28.6031L11.45 28.6421V29.8001C11.45 30.3011 11.528 30.6491 11.566 31.0341C11.605 31.4971 11.798 31.7281 11.798 32.1521C11.798 32.4991 11.644 32.6521 11.644 32.8461L11.875 32.4981C11.875 32.2281 11.99 32.0741 11.99 31.7271V31.3411C11.99 31.1091 11.913 30.9561 11.875 30.7621C12.222 30.5321 12.261 30.4541 12.839 30.4541C12.839 30.3381 12.8 30.1831 12.646 30.1831H12.53C12.222 30.1831 12.106 30.3371 11.99 30.3371C11.952 30.3371 11.913 30.2981 11.913 30.2211C11.913 29.7971 12.106 29.4891 12.144 29.1041L12.298 29.0651C12.298 28.8351 12.067 28.7181 11.874 28.6801C11.874 28.4871 12.028 28.0631 12.221 28.0631C12.992 28.0631 12.761 29.7971 13.686 29.8751C13.609 30.2221 13.339 29.9521 13.339 30.9171C13.416 30.8011 13.493 30.6081 13.686 30.6081C13.725 30.6081 13.801 30.6841 13.801 30.7221C13.801 31.1471 13.261 31.1851 13.261 31.8421C13.415 31.8421 13.801 31.5321 13.916 31.4551C14.07 31.3401 14.417 31.2241 14.611 31.1071L15.15 31.0691C14.957 31.3791 14.456 31.6471 14.418 32.1101C14.765 31.8801 15.15 31.6471 15.729 31.6471C16.038 31.6471 15.459 32.0331 15.42 32.0331C15.304 32.1101 14.919 32.2651 14.881 32.3421C15.343 32.3421 15.69 32.2661 16.037 32.1111C16.23 31.9951 16.268 31.9581 16.461 31.8421C16.577 31.8031 16.846 31.6101 16.924 31.5711C16.77 32.1891 15.999 32.4971 15.999 33.1141C15.999 33.3061 16.038 33.3841 16.077 33.5381C16.115 33.5381 16.269 33.4231 16.269 33.4231C16.423 33.4231 16.5 33.7311 16.5 33.8861V33.9631C16.5 34.3871 15.305 35.1961 15.305 36.0831V36.1991C15.614 36.1991 16.231 35.5431 16.385 35.3491C16.617 35.0401 16.964 34.5001 17.272 34.3091L17.002 34.6561L17.041 34.6941C17.966 34.4651 19.276 33.4611 19.276 32.3051V31.8421C19.276 31.4551 19.084 31.1471 19.084 30.9551C19.084 30.7611 19.777 30.5301 20.086 30.5301H20.24C20.317 30.5301 20.51 30.8391 20.51 30.8771V30.9931C20.51 31.1071 20.24 31.3011 20.124 31.3401C19.893 31.4551 19.815 31.4941 19.7 31.6871C20.009 31.6871 19.97 31.5331 20.356 31.5331C20.472 31.5331 20.51 31.5711 20.587 31.6101C20.548 31.7641 20.472 31.8421 20.472 31.9951C20.472 32.2661 20.741 32.3061 20.587 32.7661C20.51 32.8811 20.317 33.1521 20.24 33.3831C20.124 33.6541 19.662 34.3091 19.508 34.5771C19.199 35.0021 18.969 35.2701 18.659 35.6581C18.505 35.8491 18.351 35.9661 18.197 36.1601C18.121 36.2351 17.735 36.5841 17.697 36.6201L17.735 36.9311V36.9691C17.735 37.0081 17.619 37.2781 17.581 37.3161C17.812 37.2781 18.467 36.8531 18.622 36.6991C18.931 36.4291 19.162 36.1611 19.432 35.8501C19.432 36.3521 19.393 37.7791 19.471 38.2031C19.509 38.3561 19.548 39.1291 19.548 39.3211C19.548 39.7061 19.664 40.0521 19.664 40.4381C19.664 40.8251 19.972 42.1341 20.126 42.4051C20.242 42.7131 20.319 42.9821 20.474 43.2541C20.589 43.4841 20.782 43.8691 20.898 44.0641C21.09 44.5651 22.517 46.6081 22.864 46.9161C23.249 47.3021 23.673 47.7651 24.058 48.1491C24.251 48.3431 24.521 48.4961 24.714 48.6901C24.945 48.8811 25.215 49.0371 25.408 49.2301C25.484 49.3051 25.986 49.6911 26.101 49.7291C26.295 49.8451 26.564 50.1171 26.757 50.2701C27.258 50.5781 27.721 50.9651 28.222 51.2341C28.376 51.3111 28.801 51.5811 28.954 51.6971C29.146 51.8881 29.455 52.0441 29.686 52.1991C30.187 52.5071 30.727 52.7751 31.189 53.1221C32.153 53.7401 33.271 54.3191 34.273 54.8961C35.314 55.5131 36.355 56.0151 37.435 56.5921C37.589 56.4391 37.975 56.2831 38.206 56.1671C38.36 56.0901 38.476 56.0541 38.591 55.9761C38.706 55.9381 38.862 55.8221 38.978 55.7441C39.517 55.4751 40.018 55.2061 40.557 54.8961C41.02 54.5871 41.598 54.2801 42.099 54.0081C42.639 53.7001 43.101 53.4321 43.641 53.1211C44.142 52.8131 44.643 52.5061 45.106 52.1981C45.26 52.0821 45.723 51.8491 45.838 51.7351C45.992 51.6191 46.417 51.3101 46.57 51.2331C47.11 50.9251 47.534 50.5771 48.035 50.2691C48.382 50.0391 49.154 49.4981 49.423 49.2291C49.539 49.0741 49.885 48.8411 50.078 48.6891C50.309 48.4951 50.502 48.3801 50.733 48.1481C50.926 47.9551 51.119 47.7241 51.349 47.5721C51.465 47.4941 51.773 47.1091 51.967 46.9541C52.237 46.7241 53.778 44.4481 53.933 44.0631C54.011 43.8311 54.241 43.5221 54.356 43.2921C54.472 43.0211 54.587 42.7131 54.703 42.4421C54.935 41.9041 55.012 41.1331 55.127 40.4381C55.361 39.1311 55.399 37.3961 55.399 35.8531ZM59.91 29.4531V29.4151L60.257 29.4531C60.296 29.4151 60.642 29.0301 60.72 28.9911C60.797 28.9151 60.951 28.5281 60.99 28.3741C61.105 28.4131 61.143 28.4521 61.143 28.6041V28.7981L61.374 28.6821L61.412 28.9911C61.451 29.2621 61.142 29.6841 60.989 29.8001C60.642 29.6071 60.449 29.4531 59.91 29.4531ZM56.787 33.3091C56.942 33.0001 56.98 32.3081 57.328 32.3081L57.25 32.8471V33.1551C57.25 33.4641 57.328 33.6571 57.405 33.9261L56.787 33.3091ZM57.635 29.8381L58.252 29.4151C58.252 29.9931 57.712 30.4561 57.481 30.9191C57.365 31.2271 56.787 32.2691 56.748 32.4991C56.671 32.4211 56.632 32.3081 56.632 32.1521C56.632 31.3421 57.674 30.6101 57.674 30.1471V29.9931C57.674 29.8771 57.674 29.8771 57.635 29.8381ZM55.438 27.9501C55.516 27.9891 55.862 28.1801 55.939 28.1801C56.131 28.1801 55.823 27.8331 55.785 27.7561C55.862 27.6791 55.978 27.4861 56.094 27.4861H56.518C56.749 27.4861 57.135 28.0641 57.135 28.2961V28.3351C57.135 28.6041 56.904 28.8751 56.633 28.8751H56.556C56.247 28.8751 56.209 28.4511 55.901 28.4121C55.978 28.5271 55.94 28.7981 55.708 28.6821V28.9521C55.863 29.0301 56.056 29.1451 56.056 29.4151C56.056 29.5301 56.017 29.4531 56.017 29.6071C56.171 29.7991 56.518 29.9541 56.865 29.9541H57.019C57.135 29.9541 57.135 29.9541 57.212 29.9161C57.212 30.2631 56.518 31.3431 56.325 31.3821C56.325 31.6901 56.094 31.6901 56.094 32.0751V32.2291C56.094 32.6911 56.556 32.8831 56.556 33.1541C56.286 33.0001 55.978 32.6151 55.978 32.1911C55.978 31.7661 56.209 31.6121 56.209 31.3811V31.2261C56.209 30.7241 55.785 30.4161 55.438 30.2231V27.9501ZM13.84 29.8001C13.647 29.6851 13.416 29.3381 13.416 29.0301V28.9521C13.416 28.8371 13.455 28.7991 13.455 28.6821L13.686 28.7981V28.6041C13.686 28.4521 13.725 28.4131 13.801 28.3741C13.878 28.4131 14.071 29.0671 14.572 29.4151H14.881V29.4531C14.457 29.4531 14.11 29.6461 13.84 29.8001ZM18.004 33.3091L17.386 33.9651C17.464 33.6941 17.617 33.3471 17.579 33.0001L17.501 32.3081C17.848 32.3451 17.887 33.0391 18.041 33.3471L18.004 33.3091ZM18.158 32.3081C18.158 32.4211 18.158 32.4211 18.12 32.4991C17.927 32.3841 17.502 31.2661 17.348 30.9581C17.117 30.5331 16.577 29.9541 16.577 29.4151L17.194 29.8001C17.156 29.8771 17.156 29.8771 17.156 29.9931V30.1471C17.156 30.6481 18.158 31.3421 18.158 31.9601V32.3081ZM19.392 30.2241C19.045 30.4171 18.582 30.7641 18.582 31.2271C18.582 31.5361 18.852 31.8451 18.852 32.1141C18.852 32.5771 18.582 32.9631 18.274 33.1171C18.312 32.8851 18.736 32.6531 18.736 32.1531C18.736 31.3821 17.618 30.6111 17.618 29.9551H17.965C18.274 29.9551 18.697 29.8391 18.774 29.6081C18.813 29.4921 18.697 29.3381 18.89 29.1461C19.044 28.9531 19.121 29.0311 19.121 28.6831L18.967 28.7211L18.889 28.6441L18.928 28.4141C18.657 28.4531 18.504 28.8771 18.311 28.8771H18.234C17.926 28.8771 17.695 28.6451 17.695 28.3371V28.2201C17.695 28.0281 18.081 27.4881 18.35 27.4881H18.697C18.774 27.4881 19.006 27.7181 19.006 27.7961C19.006 27.8741 18.658 28.1821 18.89 28.1821C18.968 28.1821 19.313 27.9911 19.391 27.9521L19.392 30.2241ZM36.933 54.9751C36.663 54.8981 35.814 54.3601 35.429 54.2041C35.005 53.9741 34.427 53.5861 34.003 53.3551C33.502 53.0861 33.039 52.8541 32.577 52.5071C32.422 52.4301 31.96 52.1601 31.805 52.1211C31.767 52.0831 31.151 51.6971 31.112 51.6581C30.687 51.3871 30.148 51.0411 29.724 50.7711C29.377 50.6161 28.567 50.0781 28.337 49.8451C28.259 49.8071 27.72 49.4211 27.642 49.4211C27.526 49.3461 27.102 48.9971 26.987 48.9201C26.562 48.5731 26.099 48.2271 25.676 47.9181C25.521 47.8021 24.557 46.9931 24.481 46.8381C24.365 46.7241 23.94 46.3751 23.864 46.2981C23.787 46.1061 23.478 45.8371 23.363 45.6441C23.016 45.2191 22.746 44.7561 22.438 44.2931C22.09 43.8691 21.859 43.2921 21.59 42.8301C20.588 41.1721 20.626 37.3551 20.626 34.6171V33.3841C20.626 33.1911 20.896 32.2671 20.973 31.9951H36.934L36.933 54.9751ZM36.933 31.0341H20.896C20.896 30.6861 20.857 30.2631 20.587 30.1851V26.8701C20.896 26.7931 20.857 26.4841 21.011 26.3691V30.5711H21.396L21.435 27.9501H22.938L22.978 30.5711H23.402H36.587V20.6251H27.18V22.0141H25.483C25.483 22.1291 25.483 22.2061 25.599 22.2061H27.18V24.1731H27.102V22.2441H25.599V23.1311L24.482 22.3991L24.25 22.3601C24.25 22.3601 22.708 23.3241 22.592 23.4391C22.361 23.5931 20.973 24.3641 20.973 24.5181V25.0971H27.18V25.1741H20.973V25.4441H27.18V25.5211H20.973V25.7521H27.18V25.8681H21.012V26.2921L20.588 26.0211L20.51 14.7661C22.052 15.1131 24.288 15.4201 26.138 15.4201H26.293C27.757 15.4201 29.185 14.9961 30.378 14.6881C31.034 14.4961 31.574 14.2641 32.191 14.0721C32.614 13.9181 33.579 13.5711 33.886 13.3781H34.041L36.932 12.0291L36.933 31.0341ZM26.293 28.4521V29.6071H25.521V28.4521H26.293ZM25.521 28.3741V27.1801H26.293V28.3741H25.521ZM27.179 28.4521V29.6461H26.37V28.4521H27.179ZM26.37 28.3741V27.1801H27.179V28.3741H26.37ZM30.957 25.7911V28.9151H28.837V25.7911H30.957ZM28.837 25.5981V22.4771H30.957V25.5981H28.837ZM33.232 25.7911V28.9151H31.112V25.7911H33.232ZM31.112 25.5981V22.4771H33.232V25.5981H31.112ZM37.896 12.0281C38.629 12.4141 39.478 12.7991 40.287 13.1071C40.672 13.2991 41.097 13.4931 41.482 13.6471C41.867 13.8001 42.33 13.9171 42.716 14.1081C43.757 14.5711 46.841 15.4201 48.267 15.4201H48.576C49.579 15.4201 50.697 15.3451 51.584 15.2291C52.007 15.1511 52.586 15.1131 53.01 15.0351C53.279 14.9591 54.089 14.8051 54.321 14.7661L54.244 25.9461L53.82 26.3311C53.859 26.4851 54.014 26.8321 54.206 26.8711V30.1861C54.014 30.2241 53.936 30.6491 53.936 30.9191V31.0341H37.896V12.0281ZM54.204 34.9271C54.204 35.7001 54.165 36.3931 54.165 37.1251C54.165 37.7431 54.165 38.7441 54.088 39.3231C53.973 39.9771 53.973 40.6731 53.779 41.2881C53.587 41.9441 53.471 42.3691 53.163 42.9451C52.971 43.3701 52.585 44.0261 52.315 44.3731C52.238 44.5281 51.929 44.9131 51.852 45.0271C51.775 45.2201 51.775 45.2201 51.622 45.3761C51.544 45.5291 51.506 45.6061 51.39 45.7231C50.735 46.5331 49.886 47.3031 49.077 47.9571C48.652 48.3061 48.266 48.6131 47.804 48.9601C47.65 49.0381 47.226 49.3841 47.149 49.4231C47.033 49.4621 46.57 49.8091 46.454 49.8861C46.378 49.9631 45.915 50.2721 45.799 50.3491C45.568 50.4651 45.298 50.6571 45.105 50.8121C44.642 51.0811 44.063 51.3521 43.678 51.6601C43.601 51.7381 43.061 52.0851 43.023 52.1231C42.792 52.2011 42.792 52.2011 42.637 52.3151C42.483 52.4311 42.406 52.4311 42.252 52.5081C42.021 52.6991 41.133 53.2011 40.825 53.3561C40.44 53.5111 39.745 54.0491 39.399 54.2051C38.976 54.3601 38.242 54.8591 37.895 54.9761V31.9971H53.856L53.934 32.4991C53.973 32.5761 54.204 33.1921 54.204 33.3091V34.9271Z" fill="black"/>
<path d="M51.66 33.7711H50.195H47.303H41.5589H38.3979V34.6961H41.521V52.4681C41.637 52.4301 41.791 52.4301 41.791 52.2771V34.6961H51.853V44.0651C52.085 43.9101 53.0099 42.0221 53.0099 41.5591V33.8871C53.0089 33.6931 51.891 33.7711 51.66 33.7711Z" fill="black"/>
<path d="M50.1559 35.853H46.6479V39.786H50.1559V35.853Z" fill="black"/>
<path d="M46.339 35.853H42.5229V36.393H46.339V35.853Z" fill="black"/>
<path d="M42.5229 50.002H45.491C45.568 50.002 46.1469 49.578 46.2239 49.5H42.5229V50.002Z" fill="black"/>
<path d="M42.5229 48.8831H47.0719C47.1879 48.8831 47.69 48.4591 47.804 48.3831H42.5229V48.8831Z" fill="black"/>
<path d="M50.157 41.5601H42.5229V42.0611H50.157V41.5601Z" fill="black"/>
<path d="M42.5229 47.7661H48.5369C48.6529 47.7661 49.1549 47.3031 49.2309 47.2251H42.5229V47.7661Z" fill="black"/>
<path d="M42.5229 51.1959H43.6409C43.7189 51.1959 44.489 50.6949 44.527 50.6169H42.5229V51.1959Z" fill="black"/>
<path d="M50.157 43.7959H42.5229V44.3339H50.157V43.7959Z" fill="black"/>
<path d="M50.157 42.677H42.5229V43.178H50.157V42.677Z" fill="black"/>
<path d="M50.157 44.9519H42.5229V45.4899H50.157V44.9519Z" fill="black"/>
<path d="M42.5229 46.6089H49.886C50.079 46.6089 49.926 46.4929 50.157 46.4159V46.1069H42.5229V46.6089Z" fill="black"/>
<path d="M46.339 36.9719H42.5229V37.5099H46.339V36.9719Z" fill="black"/>
<path d="M67.1959 54.088C67.1189 54.088 67.1959 54.088 67.1189 54.127C67.1959 54.435 67.5809 54.435 67.5809 54.858V54.897C67.5809 55.013 67.3499 55.129 67.2339 55.129H66.7329C66.4629 55.129 66.2709 55.051 66.1169 54.935L66.5409 54.819L66.5789 54.397C66.6559 53.857 65.6149 52.97 65.3069 52.624L65.3449 52.932C65.3829 53.01 65.5369 53.318 65.5369 53.434V53.586C65.5369 53.702 65.4219 53.935 65.3069 53.935H65.1139C64.4579 53.935 64.2279 53.395 63.9189 53.163C63.9189 53.897 64.0729 53.975 64.3809 54.398C64.5349 54.589 65.1519 54.936 65.5369 54.936C65.7679 55.399 66.6169 55.978 67.2719 55.978H67.5029C67.8889 55.978 68.3899 55.746 68.3899 55.361C68.3909 54.819 67.5809 54.088 67.1959 54.088Z" fill="black"/>
<path d="M70.6651 54.744C70.7421 54.705 70.7821 54.628 70.9361 54.628C71.0131 54.628 71.0891 54.705 71.0891 54.744C71.0891 55.282 70.4731 55.282 70.4351 55.707C70.8971 55.593 72.0531 55.052 72.0531 54.512V54.204C71.9001 54.204 71.9771 54.165 71.8221 54.165C71.2821 54.165 70.7821 54.32 70.6651 54.744Z" fill="black"/>
<path d="M70.435 55.2071C70.435 54.7441 69.432 54.5891 68.893 54.5891H68.623C68.545 54.5891 68.507 54.6281 68.507 54.6671C68.777 54.7051 69.317 54.9361 69.317 55.2071V55.3601C69.317 55.6681 68.584 55.8611 68.391 56.0161C69.047 56.0161 70.435 55.7841 70.435 55.2441V55.2071Z" fill="black"/>
<path d="M65.191 51.7749L64.689 51.8889C64.728 51.4649 65.036 51.4649 65.036 51.1579V50.8879C64.227 50.9659 64.111 51.6199 63.379 51.6199C63.263 51.6199 63.225 51.5809 63.109 51.5809C63.07 51.6579 63.032 51.6969 63.032 51.8129V52.0429C63.032 52.1589 63.379 52.6609 63.495 52.7359C64.266 52.6629 65.191 52.5849 65.191 51.7749Z" fill="black"/>
<path d="M64.381 50.928L65.036 50.272C65.036 49.963 65.152 50.002 65.152 49.731V49.656C65.152 49.424 65.075 49.307 65.036 49.116C64.651 49.232 63.88 50.657 62.915 50.696V50.773C63.108 50.812 63.378 51.043 63.648 51.043C63.996 51.042 64.073 50.928 64.381 50.928Z" fill="black"/>
<path d="M74.4441 50.2319H74.4041C74.0961 50.2319 73.826 50.4249 73.826 50.7339V51.1189C74.096 51.0799 74.0191 50.9669 74.0961 50.8109C74.2121 50.6559 74.3661 50.7719 74.6361 50.7719L74.5981 51.2349C74.8681 51.1579 74.7141 51.1189 74.8291 50.9659V50.7339C74.7131 50.5789 74.6751 50.2319 74.4441 50.2319Z" fill="black"/>
<path d="M20.086 26.87C20.086 26.755 20.009 26.755 19.931 26.717L19.661 26.755V26.986C19.738 27.024 19.738 27.024 19.853 27.024H20.085V26.87H20.086Z" fill="black"/>
<path d="M72.285 53.395C72.093 53.511 71.668 53.742 71.629 54.01C71.9 54.01 71.9 53.935 72.13 53.935H72.246V54.36C72.246 54.629 72.13 54.589 72.13 54.898C72.323 54.784 72.747 54.36 72.747 54.088V53.78C72.747 53.625 72.631 53.51 72.593 53.355L72.285 53.395Z" fill="black"/>
<path d="M14.65 51.3131C15.035 51.3131 15.729 51.2361 15.922 51.0421C15.421 51.0421 14.457 51.0051 14.265 50.7341C14.341 50.6171 14.573 50.5791 14.766 50.4251C14.92 50.2321 15.036 50.1931 15.151 49.9621C14.881 50.0401 14.341 50.1561 14.071 50.1561H13.801C13.416 50.1561 13.223 49.8851 13.069 49.6541C13.069 49.4991 12.876 48.4961 12.838 48.3041C12.722 47.8411 12.607 47.4941 12.067 47.4561C12.144 47.5721 12.298 47.9941 12.298 48.1871V48.6111C12.298 49.1521 11.913 49.8831 11.449 49.9231V50.0001C11.489 50.0001 11.951 50.4241 12.028 50.5021C12.144 50.5771 12.607 50.8491 12.76 50.8871C13.146 51.0781 13.993 51.3111 14.533 51.3111H14.65V51.3131Z" fill="black"/>
<path d="M74.2501 51.2351H73.9421C73.8261 51.2351 73.6331 51.4261 73.5561 51.5051C73.5181 51.5431 73.326 51.9291 73.326 51.9291C73.326 52.0451 73.4021 52.0451 73.4801 52.0841C73.5561 51.9291 73.6341 51.7751 73.8651 51.7751H73.9041C74.0201 51.7751 74.1351 51.8141 74.1351 51.9281V52.1601C74.1351 52.3131 73.9821 52.5461 73.9821 52.6981V52.7371C73.9821 52.8531 73.9821 52.8531 74.0201 52.9301C74.1741 52.6981 74.5591 52.1591 74.5591 51.7741C74.5591 51.5821 74.4041 51.2351 74.2501 51.2351Z" fill="black"/>
<path d="M55.129 54.7051C55.206 54.7051 55.399 55.0141 55.437 55.0911H56.208C56.362 55.0911 56.478 55.0141 56.478 54.8591C56.362 54.8591 56.324 54.8981 56.208 54.8981H56.054C55.823 54.8981 55.592 54.7061 55.592 54.4731C55.592 54.2441 56.246 54.5511 56.246 54.2821C56.246 54.0501 55.861 54.2051 55.861 54.0501C55.861 53.8981 56.401 53.7031 56.594 53.7031V53.6261C56.478 53.5871 56.478 53.5511 56.324 53.5511H56.093C56.016 53.5511 56.016 53.5871 55.939 53.6261L55.477 53.6651C55.554 53.3561 55.901 53.3181 56.248 53.3181L56.326 53.1631L56.056 53.0111L56.673 52.7401C56.596 52.6261 56.365 52.3931 56.133 52.3931H56.056C55.478 52.3931 55.169 53.1241 54.938 53.5511C55.284 53.5511 55.091 53.7811 55.362 53.8591L54.976 54.7461C55.09 54.7051 55.052 54.7051 55.129 54.7051ZM56.055 52.5471C56.171 52.5471 56.247 52.6241 56.286 52.6991L55.631 52.7761C55.669 52.6241 55.862 52.5471 56.055 52.5471Z" fill="black"/>
<path d="M59.794 51.5049H59.215C59.446 52.5469 61.027 52.2379 61.528 53.0099L61.673 53.1169C61.7 53.0799 61.722 53.0649 61.722 53.0099V52.7389C61.722 52.1609 60.449 51.5049 59.794 51.5049Z" fill="black"/>
<path d="M54.937 26.717H54.898C54.743 26.717 54.705 26.87 54.705 27.025H55.014C55.129 27.025 55.168 26.909 55.168 26.832C55.168 26.755 55.014 26.717 54.937 26.717Z" fill="black"/>
<path d="M55.322 27.3329C55.554 27.3329 55.669 27.2559 55.669 27.0239H55.399C55.283 27.0239 55.168 27.0629 55.168 27.1789C55.168 27.2559 55.283 27.3329 55.322 27.3329Z" fill="black"/>
<path d="M55.707 26.6011C55.707 26.5241 55.669 26.4851 55.593 26.4851H55.515C55.437 26.4851 55.283 26.6401 55.283 26.7171V26.7551C55.283 26.8311 55.322 26.8701 55.399 26.8701H55.553C55.63 26.8701 55.706 26.7931 55.706 26.7171L55.707 26.6011Z" fill="black"/>
<path d="M61.5281 53.0101L60.9121 52.7771V52.8161C61.0281 53.0481 61.1831 53.1241 61.1831 53.3951V53.5501C61.1831 53.7021 61.0281 53.6251 60.9121 53.8581C60.1791 53.8581 59.4091 54.0881 58.9071 54.3601C58.7531 54.4731 58.2521 54.7841 58.1751 54.8981C58.0211 55.0521 57.7131 55.4771 57.5191 55.5151C57.4431 55.2071 57.4051 55.0911 57.0181 55.0911C57.0571 55.2071 57.0961 55.3211 57.0961 55.4771V55.5151C57.0961 55.6681 56.8651 55.7851 56.6721 55.7851H56.4801L55.5941 55.7081C55.5161 55.7081 55.2841 55.7461 55.2841 55.8241C55.2841 55.9401 55.3621 55.9781 55.4771 56.0171V56.2081C55.7071 56.2081 55.8241 56.3241 56.1321 56.3241H56.5181C57.2121 56.3241 57.5201 55.9391 57.9061 55.7071C58.0221 55.6681 59.0241 54.8581 59.0631 54.8191C59.2171 54.8191 59.6411 54.6671 59.7561 54.5891C59.9871 54.5121 60.2571 54.4731 60.4881 54.3981C60.8361 54.3211 61.7221 54.0491 61.7221 53.7421V53.3951C61.7221 53.2791 61.6831 53.2401 61.6441 53.1631C61.6521 53.1481 61.6601 53.1381 61.6681 53.1241H61.6441L61.5281 53.0101Z" fill="black"/>
<path d="M55.438 55.631C55.708 55.631 55.901 55.477 56.325 55.477C56.247 55.361 56.094 55.168 55.939 55.168H55.707C55.437 55.168 55.129 55.321 55.129 55.593C55.245 55.593 55.283 55.631 55.399 55.631H55.438Z" fill="black"/>
<path d="M61.684 53.1229L61.673 53.1169L61.668 53.1229H61.684Z" fill="black"/>
<path d="M73.595 52.277L73.48 52.314L73.364 52.238C73.171 52.468 72.478 52.624 72.438 53.239C72.631 53.239 72.823 53.048 73.016 53.048C73.171 53.048 73.171 53.201 73.171 53.356C73.171 53.819 72.94 53.897 72.862 54.205C73.132 54.011 73.788 53.473 73.788 53.049V52.894L73.749 52.47L73.595 52.277Z" fill="black"/>
<path d="M33.3089 14.1869C32.8469 14.4579 32.4609 14.8039 31.9979 15.0349V14.6099L31.3039 14.8809C31.0339 14.8809 29.8779 15.3049 29.4919 15.3809C28.9519 15.5349 28.8749 15.3049 28.8749 15.9199V17.1149L25.9449 19.0829H36.5859V14.7259C36.5859 14.6099 34.9279 13.6089 34.7359 13.4929C34.5049 13.6469 34.2729 13.6839 34.0029 13.8009C33.6939 13.9559 33.5789 14.0329 33.3089 14.1869Z" fill="black"/>
<path d="M42.369 58.7529H42.254C41.29 58.7529 40.557 60.2189 40.557 61.2579C40.557 62.0289 40.982 62.8019 41.714 62.8019C42.601 62.8019 43.411 61.3739 43.411 60.4099V60.2189C43.411 59.7939 43.257 59.5239 43.102 59.2539C43.024 59.0989 42.6 58.7529 42.369 58.7529ZM42.639 60.3709C42.639 61.0659 42.292 62.5299 41.713 62.5299H41.675C41.444 62.5299 41.29 61.7589 41.29 61.4899V61.1799C41.29 60.4869 41.675 59.0229 42.254 59.0229C42.6 59.0229 42.639 59.8719 42.639 60.2179V60.3709Z" fill="black"/>
<path d="M47.303 57.3271V57.1731C47.303 56.9031 47.92 57.0951 48.152 57.0951C48.267 57.0951 48.421 56.9791 48.421 56.8651C48.421 56.6721 48.229 56.4021 47.997 56.4021C47.573 56.4021 47.535 56.5941 47.303 56.6321C47.265 56.8641 46.994 56.9431 46.994 57.3271V57.8271C46.994 58.1741 47.38 58.5601 47.612 58.7141C47.766 58.7911 47.92 58.9461 48.074 59.0241C48.305 59.1381 48.228 59.2151 48.497 59.3711C48.497 59.6011 48.574 59.6011 48.574 59.7951V59.8341C48.574 59.9871 48.42 60.1041 48.227 60.1041C47.958 60.1041 47.88 59.9881 47.688 59.9491C47.495 59.9491 47.301 60.1421 47.301 60.2981C47.301 60.4891 47.533 60.6451 47.726 60.6451H47.842C48.496 60.6451 48.959 60.0271 48.959 59.3731C48.961 58.2121 47.303 57.7131 47.303 57.3271Z" fill="black"/>
<path d="M40.209 66.8489H39.709C39.4 66.8489 38.977 66.2339 38.977 65.9619V65.6149C38.977 65.0749 39.4 64.5369 39.939 64.5369C40.286 64.5369 40.671 64.8059 40.71 65.1129H40.787L40.71 64.4589L40.286 64.4209H39.593C39.246 64.4209 38.59 65.0749 38.59 65.4989V66.0389C38.59 66.2329 38.861 66.5409 38.977 66.6569C39.207 66.9259 39.4 66.8479 39.593 67.0039H40.171C40.595 66.7329 40.865 67.2729 40.942 66.2329C40.711 66.2699 40.633 66.8489 40.209 66.8489Z" fill="black"/>
<path d="M21.435 37.7039C21.435 37.7809 21.474 37.8949 21.589 37.8949H26.755V37.9719H21.898V41.4429C21.898 41.7899 22.244 42.3689 22.36 42.6759C22.438 42.9079 22.938 43.5629 22.978 43.7559H26.756V43.8699H23.054L23.285 44.2169H26.716V44.2939H23.362C23.439 44.4489 24.017 45.3359 24.172 45.3359H24.79V46.0679C24.79 46.1839 25.098 46.4529 25.213 46.4919V45.3359H26.331V47.0319H25.83C25.869 47.1099 25.869 47.1479 25.985 47.1479H26.332V47.4179C26.332 47.5339 26.332 47.4949 26.409 47.5339V47.1479H26.717V47.7249C26.717 47.8019 27.989 48.7669 28.067 48.7669H34.08V47.1479H34.543V48.8059H33.734V48.8809H28.259C28.337 48.9969 28.76 49.3049 28.915 49.3049H33.734V49.4209H29.03C29.108 49.5369 30.688 50.5769 30.842 50.5769H32.115V51.3489C32.115 51.4629 32.153 51.4239 32.231 51.4629V50.5759H33.58V52.2349C33.58 52.3489 33.965 52.5049 34.08 52.5819V51.5789H34.543V52.7729C34.543 52.8889 34.543 52.8509 34.621 52.8889V51.5779H35.777V53.2739H35.315C35.392 53.3129 35.431 53.3509 35.586 53.3509H35.778V53.4669C35.778 53.5809 36.048 53.6969 36.164 53.7369V53.3509H36.665V53.2739H36.164V51.5779H36.665V50.6129H34.08V50.5379H36.663V50.1889H34.08V50.0749H36.663V48.8039H36.162V47.1459H36.663V47.0299H36.162V45.3339H36.663V44.2919H34.08V44.2149H36.663V43.8679H34.08V43.7539H36.663V42.5959H36.162V40.8999H36.663V40.7869H36.162V39.1289H36.663V37.9709H34.08V37.8939H36.663V37.2399H34.08V34.0779H26.756V37.2399H21.397V37.5869H21.475C21.474 37.6269 21.435 37.7039 21.435 37.7039ZM26.716 46.9949H26.446V45.3369H26.716V46.9949ZM34.62 45.3369H35.738V46.9949H34.62V45.3369ZM34.62 47.1489H35.776V48.8069H34.62V47.1489ZM23.594 42.5989H22.438V40.9029H23.594V42.5989ZM23.594 40.7889H22.438V39.1309H23.594V40.7889ZM24.79 42.5609H23.671V40.9029H24.79V42.5609ZM24.79 40.7889H23.632V39.1309H24.79V40.7889ZM26.331 41.1739C26.331 41.3649 26.177 41.2109 26.177 41.4819C26.177 41.6349 26.331 41.5979 26.331 41.7519V42.5619H25.213V40.9039H26.331V41.1739ZM26.331 40.7889H25.175V39.1309H26.331V40.7889ZM26.408 39.1309H26.755V40.7889H26.408V39.1309ZM28.76 47.2639H27.488C27.411 47.2639 27.373 47.2249 27.373 47.1499V45.2209H28.761L28.76 47.2639ZM28.76 45.0659H27.411V43.0609H28.76V45.0659ZM30.225 47.2249H28.875V45.2209H30.225V47.2249ZM30.225 45.0659H28.875V43.0609H30.225V45.0659ZM32.114 47.2639H30.725V45.2209H32.114V47.2639ZM32.114 45.0659H30.725V43.0609H32.114V45.0659ZM33.579 47.2249H32.23V45.2209H33.579V47.2249ZM33.579 45.0659H32.23V43.0609H33.579V45.0659ZM34.504 45.3369V46.9949H34.08V45.3369H34.504ZM34.504 42.5609H34.08V41.7509H26.756L26.717 42.5609H26.524H26.447V41.6739H34.505L34.504 42.5609ZM34.62 39.1309H35.776V40.7889H34.62V39.1309ZM34.62 41.9059V41.0179V40.9019H35.738V42.5599H34.62V41.9059ZM34.08 39.1309H34.543V40.7889H34.08V39.1309ZM32.23 35.5059H33.579V37.5489H32.23V35.5059ZM32.23 37.7039H33.579V39.7079H32.23V37.7039ZM30.726 35.5059H32.115V37.5489H30.726V35.5059ZM30.726 37.6649H32.115V39.7079H30.726V37.6649ZM28.875 35.5059H30.264V37.5489H28.875V35.5059ZM28.875 37.7039H30.225V39.7079H28.875V37.7039ZM27.372 35.5059H28.76V37.5489H27.372V35.5059ZM28.76 37.7039V39.7079H27.411V37.7039H28.76ZM34.08 41.1359V40.9029H34.505V41.2499H26.447V40.9029H26.756V41.1359H34.08Z" fill="black"/>
<path d="M25.3669 19.392V19.622C25.3669 19.776 25.5589 19.815 25.7139 19.815H36.5859V19.313H25.5599C25.4439 19.313 25.5209 19.353 25.3669 19.392Z" fill="black"/>
<path d="M26.099 33.656H26.215C26.176 33.771 26.176 33.732 26.176 33.809C26.176 33.925 26.254 34.04 26.369 34.04H34.387C34.541 34.04 34.58 33.964 34.657 33.925L34.619 33.655H34.889C34.927 33.577 35.005 33.539 35.005 33.462V33.385C35.005 33.308 34.927 33.23 34.85 33.23H25.984C25.868 33.23 25.829 33.346 25.829 33.424C25.83 33.578 25.945 33.656 26.099 33.656Z" fill="black"/>
<path d="M26.061 20.162C26.061 20.355 26.177 20.471 26.37 20.471H36.586V19.97H26.254C26.177 19.97 26.061 20.085 26.061 20.162Z" fill="black"/>
<path d="M38.9381 62.339C39.2851 61.953 39.5551 61.374 39.5551 60.643C39.5551 60.103 39.2081 59.332 38.7061 59.332H38.3201C37.9351 59.332 37.2411 59.986 37.0871 60.219C36.8561 60.604 36.5081 61.145 36.5081 61.799V61.992C36.5081 62.569 36.9711 63.225 37.5501 63.225C38.1661 63.226 38.6671 62.686 38.9381 62.339ZM37.2031 62.491V62.339C37.2031 61.799 37.3571 61.145 37.5501 60.795C37.6261 60.604 37.7421 60.296 37.8581 60.18C37.8961 60.141 38.2821 59.64 38.2821 59.64H38.6681C38.8221 59.64 38.8611 59.872 38.8611 60.025V60.257C38.8611 60.643 38.7441 61.258 38.5901 61.49V61.682C38.3591 61.992 38.0511 62.915 37.5881 62.915H37.4341C37.2791 62.916 37.2031 62.646 37.2031 62.491Z" fill="black"/>
<path d="M46.031 60.141C45.954 60.411 45.8 61.067 45.491 61.067C45.491 60.141 45.414 59.024 45.414 58.098C45.414 57.713 45.491 55.168 45.298 55.168C45.182 55.168 44.488 56.056 44.141 56.131C44.141 56.402 44.295 56.324 44.603 56.324C44.795 56.748 44.681 58.367 44.719 59.06C44.719 59.486 44.757 59.947 44.757 60.449C44.757 60.681 44.719 60.912 44.757 61.144C44.795 61.335 44.911 61.604 44.911 61.72C45.065 61.759 45.104 61.836 45.182 61.836H45.221C45.722 61.836 46.223 60.717 46.223 60.218C46.224 60.141 46.108 60.141 46.031 60.141Z" fill="black"/>
<path d="M19.893 53.5501C19.662 53.2011 19.354 52.3921 18.813 52.3921C18.505 52.3921 18.274 52.5471 18.158 52.7391L18.774 53.0491C18.582 53.0491 18.504 53.0881 18.504 53.2791C18.851 53.3561 19.313 53.3181 19.313 53.6651C19.083 53.6651 18.773 53.5511 18.658 53.5511H18.427C18.311 53.5511 18.388 53.5871 18.234 53.6261V53.7031C18.388 53.7031 18.967 53.8971 18.967 54.0111C18.967 54.2441 18.581 54.0501 18.581 54.2821C18.581 54.4731 18.928 54.3601 19.121 54.3981C19.352 54.4351 19.121 54.6681 19.082 54.8201C18.889 54.8201 18.928 54.8981 18.773 54.8981H18.542C18.426 54.8981 18.426 54.8981 18.349 54.8591C18.349 54.9751 18.426 55.0911 18.542 55.0911H19.39C19.429 54.9751 19.582 54.7051 19.698 54.7051C19.814 54.7051 19.737 54.7441 19.891 54.7831L19.429 53.8571C19.739 53.7801 19.546 53.5501 19.893 53.5501ZM19.198 52.7761L18.543 52.6991C18.582 52.6241 18.658 52.5471 18.774 52.5471C19.006 52.5471 19.006 52.6991 19.198 52.6991V52.7761Z" fill="black"/>
<path d="M37.357 66.8099H36.778C36.74 66.7329 36.74 66.7329 36.74 66.6189V64.8459C36.74 64.6139 36.856 64.5749 37.087 64.5749V64.4609H35.931V64.5749H36.085C36.162 64.5749 36.355 64.6909 36.355 64.8069V66.5419C36.355 66.6959 36.239 66.8499 36.124 66.8499H35.932V66.9269H37.937L38.014 66.2349C37.819 66.3089 37.742 66.8099 37.357 66.8099Z" fill="black"/>
<path d="M19.198 55.168H18.968C18.736 55.168 18.582 55.321 18.505 55.477C18.775 55.477 19.276 55.631 19.354 55.631L19.662 55.593V55.477C19.662 55.321 19.354 55.168 19.198 55.168Z" fill="black"/>
<path d="M19.354 55.7069L18.274 55.7839H18.158C17.927 55.7839 17.734 55.7069 17.734 55.4759V55.4369L17.773 55.0899C17.349 55.0899 17.465 55.2429 17.272 55.5139C17.08 55.3979 16.81 55.0509 16.655 54.8969C16.54 54.7829 16.115 54.5109 15.923 54.3969C15.499 54.0869 14.69 53.8569 13.957 53.8569C13.879 53.8179 13.61 53.5859 13.61 53.5099V53.3939C13.61 53.0859 13.88 53.1229 13.88 52.8149C13.533 52.8149 13.379 53.0089 13.187 53.1229C13.379 52.3519 15.384 52.5469 15.616 51.5049H15.115C14.343 51.5049 13.072 52.1219 13.072 52.8549V52.8929C13.072 53.0479 13.15 53.0869 13.188 53.1629C13.15 53.2399 13.072 53.2789 13.072 53.4339V53.6249C13.072 54.1269 13.881 54.2429 14.267 54.3969C14.845 54.5879 15.231 54.5879 15.77 54.8579C16.425 55.2439 17.35 56.3239 18.237 56.3239H18.738C19.009 56.3239 19.124 56.2079 19.356 56.2079V56.0169C19.433 55.9779 19.51 55.9779 19.51 55.8619C19.51 55.7459 19.392 55.7069 19.354 55.7069Z" fill="black"/>
<path d="M29.338 55.9781V56.0561C29.338 56.5551 29.184 56.6321 29.145 56.9431L29.338 56.9791L30.031 55.8241C29.838 55.7851 29.414 55.3611 29.26 55.2081C29.068 55.0531 28.566 54.8201 28.219 54.8201H27.872C27.216 54.8201 26.87 55.3611 26.6 55.7461C26.6 56.0171 26.523 55.9401 26.523 56.1321V56.2091C26.523 57.0191 26.986 57.8661 26.909 58.4841L26.871 58.9471C26.639 59.2941 26.408 59.7181 25.868 59.7181C25.29 59.7181 24.557 59.1781 24.557 58.6381V58.4081C24.557 58.0991 24.789 57.7921 24.789 57.5211H24.518L24.556 57.5591L23.785 58.7151C24.248 58.8311 24.864 60.0651 26.021 60.0651H26.368C26.792 60.0651 27.061 59.8351 27.293 59.6411C27.447 59.5251 27.794 59.0251 27.794 58.7541V57.9831C27.794 57.5981 27.485 57.0191 27.485 56.5951V56.1701C27.485 55.7851 27.986 55.1311 28.334 55.1311C28.76 55.1301 29.338 55.5541 29.338 55.9781Z" fill="black"/>
<path d="M31.266 58.406H30.841C30.417 58.406 29.492 58.946 29.299 59.177C29.068 59.446 28.374 60.103 28.374 60.566V60.99C28.374 61.181 28.605 61.491 28.721 61.567C28.991 61.76 29.144 61.683 29.492 61.683C29.685 61.567 30.456 61.297 30.456 61.067V60.95C30.225 60.989 29.994 61.221 29.608 61.221H29.492C29.299 61.221 29.145 61.105 29.145 60.911V60.794C29.145 60.525 29.415 60.063 29.53 59.871C29.801 59.485 29.839 59.485 30.109 59.137C31.189 57.943 31.035 59.369 31.613 59.369C32.23 59.37 31.729 58.406 31.266 58.406Z" fill="black"/>
<path d="M34.504 59.3319C34.042 59.4859 33.6939 60.0239 33.3849 60.2189C33.5399 59.6009 34.9659 57.2889 34.9659 56.9039C34.9659 56.8649 34.9269 56.8269 34.8499 56.8269C34.8499 56.8269 34.2719 56.9789 34.1949 57.0179C33.9639 57.0569 33.6939 57.0949 33.4629 57.1339C33.4629 57.4809 33.8099 57.2889 33.8099 57.5579V57.6359C33.8099 57.7519 31.7279 61.9149 31.4969 62.3389C31.5739 62.4529 31.6889 62.5299 31.8439 62.5299C32.3059 62.5299 32.2679 62.0669 32.4989 61.7589C32.7299 61.4889 32.8459 61.1799 33.0779 60.9109C33.3859 60.6019 34.1189 59.7159 34.6969 59.7159C34.8509 59.7159 34.9669 59.8709 34.9669 60.0239V60.0629C34.9669 60.6809 34.2349 62.4159 33.7729 62.4159C33.6189 62.4159 33.5799 62.0669 33.3099 62.0669H33.1949C33.0399 62.0669 32.886 62.1829 32.886 62.2989V62.6459C33.04 62.6849 33.1559 62.8779 33.2719 62.8779H33.3499C34.3139 62.8779 35.7779 61.0649 35.7779 59.9849V59.9069C35.7759 59.2929 35.082 59.1769 34.504 59.3319Z" fill="black"/>
<path d="M34.736 66.8099H34.312C34.196 66.8099 34.1571 66.6959 34.1571 66.5799V64.8069C34.1571 64.6519 34.35 64.5749 34.543 64.5749V64.4609H33.425C33.464 64.6139 33.502 64.6139 33.695 64.6139C33.734 64.6909 33.8111 64.7299 33.8111 64.8069V66.6199C33.8111 66.7729 33.619 66.8499 33.425 66.8499V66.9269H35.3521L35.507 66.2349C35.236 66.2699 35.275 66.8099 34.736 66.8099Z" fill="black"/>
<path d="M40.865 38.1279H38.3979V38.6279H40.865V38.1279Z" fill="black"/>
<path d="M40.865 42.677H38.3979V43.178H40.865V42.677Z" fill="black"/>
<path d="M40.865 43.7959H38.3979V44.3339H40.865V43.7959Z" fill="black"/>
<path d="M40.865 44.9519H38.3979V45.4899H40.865V44.9519Z" fill="black"/>
<path d="M40.865 46.1069H38.3979V46.6089H40.865V46.1069Z" fill="black"/>
<path d="M40.865 47.2251H38.3979V47.7661H40.865V47.2251Z" fill="black"/>
<path d="M40.865 39.2451H38.3979V39.7851H40.865V39.2451Z" fill="black"/>
<path d="M40.865 36.9719H38.3979V37.5099H40.865V36.9719Z" fill="black"/>
<path d="M40.865 41.5601H38.3979V42.0611H40.865V41.5601Z" fill="black"/>
<path d="M40.865 40.4031H38.3979V40.9411H40.865V40.4031Z" fill="black"/>
<path d="M40.865 49.5H38.3979V50.002H40.865V49.5Z" fill="black"/>
<path d="M46.108 15.5749C45.916 15.5359 45.298 15.4199 45.183 15.3819V15.4589L44.912 15.3819L44.682 15.6129V15.2659L42.562 14.5709C42.325 14.4029 42.031 14.2999 41.754 14.2739C41.766 14.2869 41.763 14.3019 41.712 14.3019V14.2699C41.687 14.2689 41.66 14.2629 41.635 14.2629C41.519 14.2629 41.519 14.2629 41.404 14.2239L41.249 14.4569V14.1459L41.018 14.0699L41.096 13.9939L38.281 12.7219V24.5959H38.86V30.4939C38.86 30.5699 38.898 30.6089 38.976 30.6089H40.479V24.5949H42.06V30.6089H43.602C43.679 30.6089 43.718 30.5699 43.718 30.4939V24.5959H45.299V30.5709H46.918V15.8449C46.918 15.6909 46.263 15.6129 46.108 15.5749ZM39.439 23.5159L39.169 23.4399L38.898 23.6709V23.3239L38.667 23.2849C38.898 23.0919 38.937 23.3999 38.937 22.8999L39.13 23.0909L39.439 22.9759L39.247 23.2469L39.439 23.5159ZM39.439 21.2039L39.169 21.1259L38.898 21.3959V21.0489L38.628 20.9719L38.898 20.8959V20.5479L39.169 20.7799L39.439 20.7019L39.247 20.9319L39.439 21.2039ZM39.439 18.8899L39.13 18.8139L38.937 19.0449V18.7739L38.705 18.6979V18.6209L38.937 18.5429V18.2739L39.091 18.4649H39.207C39.323 18.4649 39.362 18.4259 39.439 18.3889L39.247 18.6589L39.439 18.8899ZM39.439 16.6149L39.169 16.5389L38.898 16.7689C38.898 16.4219 38.977 16.3829 38.628 16.3829L38.898 16.2669V15.9199L39.169 16.1909L39.439 16.0759L39.247 16.3839L39.439 16.6149ZM39.247 14.0329L39.401 14.2629L39.17 14.2239L38.939 14.4179V14.1469L38.669 14.0709L38.9 13.9559V13.6469L39.171 13.8779L39.441 13.7999L39.247 14.0329ZM40.556 22.3599L40.326 22.2819L40.094 22.4759V22.2049L39.824 22.0899L40.094 22.0129V21.7419C40.133 21.7809 40.287 21.9339 40.326 21.9339C40.403 21.9339 40.442 21.8959 40.556 21.8569L40.402 22.0889L40.556 22.3599ZM40.556 20.0459L40.248 19.9699L40.094 20.2009V19.8919L39.786 19.8149L40.094 19.6989V19.4289L40.287 19.6589L40.596 19.5439L40.403 19.8149L40.556 20.0459ZM40.287 17.6559L40.094 17.8869V17.5779L39.786 17.5389L40.094 17.4239V17.1149L40.326 17.3079L40.556 17.2699L40.402 17.4989L40.595 17.7699L40.287 17.6559ZM40.326 15.3819C40.287 15.3819 40.133 15.5359 40.094 15.5749V15.2659L39.786 15.1499C40.133 15.1499 40.094 15.1889 40.094 14.8419L40.326 15.0329L40.556 14.9569L40.402 15.1879L40.595 15.4579C40.441 15.4589 40.441 15.3819 40.326 15.3819ZM41.713 23.5159C41.559 23.5159 41.559 23.4399 41.443 23.4399C41.405 23.4399 41.289 23.6319 41.25 23.6709V23.3619L40.98 23.2849C41.172 23.0529 41.25 23.4769 41.25 22.8609L41.481 23.0909L41.712 23.0139C41.674 23.0909 41.596 23.2069 41.596 23.2459V23.2839C41.597 23.3239 41.675 23.4389 41.713 23.5159ZM41.751 21.2039C41.636 21.2039 41.597 21.1649 41.481 21.1649H41.365L41.25 21.3949V21.0479L40.98 20.9709C41.096 20.8949 40.941 20.8949 41.096 20.8949H41.25V20.5469C41.327 20.6239 41.365 20.7789 41.481 20.7789C41.596 20.7789 41.596 20.7009 41.751 20.7009C41.674 20.8159 41.597 20.8159 41.597 21.0089C41.597 21.1259 41.675 21.1259 41.751 21.2039ZM41.713 18.8899C41.482 18.8899 41.636 18.8139 41.482 18.8139C41.366 18.8139 41.328 19.0059 41.251 19.0849C41.251 18.4279 41.097 18.9689 41.02 18.6219L41.251 18.5439V18.2359C41.29 18.3119 41.328 18.4659 41.482 18.4659C41.636 18.4659 41.559 18.4269 41.713 18.4269C41.675 18.5049 41.597 18.5429 41.597 18.6209V18.6979C41.597 18.7739 41.675 18.8129 41.713 18.8899ZM41.751 16.6149C41.559 16.6149 41.597 16.5389 41.443 16.5389C41.405 16.5389 41.289 16.7299 41.25 16.7689V16.4219L40.98 16.3829L41.25 16.2669V15.9199C41.289 15.9979 41.327 16.1509 41.481 16.1509C41.635 16.1509 41.635 16.1139 41.751 16.0749C41.712 16.1509 41.597 16.2279 41.597 16.3049C41.597 16.4999 41.675 16.4999 41.751 16.6149ZM43.525 16.2679V15.9209L43.757 16.1919L43.988 16.1159H44.026L43.872 16.3849L44.026 16.5789L43.988 16.6159L43.718 16.5399L43.525 16.7699V16.4229L43.255 16.3839L43.525 16.2679ZM42.87 22.3599L42.562 22.2819L42.446 22.5129C42.407 22.1279 42.446 22.2049 42.136 22.1279L42.407 22.0129V21.7419C42.599 21.8569 42.484 21.9339 42.638 21.9339C42.715 21.9339 42.754 21.8959 42.869 21.8569L42.715 22.1279L42.87 22.3599ZM42.87 20.0459C42.755 20.0079 42.755 19.9699 42.599 19.9699C42.522 19.9699 42.561 20.0849 42.407 20.2009V19.9309L42.136 19.7759L42.407 19.6989V19.3909L42.562 19.6599L42.87 19.5449L42.716 19.8159L42.87 20.0459ZM42.639 17.6949C42.447 17.6949 42.6 17.8109 42.408 17.8869V17.5779L42.137 17.5389L42.408 17.3869V17.1159C42.485 17.1929 42.563 17.3089 42.6 17.3089C42.755 17.3089 42.678 17.2709 42.831 17.2709L42.716 17.4999L42.87 17.7709C42.793 17.7339 42.755 17.6949 42.639 17.6949ZM42.87 15.4589C42.755 15.4199 42.755 15.3819 42.599 15.3819C42.561 15.3819 42.484 15.4969 42.407 15.5749V15.3049L42.136 15.1889L42.407 15.1119V14.8029L42.562 15.0329L42.87 14.9179L42.755 15.1489H42.716L42.87 15.4589ZM44.026 23.5549L43.746 23.4509L43.525 23.6719V23.3629L43.255 23.2859C43.371 23.2089 43.525 23.2479 43.525 23.0929V22.8629L43.718 23.0929L44.026 22.9779L43.872 23.2869L44.026 23.5549ZM44.026 21.1649L43.988 21.2039L43.718 21.1649L43.525 21.3949V21.0479L43.255 20.9319L43.525 20.8949V20.5469L43.757 20.7789L43.988 20.7399H44.026L43.91 20.9309L43.871 20.8939L44.026 21.1649ZM43.718 18.8129L43.525 19.0839V18.7739L43.255 18.6979V18.6209L43.563 18.5429V18.2739C43.718 18.3499 43.679 18.4649 43.795 18.4649C43.911 18.4649 43.95 18.4259 44.026 18.3889L43.872 18.6589L44.064 18.9289L43.718 18.8129ZM45.183 22.3599L44.874 22.2819L44.682 22.5129V22.2049L44.412 22.0899L44.682 22.0509V21.7039L44.874 21.9339L45.183 21.8569L45.028 22.1279L45.183 22.3599ZM45.183 20.0459L44.874 19.9699L44.682 20.2399V19.8929L44.412 19.8159L44.682 19.6999V19.3919C44.759 19.4299 44.874 19.6219 44.912 19.6219C45.028 19.6219 45.105 19.5839 45.221 19.5449C45.143 19.6219 45.028 19.6989 45.028 19.8159C45.028 19.8539 45.144 19.9699 45.183 20.0459ZM44.913 17.6949C44.797 17.6949 44.913 17.8499 44.683 17.8869V17.5779L44.413 17.5389L44.683 17.4239V17.0759L44.913 17.3079L45.184 17.2699L44.991 17.5779L45.068 17.5389L45.223 17.7709C45.106 17.7339 45.028 17.6949 44.913 17.6949ZM45.568 18.6209L45.838 18.5429V18.2349L46.069 18.4649L46.338 18.4259L46.147 18.6579L46.338 18.8879L46.03 18.8119L45.837 19.0829V18.7729L45.567 18.6969L45.568 18.6209ZM45.838 20.7799V20.5859C45.954 20.6249 45.992 20.7799 46.069 20.7799C46.184 20.7799 46.108 20.7799 46.184 20.7409H46.262L46.3 20.7019L46.338 20.7409L46.147 20.9319L46.338 21.1639L46.3 21.2029L46.03 21.1249L45.837 21.3559V21.0469L45.567 20.9309C45.685 20.8959 45.838 20.9329 45.838 20.7799ZM46.339 23.5159L46.031 23.4399L45.838 23.6319V23.3619L45.568 23.2849L45.838 23.1689V22.8609L46.031 23.0909L46.378 22.9759L46.147 23.2849L46.339 23.5159ZM46.108 16.5389C45.992 16.5389 45.916 16.6529 45.838 16.7299V16.4609L45.568 16.3829L45.838 16.2669V15.9599C45.916 16.0379 45.992 16.1519 46.108 16.1519C46.185 16.1519 46.224 16.1149 46.338 16.0759L46.147 16.3839L46.378 16.6149C46.108 16.6149 46.263 16.5389 46.108 16.5389Z" fill="black"/>
<path d="M40.865 48.3831H38.3979V48.8831H40.865V48.3831Z" fill="black"/>
<path d="M43.718 23.439L43.746 23.45L43.757 23.439H43.718Z" fill="black"/>
<path d="M51.7371 30.6101H53.2401C53.3181 30.6101 53.3561 30.5711 53.3561 30.4951V15.3821L51.7371 15.6531V30.6101Z" fill="black"/>
<path d="M48.498 15.9599V30.4949C48.498 30.5709 48.537 30.6099 48.614 30.6099H50.156V15.8069C49.808 15.8069 49.654 15.8449 49.307 15.8449C49.116 15.8449 48.498 15.7679 48.498 15.9599Z" fill="black"/>
<path d="M41.675 14.2639H41.7131V14.2709C41.7271 14.2729 41.7401 14.2739 41.7551 14.2749C41.7391 14.2579 41.697 14.2419 41.675 14.2639Z" fill="black"/>
<path d="M38.359 53.9349H38.977C39.015 53.9349 40.402 53.1229 40.441 53.0869H38.358L38.359 53.9349Z" fill="black"/>
<path d="M40.865 50.6169H38.3979V51.1959H40.865V50.6169Z" fill="black"/>
<path d="M115.01 33.9791V38.7971H100.985V33.9791H104.635L103.281 29.0791H95.879L94.361 33.9791H98.175V38.7971H85.545V33.9791H89.072L94.628 15.0951H90.835V10.2771H109.453V15.0951H105.619L111.605 33.9791H115.01ZM102.111 24.8961L99.734 16.3051L97.171 24.8961H102.111Z" fill="black"/>
<path d="M115.952 38.7971V33.9791H120.278V15.0951H115.952V10.2771H129.464C132.307 10.2771 134.597 10.4511 136.332 10.8001C138.068 11.1491 139.728 11.9211 141.314 13.1171C142.9 14.3131 144.171 15.9161 145.127 17.9251C146.084 19.9341 146.563 22.1621 146.563 24.6091C146.563 26.5911 146.228 28.4811 145.558 30.2781C144.888 32.0751 144.058 33.5251 143.067 34.6251C142.076 35.7251 140.89 36.6001 139.51 37.2501C138.129 37.8991 136.862 38.3191 135.706 38.5111C134.55 38.7031 132.764 38.7981 130.345 38.7981L115.952 38.7971ZM127.68 33.9791H129.464C131.623 33.9791 133.335 33.6991 134.6 33.1381C135.865 32.5781 136.879 31.5901 137.645 30.1761C138.411 28.7611 138.793 26.9131 138.793 24.6301C138.793 22.4571 138.406 20.6111 137.635 19.0941C136.863 17.5761 135.817 16.5311 134.497 15.9571C133.177 15.3831 131.5 15.0961 129.464 15.0961H127.68V33.9791Z" fill="black"/>
<path d="M149.927 38.7971V33.9791H153.494V15.0951H149.927V10.2771H163.705V15.0951H160.711V21.3491H168.482V15.0951H165.59V10.2771H179.266V15.0951H175.699V33.9791H179.266V38.7971H165.59V33.9791H168.482V26.1871H160.711V33.9791H163.705V38.7971H149.927Z" fill="black"/>
<path d="M181.461 38.7971V33.9791H185.787V15.0951H181.461V10.2771H197.576V15.0951H193.209V33.9791H197.576V38.7971H181.461Z" fill="black"/>
<path d="M87.016 56.3821C87.875 56.9331 89.108 57.3511 90.429 57.3511C92.388 57.3511 93.533 56.3161 93.533 54.8191C93.533 53.4541 92.74 52.6391 90.737 51.8901C88.315 51.0101 86.818 49.7331 86.818 47.6621C86.818 45.3501 88.734 43.6331 91.618 43.6331C93.115 43.6331 94.238 43.9861 94.877 44.3601L94.348 45.9231C93.886 45.6371 92.895 45.2191 91.552 45.2191C89.527 45.2191 88.756 46.4301 88.756 47.4431C88.756 48.8301 89.659 49.5121 91.707 50.3051C94.217 51.2741 95.472 52.4851 95.472 54.6641C95.472 56.9541 93.799 58.9581 90.298 58.9581C88.867 58.9581 87.303 58.5181 86.511 57.9891L87.016 56.3821Z" fill="black"/>
<path d="M105.776 58.3421C105.269 58.5841 104.146 58.9581 102.715 58.9581C99.5 58.9581 97.408 56.7781 97.408 53.5201C97.408 50.2391 99.654 47.8391 103.133 47.8391C104.278 47.8391 105.291 48.1251 105.82 48.4111L105.38 49.8871C104.917 49.6451 104.191 49.3801 103.134 49.3801C100.69 49.3801 99.369 51.2081 99.369 53.4091C99.369 55.8751 100.954 57.3941 103.068 57.3941C104.17 57.3941 104.896 57.1301 105.446 56.8881L105.776 58.3421Z" fill="black"/>
<path d="M108.045 43.083H109.983V49.754H110.027C110.336 49.204 110.82 48.697 111.415 48.367C111.987 48.037 112.67 47.839 113.396 47.839C114.827 47.839 117.117 48.72 117.117 52.375V58.716H115.179V52.595C115.179 50.877 114.54 49.447 112.713 49.447C111.458 49.447 110.489 50.328 110.114 51.362C110.005 51.648 109.982 51.935 109.982 52.287V58.717H108.044L108.045 43.083Z" fill="black"/>
<path d="M129.909 53.2991C129.909 57.2401 127.157 58.9581 124.603 58.9581C121.741 58.9581 119.495 56.8451 119.495 53.4761C119.495 49.9311 121.85 47.8391 124.779 47.8391C127.84 47.8391 129.909 50.0631 129.909 53.2991ZM121.477 53.4091C121.477 55.7431 122.798 57.5051 124.692 57.5051C126.542 57.5051 127.928 55.7661 127.928 53.3651C127.928 51.5591 127.026 49.2921 124.736 49.2921C122.468 49.2921 121.477 51.4051 121.477 53.4091Z" fill="black"/>
<path d="M141.998 53.2991C141.998 57.2401 139.246 58.9581 136.692 58.9581C133.83 58.9581 131.584 56.8451 131.584 53.4761C131.584 49.9311 133.939 47.8391 136.868 47.8391C139.929 47.8391 141.998 50.0631 141.998 53.2991ZM133.565 53.4091C133.565 55.7431 134.886 57.5051 136.78 57.5051C138.63 57.5051 140.016 55.7661 140.016 53.3651C140.016 51.5591 139.114 49.2921 136.824 49.2921C134.557 49.2921 133.565 51.4051 133.565 53.4091Z" fill="black"/>
<path d="M144.443 43.083H146.381V58.716H144.443V43.083Z" fill="black"/>
<path d="M149.375 56.7561C149.97 57.1091 150.982 57.5051 151.951 57.5051C153.339 57.5051 153.999 56.8221 153.999 55.9201C153.999 54.9951 153.449 54.5111 152.04 53.9821C150.102 53.2781 149.199 52.2431 149.199 50.9651C149.199 49.2481 150.608 47.8391 152.876 47.8391C153.955 47.8391 154.902 48.1251 155.475 48.4991L155.012 49.9081C154.594 49.6441 153.824 49.2691 152.832 49.2691C151.687 49.2691 151.07 49.9301 151.07 50.7221C151.07 51.6031 151.687 51.9991 153.074 52.5501C154.902 53.2331 155.871 54.1571 155.871 55.7421C155.871 57.6361 154.395 58.9571 151.907 58.9571C150.74 58.9571 149.661 58.6481 148.913 58.2081L149.375 56.7561Z" fill="black"/>
<path d="M157.654 57.5711C157.654 56.7781 158.205 56.1831 158.975 56.1831C159.745 56.1831 160.275 56.7551 160.275 57.5711C160.275 58.3631 159.746 58.9581 158.931 58.9581C158.184 58.9581 157.654 58.3631 157.654 57.5711Z" fill="black"/>
<path d="M167.387 43.875H169.325V57.108H175.667V58.715H167.388V43.875H167.387Z" fill="black"/>
<path d="M177.78 43.875H179.718V57.108H186.06V58.715H177.781V43.875H177.78Z" fill="black"/>
<path d="M197.687 58.2541C197.004 58.6061 195.573 58.9581 193.767 58.9581C189.583 58.9581 186.457 56.3151 186.457 51.4281C186.457 46.7601 189.605 43.6331 194.207 43.6331C196.035 43.6331 197.224 44.0291 197.73 44.2941L197.246 45.8571C196.541 45.5041 195.506 45.2401 194.273 45.2401C190.794 45.2401 188.482 47.4651 188.482 51.3611C188.482 55.0161 190.574 57.3291 194.163 57.3291C195.352 57.3291 196.541 57.0871 197.311 56.7121L197.687 58.2541Z" fill="black"/>
</svg>
