<svg width="198" height="64" viewBox="0 0 198 64" fill="none" xmlns="http://www.w3.org/2000/svg">
<path d="M63.07 42.0803C63.455 42.0803 64.573 41.5692 64.728 41.3858C64.845 41.2386 65.191 41.0191 65.345 40.8358C65.383 40.7275 65.731 40.1413 65.769 40.1033L65.731 40.0663L65.693 40.1033C65.693 40.1033 65.693 40.1404 65.653 40.1404C65.615 40.1765 65.615 40.1765 65.615 40.2506C65.537 40.2867 65.499 40.3218 65.461 40.395C65.307 40.4681 65.191 40.5052 65.037 40.5783C64.883 40.6524 64.228 40.7626 63.996 40.7626C63.264 40.7626 62.3 40.7968 61.722 40.9441L61.8 41.7506C61.8 41.8608 61.76 41.971 61.722 42.0793L63.07 42.0803Z" fill="white"/>
<path d="M65.769 38.6754H65.461V39.1153C65.461 39.4449 65.345 39.4449 65.307 39.6264L65.461 39.6634C65.769 39.5181 65.962 39.4449 65.962 39.0051C65.962 38.8569 65.924 38.6754 65.769 38.6754Z" fill="white"/>
<path d="M63.727 36.6615C63.495 36.5142 63.533 36.4411 63.379 36.2587C63.225 37.943 63.495 39.5903 62.223 40.2506L62.261 40.2867C62.3 40.3218 63.417 39.5172 63.533 39.3338C63.572 39.2236 63.687 39.1153 63.764 39.0412C63.841 38.894 63.881 38.8208 63.957 38.6745C64.112 38.4912 64.228 38.1245 64.228 37.8319V37.43C64.228 37.2096 64.15 37.2457 64.15 36.9902C63.996 36.88 63.919 36.7698 63.727 36.6615Z" fill="white"/>
<path d="M64.073 43.0702C65.229 43.0702 66.386 42.0803 66.386 40.983V40.7987C66.386 40.6173 66.347 40.5061 66.232 40.433C66.156 40.6904 65.346 41.3858 65.114 41.6062C64.883 41.7877 63.957 42.3738 63.572 42.3738L62.492 42.6313C62.762 42.8498 63.263 43.0711 63.727 43.0711L64.073 43.0702Z" fill="white"/>
<path d="M8.867 38.6393C9.021 38.455 9.291 38.1995 9.445 38.0152C9.599 37.8337 9.946 37.5753 10.062 37.4309C10.178 37.2466 10.525 36.9911 10.641 36.8077C10.833 36.5892 11.065 36.404 11.22 36.1855C11.45 35.8929 12.145 35.1243 12.222 34.8298L11.412 34.427C11.22 35.1234 10.95 35.3799 10.68 35.928C10.602 36.0743 10.294 36.404 10.179 36.5512C9.986 36.7346 9.832 36.9911 9.639 37.1355C9.369 37.3929 8.791 38.0522 8.598 38.3458C8.444 38.6023 8.328 38.7856 8.174 39.0412C8.02 39.2597 7.904 39.7356 7.828 39.8468V39.9921C7.866 39.957 8.213 39.4069 8.29 39.2597C8.404 39.1153 8.751 38.7856 8.867 38.6393Z" fill="white"/>
<path d="M57.134 50.541V50.3225L56.671 50.2484C56.709 50.3225 56.825 50.3957 56.825 50.5049C56.825 50.6151 56.786 50.6522 56.786 50.7624C56.942 50.7624 57.134 50.6873 57.134 50.541Z" fill="white"/>
<path d="M59.293 36.2586H59.138L58.559 36.1845C58.752 36.4781 59.331 36.6614 59.831 36.6614H60.602C60.794 36.6614 61.103 36.1484 61.181 35.928C61.335 35.5984 61.335 35.2697 61.335 34.7928C61.411 34.7586 61.411 34.7196 61.488 34.7196H61.682C61.682 34.5011 61.488 34.427 61.258 34.427H61.181C61.026 34.427 60.718 35.0873 60.679 35.2326C60.217 35.2326 59.947 34.94 59.716 34.94H59.523C59.292 34.94 59.292 35.0873 59.214 35.2326C59.483 35.2326 59.599 35.2697 59.754 35.4169C59.831 35.453 60.101 35.7466 60.101 35.8197C60.103 36.0382 59.563 36.2586 59.293 36.2586Z" fill="white"/>
<path d="M64.458 39.5532C64.42 39.7005 64.228 40.1033 64.228 40.1033C64.382 40.0662 64.883 39.5532 64.96 39.4079C65.153 39.1875 65.308 38.7134 65.308 38.3106V38.0902L65.269 38.1263L64.458 37.5763C64.498 37.8717 64.651 38.6032 64.612 38.9329C64.536 39.1865 64.574 39.3338 64.458 39.5532Z" fill="white"/>
<path d="M62.107 38.7495C61.76 39.0792 61.451 39.3338 60.836 39.3708C60.836 39.6264 61.375 40.1033 61.49 40.1033C61.722 40.1033 62.3 39.3338 62.454 39.1504C62.685 38.8569 62.916 38.2356 62.916 37.6855C62.724 37.8698 62.685 38.0152 62.531 38.2356C62.377 38.4921 62.339 38.5652 62.107 38.7495Z" fill="white"/>
<path d="M57.211 37.2457C57.365 37.7597 57.828 38.1995 58.291 38.4541C58.792 38.7496 59.293 39.0042 59.794 39.2607C60.102 39.444 60.835 40.1033 60.835 40.5432V42.0461C61.182 42.0461 61.451 41.6775 61.451 41.3127V41.0562C61.451 39.8848 60.14 39.1505 59.485 38.5292C59.062 38.0893 58.754 37.9069 58.368 37.3939C58.175 37.1754 58.021 36.9911 57.906 36.7356C57.867 36.5893 57.675 35.9642 57.635 35.8568C57.906 35.9281 57.983 36.0744 58.368 36.0744H58.56C58.56 35.6716 58.059 35.5984 58.059 35.2688C58.059 35.0873 58.676 34.5363 58.676 34.2076V34.0974C58.676 33.8789 58.521 33.8048 58.406 33.7307V34.0233C58.213 34.2808 58.02 34.3558 57.789 34.5734C57.558 34.7187 57.249 34.8299 57.249 35.2317V35.2688C57.249 35.4521 57.48 35.6716 57.558 35.8188C57.017 35.8188 57.057 35.5262 56.671 35.5262C56.671 36.0744 57.018 36.8068 57.211 37.2457ZM57.597 35.8188C57.519 35.892 57.674 35.7457 57.597 35.8188V35.8188Z" fill="white"/>
<path d="M73.595 46.1092H73.904C73.904 45.7425 73.556 45.5592 73.326 45.4138C73.055 45.5962 72.94 45.7805 72.863 46.1463L73.595 46.1092Z" fill="white"/>
<path d="M57.519 52.2633L57.635 51.4568C57.674 51.1642 57.25 50.9808 56.942 50.9808L57.212 51.2383V52.079L57.519 52.2633Z" fill="white"/>
<path d="M0.92502 49.1862C1.15602 49.1862 1.23402 49.3316 1.34802 49.4798C1.38702 49.4427 1.50302 49.4427 1.50302 49.3696C1.50302 49.2242 1.07902 48.6742 0.810019 48.6742H0.46302C0.42402 48.8927 0.27002 48.9668 0.27002 49.2242C0.27002 49.627 0.73302 50.065 0.73302 50.2854H0.810019C0.848019 50.1752 0.848019 50.2122 0.848019 50.1381C0.848019 49.9206 0.655019 49.6641 0.655019 49.4437C0.655019 49.2964 0.69402 49.3705 0.69402 49.2252C0.84802 49.2233 0.77102 49.1862 0.92502 49.1862Z" fill="white"/>
<path d="M1.92801 51.3836C1.88901 51.3466 1.88902 51.3836 1.88902 51.3095C1.85002 51.2382 1.81201 51.2382 1.77301 51.2021C1.73401 51.128 1.65801 50.9067 1.65801 50.8355V50.4327C1.73401 50.3956 1.73401 50.3956 1.85001 50.3956H1.88902C2.00502 50.3956 2.19702 50.577 2.39002 50.577C2.23502 50.0298 1.84901 49.8826 1.42601 49.6261L1.19502 49.6983C1.15702 49.9187 1.08001 49.7344 1.04101 50.1011C1.00201 50.3585 1.04101 50.3215 1.04101 50.577C1.19501 50.7974 1.23401 50.8725 1.42601 51.091C1.58001 51.2373 1.85001 51.3836 1.92702 51.4938L1.96601 51.4568V51.4206C1.92801 51.4567 1.92801 51.4207 1.92801 51.3836Z" fill="white"/>
<path d="M1.002 48.563V48.1972C1.002 47.9407 0.771 47.7203 0.501 47.7203H0.385C0.154 47.7203 0.116 48.0148 0 48.1231V48.4547L0.154 48.7112H0.193V48.3815C0.193 48.2713 0.193 48.2713 0.231 48.1982H0.54C0.771 48.1972 0.694 48.5259 1.002 48.563Z" fill="white"/>
<path d="M0.848019 47.6492H0.886019C0.964019 47.6492 1.00202 47.6121 1.00202 47.539V47.5019C1.00202 47.3547 0.92502 47.3547 0.92502 47.2074V47.0621H1.23402C1.38802 47.0621 1.38802 46.8065 1.38802 46.6593C1.08002 46.512 1.04102 46.3296 0.69502 46.2565C0.54002 46.512 0.27002 46.7324 0.27002 47.1362V47.2806C0.27002 47.3547 0.848019 47.6492 0.848019 47.6492Z" fill="white"/>
<path d="M3.73998 52.1892V51.9337C3.81698 51.8966 3.81698 51.8966 3.93198 51.8966H3.97198C4.04798 51.8966 4.08698 51.9698 4.16398 52.0068C4.04798 51.567 3.50898 51.4568 2.93098 51.4568C2.85398 51.4568 2.73798 51.4938 2.73798 51.604C2.73798 52.0439 3.04698 52.2985 3.31598 52.4467C3.50898 52.555 4.08798 52.8846 4.35798 52.8846C4.31798 52.6281 3.73998 52.3735 3.73998 52.1892Z" fill="white"/>
<path d="M11.411 49.04C11.064 49.1131 10.756 48.7464 10.601 48.6362C10.524 48.6001 9.754 48.1232 9.754 48.4548V48.4899C9.754 48.8557 10.023 48.8927 10.139 49.3326L9.599 49.1511C9.638 49.6641 9.792 49.6993 10.178 49.8836C10.563 50.1021 10.872 49.9938 11.334 50.1021C11.449 50.0308 11.797 49.5169 11.797 49.4067V49.2252C11.797 49.115 11.758 49.078 11.72 49.0048L11.411 49.04Z" fill="white"/>
<path d="M5.47399 52.4817C5.47399 52.1521 6.05299 52.0438 6.28399 51.8965C6.16799 51.8965 6.12999 51.8595 6.01399 51.8595H5.89899C5.39799 51.8595 4.35699 52.0438 4.35699 52.4466C4.35699 52.9947 5.74499 53.2161 6.43899 53.2161C6.12999 53.0318 5.47399 52.9577 5.47399 52.4817Z" fill="white"/>
<path d="M2.54397 51.3466C2.54397 51.2753 2.58297 51.2383 2.62197 51.2383C2.81397 51.2383 2.85297 51.3095 3.04597 51.3095H3.08397C3.46997 51.3095 2.69897 50.7253 2.23597 50.6882C2.19697 50.8355 2.08197 50.9447 2.08197 51.0179V51.4216C2.08197 51.6791 2.50597 52.0448 2.69897 52.1541C2.65997 51.9356 2.54497 51.7142 2.54497 51.6059V51.3466H2.54397Z" fill="white"/>
<path d="M69.123 46.1092L69.239 46.8806C69.317 46.9889 69.431 47.1371 69.509 47.2815C69.701 47.576 69.701 47.3917 69.856 47.613C70.049 47.8315 70.511 47.9797 70.782 48.0871C70.704 47.8315 70.589 47.6501 70.589 47.3185V47.2815C70.589 46.587 71.205 46.3676 71.669 46.0731C71.785 46.0731 72.671 45.9287 72.671 45.8546C72.671 45.7444 72.517 45.6712 72.479 45.5249C72.632 45.4888 72.671 45.4147 72.748 45.3045C72.864 45.2333 73.057 45.1972 73.057 45.1231C73.057 44.2434 72.054 43.6572 71.052 43.6572H70.86C70.398 43.6572 69.896 43.8035 69.626 43.9869C69.395 44.1702 68.971 44.4999 68.971 44.8656C68.971 44.9027 69.009 44.9397 69.087 44.9397C69.203 44.9397 69.203 44.7944 69.433 44.7583C69.318 44.9768 69.241 45.124 69.087 45.3055C69.009 45.4157 68.816 45.7453 68.816 45.9296V46.3695H68.971L69.123 46.1092ZM70.203 45.4508C70.203 45.011 71.167 44.6452 71.706 44.6452H71.899C72.169 44.6452 72.516 44.7184 72.592 44.9378C72.515 44.9008 72.515 44.8637 72.438 44.8637H71.899C71.706 44.8637 71.358 44.9378 71.32 45.1212L72.169 45.2314L72.246 45.4499C72.13 45.3767 71.899 45.3026 71.745 45.3026C71.167 45.3026 70.704 45.7425 70.281 45.8527C70.242 45.7795 70.203 45.7064 70.203 45.5582V45.4508Z" fill="white"/>
<path d="M63.996 46.4759C63.841 46.7333 63.687 46.9518 63.495 47.2083L63.533 47.2444C63.572 47.2815 64.767 46.55 64.883 46.4759C65.192 46.2574 65.769 45.7434 65.924 45.4138C66.078 45.2323 66.232 45.048 66.347 44.7925C66.501 44.5721 66.579 44.3526 66.695 44.0961C66.849 43.8396 67.119 42.8136 67.119 42.4108V41.6071C67.119 41.2024 66.81 39.9589 66.617 39.8116C66.617 40.2515 66.656 40.6543 66.656 41.0191C66.656 41.533 66.579 41.7515 66.541 42.1543C66.501 42.5201 65.924 43.7655 65.731 43.9137L65.577 43.2164L63.803 44.0961C63.495 44.0961 63.225 44.2424 62.761 44.2424H62.607C62.684 44.5721 63.532 44.7193 63.956 44.7193H64.149C64.766 44.7193 65.036 44.4248 65.46 44.3165C65.344 44.6823 64.611 45.3036 64.419 45.7073C64.343 45.9277 64.112 46.2925 63.996 46.4759ZM65.5 44.2415L65.538 44.2785L65.5 44.3156L65.461 44.2785L65.5 44.2415Z" fill="white"/>
<path d="M8.79 45.3036C8.906 45.4509 8.79 45.3777 8.983 45.5601C9.021 45.5972 9.137 45.7435 9.176 45.8176C9.407 46.0731 9.985 46.4759 10.101 46.6602C10.256 46.6602 11.065 47.1732 11.334 47.2445C10.987 46.7704 10.756 46.2935 10.409 45.8176C10.331 45.6703 10.331 45.6333 10.178 45.4509C10.101 45.3036 10.024 45.2324 9.947 45.0851C9.831 44.9379 9.446 44.5712 9.446 44.3897C9.6 44.3897 9.831 44.5711 10.063 44.6462C10.256 44.6823 10.68 44.7194 10.873 44.7194C11.335 44.7194 12.145 44.5721 12.223 44.2425H11.991C11.606 44.2425 11.375 44.0962 10.989 44.0962L9.214 43.2155C9.176 43.3257 9.098 43.5471 9.098 43.6183V43.8017C9.098 43.9128 9.098 43.9128 9.137 43.9841C8.752 43.7276 8.173 42.1164 8.173 41.3849V41.3478V39.8468C7.98 40.0653 7.672 41.3478 7.672 41.8618V42.1173C7.672 43.1443 8.058 44.0952 8.444 44.7915C8.597 45.048 8.635 45.0481 8.79 45.3036ZM9.33 44.2415L9.408 44.3888L9.292 44.2786L9.33 44.2415Z" fill="white"/>
<path d="M57.635 46.6592C57.713 46.6592 58.484 46.9148 58.715 46.9889C59.139 47.062 59.447 47.1722 59.949 47.1722H60.258C60.605 47.1722 61.261 47.025 61.376 46.8407C60.914 46.8407 59.911 46.7694 59.564 46.6222C59.179 46.512 58.716 45.9277 58.716 45.4879V45.0851C58.716 44.6813 59.025 44.4609 59.295 44.2785C59.874 44.5711 59.796 44.8286 59.988 45.4499C60.18 45.9268 60.412 46.2564 61.106 46.2564C60.797 45.8166 60.373 45.5962 60.373 44.7915V44.6452C60.373 44.2415 60.528 44.0952 60.528 43.8387C60.643 43.7655 61.413 42.6673 61.413 42.446C61.413 42.3377 61.375 42.1895 61.337 42.1163C61.067 42.1534 59.447 43.0692 59.139 43.2516C58.985 43.3618 58.368 43.8377 58.214 43.984C58.022 44.1674 57.559 44.7554 57.405 44.8286C57.173 44.7184 56.826 44.5711 56.826 44.2415V44.2054C56.826 43.3627 58.715 42.1904 59.679 42.1904H59.91V42.3728C59.833 42.4089 59.795 42.3728 59.795 42.483C59.795 42.5562 59.833 42.5932 59.873 42.5932C60.219 42.5932 60.721 42.3367 60.721 41.9719C60.721 41.7876 60.567 41.6765 60.489 41.5321C60.219 41.5321 60.258 41.4219 60.065 41.4219H59.873C58.639 41.4219 56.017 43.2155 56.017 44.2054V44.4609C56.017 44.8295 56.749 45.1582 57.135 45.1953C57.096 45.3397 56.865 45.7064 56.749 45.8166C56.672 45.9629 56.518 46.4008 56.441 46.549C56.287 47.062 56.132 47.6833 56.132 48.3084V48.3816C56.132 48.7844 58.368 50.064 58.407 50.2483C58.136 50.1752 57.829 50.065 57.443 50.065H57.212C57.096 50.065 57.096 50.065 57.019 50.102C57.174 50.2854 57.675 50.5048 58.022 50.5048H58.677V50.4678L59.063 50.7632C59.101 50.653 59.217 50.5428 59.217 50.4336L59.178 50.102C59.139 50.065 58.87 49.8094 58.793 49.6992C58.6 49.5539 58.446 49.5168 58.137 49.5168L58.098 49.4807L58.329 49.1872L58.368 49.2242C58.329 48.8927 56.942 49.077 56.942 48.2343V48.0871C56.942 47.9797 57.173 47.8315 57.25 47.8315H58.561V47.7945C58.369 47.576 57.52 47.4648 57.52 47.025V46.7694C57.519 46.6963 57.559 46.6592 57.635 46.6592ZM58.638 50.3595L58.677 50.3956L58.638 50.4326L58.599 50.3956L58.638 50.3595Z" fill="white"/>
<path d="M60.025 38.6755H60.448C60.68 38.6755 61.066 38.1996 61.066 37.9792V37.907C61.066 37.7607 61.066 37.907 61.027 37.7968C60.565 38.0903 60.025 38.0533 59.755 38.419C59.794 38.4922 59.91 38.6755 60.025 38.6755Z" fill="white"/>
<path d="M1.96599 46.1463C1.88899 45.8166 1.77299 45.5962 1.50299 45.4138C1.27199 45.524 0.924988 45.7435 0.924988 46.1092H1.23399L1.96599 46.1463Z" fill="white"/>
<path d="M73.518 47.0621C73.634 47.0621 73.904 47.025 73.904 47.1362C73.904 47.3176 73.827 47.3537 73.827 47.539V47.6492H73.982C73.982 47.6492 74.559 47.3537 74.559 47.2806V47.0991C74.559 46.8065 74.251 46.4759 74.135 46.2565C73.712 46.3296 73.672 46.5861 73.403 46.6593L73.518 47.0621Z" fill="white"/>
<path d="M2.15899 45.8176C2.15899 45.9639 2.69899 45.9639 2.85299 45.999C3.16099 46.1092 3.23799 46.1092 3.50799 46.2565C3.85499 46.475 4.23998 46.7695 4.23998 47.2806V47.3176C4.23998 47.5751 4.08699 47.9038 4.00999 48.0862C4.77999 47.9047 5.66699 47.2074 5.66699 46.3296V46.1092H5.78299L5.82199 46.3667H5.97599C6.01499 46.2926 6.01499 46.2926 6.01499 46.1824V45.9268C6.01499 45.7425 5.51499 44.974 5.39899 44.7555L5.74499 44.9369L5.86099 44.8628C5.74499 44.4239 5.20499 43.8017 4.70499 43.8017C4.55099 43.6915 4.31898 43.6554 4.04899 43.6554H3.73999C3.04599 43.6554 2.81399 43.8387 2.39099 44.0582C2.00499 44.2786 1.84999 44.6814 1.73499 45.1583C2.00599 45.2314 2.15899 45.524 2.35199 45.524C2.31299 45.6323 2.15899 45.7796 2.15899 45.8176ZM2.23599 44.9008C2.31399 44.6823 2.73699 44.6453 3.04599 44.6453H3.08399C3.62399 44.6453 4.62599 44.9749 4.62599 45.4509V45.5592C4.62599 45.6694 4.58699 45.8537 4.50999 45.8537C4.35599 45.8537 3.58599 45.3036 3.12199 45.3036C2.89099 45.3036 2.73699 45.3777 2.58199 45.4509L2.65899 45.2324L3.50699 45.1222C3.46899 44.9759 3.12099 44.8647 2.96699 44.8647H2.42899C2.35199 44.8638 2.27399 44.9008 2.23599 44.9008Z" fill="white"/>
<path d="M9.67699 51.2382H9.52099C9.40699 51.2382 9.29099 51.0919 9.29099 50.9437V50.7623C9.29099 50.6882 9.48299 50.1381 9.52099 49.9928C9.32999 50.1372 8.24999 51.2012 8.24999 51.4206V51.8966C8.24999 52.1531 8.48099 52.1892 8.71299 52.1892C8.59699 52.2633 8.32799 52.3735 8.13399 52.3735H7.55599C7.40199 52.3735 7.24799 52.2633 7.24799 52.1531V52.0448C7.24799 51.7132 7.67099 51.7132 7.67099 51.3845C7.20899 51.4216 6.43799 52.0448 6.43799 52.5929C6.43799 52.9587 6.93899 53.1791 7.32599 53.1791H7.43999C8.17199 53.1791 9.02099 52.6661 9.29099 52.1892C10.177 52.1531 10.91 51.4206 10.91 50.5048C10.563 50.7252 10.371 51.2382 9.67699 51.2382Z" fill="white"/>
<path d="M10.486 47.2815C10.332 47.1732 10.409 47.1732 10.256 47.063C10.14 46.9528 9.908 46.6602 9.755 46.6602C9.755 46.8416 9.677 46.9157 9.677 47.1C9.677 47.9056 10.294 48.4908 11.142 48.4908C11.334 48.4908 11.836 48.3455 11.874 48.1612C11.257 48.0158 11.103 47.8686 10.717 47.5028C10.641 47.4287 10.563 47.3546 10.486 47.2815Z" fill="white"/>
<path d="M15.614 35.2317C15.575 35.1234 15.498 34.9391 15.344 34.9391H15.229C14.843 34.9391 14.535 35.2317 14.265 35.2317H14.188L13.725 34.4261H13.493C13.301 34.4261 13.185 34.5724 13.147 34.7187H13.339C13.416 34.7187 13.416 34.7577 13.493 34.7919C13.493 35.3419 13.455 35.5262 13.648 35.9271C13.725 36.1846 13.957 36.6605 14.265 36.6605H15.113C15.459 36.6605 16.154 36.4401 16.231 36.1836L15.614 36.2577C15.344 36.2938 14.727 36.0373 14.727 35.8549C14.727 35.5614 15.189 35.2317 15.614 35.2317Z" fill="white"/>
<path d="M11.913 34.6104C12.337 34.6104 12.569 34.7918 12.993 34.5372C13.302 34.3558 13.378 34.0603 13.533 33.7677C13.687 33.4751 13.803 33.2177 14.15 33.0723C14.42 32.889 14.882 32.889 14.959 32.5593C13.61 32.5964 12.646 33.8789 12.376 33.8789C11.875 33.8789 11.605 33.2186 11.605 32.7075V32.6705C11.605 32.413 11.682 32.1204 11.759 31.9371C11.913 31.6074 11.99 31.6074 12.145 31.3889C11.49 31.5343 10.988 32.1584 10.988 32.927V33.0733C10.988 33.5112 11.104 33.7316 11.258 34.0242C11.449 34.3909 11.758 34.4261 11.913 34.6104Z" fill="white"/>
<path d="M18.774 44.5711V44.1313C18.774 43.1803 16.153 41.4219 14.881 41.4219H14.765C14.495 41.4219 14.109 41.6774 14.109 41.8978V42.0061C14.109 42.446 15.034 42.7395 15.034 42.483C15.034 42.3377 14.88 42.4089 14.88 42.3016C14.88 42.2275 14.918 42.1904 14.995 42.1904H15.111C15.535 42.1904 15.727 42.3728 16.036 42.3728C16.421 42.6303 16.845 42.7405 17.193 43.0692C17.424 43.2516 17.964 43.8016 17.964 44.1303V44.2776C17.964 44.5702 17.617 44.7906 17.347 44.8276C17.27 44.5702 15.921 43.4349 15.651 43.2516C15.303 43.0692 13.8 42.1534 13.491 42.1163C13.453 42.2265 13.414 42.2265 13.414 42.3728V42.4089C13.414 42.996 14.455 43.6914 14.455 44.5702V44.7906C14.455 45.523 13.993 45.8517 13.723 46.2555C14.417 46.2555 14.61 45.9258 14.803 45.4489C15.073 44.8276 14.88 44.6794 15.497 44.2776C15.767 44.4229 16.076 44.6072 16.076 45.01V45.5952C16.076 46.0351 15.574 46.5481 15.228 46.6583C14.804 46.7314 13.916 46.8397 13.415 46.8397C13.531 46.987 14.225 47.1713 14.572 47.1713H14.803C15.381 47.1713 15.613 47.0611 16.075 46.9509C16.498 46.8796 16.961 46.6583 17.269 46.6583C17.269 46.7685 17.308 46.8397 17.308 46.8787L17.269 47.2064C16.961 47.3527 16.691 47.6824 16.267 47.7194V47.7926V47.8296H17.463C17.617 47.8296 17.887 47.9398 17.887 48.0852V48.2695C17.887 48.7825 17.039 49.0751 16.46 49.0751C16.46 49.3316 16.653 49.2223 16.653 49.4047V49.5149H16.54C16.077 49.5149 15.614 49.9548 15.614 50.3946V50.4317C15.614 50.5761 15.691 50.6502 15.768 50.7613L16.153 50.4317V50.5029H16.732C17.156 50.5029 17.58 50.3585 17.773 50.1001C17.465 50.1001 17.349 50.0631 16.963 50.1001C16.616 50.1362 16.54 50.2464 16.307 50.3205C16.539 49.9538 17.194 49.7334 17.58 49.4408C17.734 49.2936 18.698 48.5611 18.698 48.4167C18.698 47.9398 18.544 46.9499 18.389 46.6203C18.312 46.3999 18.196 46.0702 18.081 45.8878C18.004 45.7776 17.733 45.3007 17.695 45.1934C17.965 45.1582 18.774 44.8286 18.774 44.5711ZM16.192 50.4326L16.153 50.3956L16.192 50.3595L16.23 50.3956L16.192 50.4326ZM16.269 50.3224C16.192 50.3956 16.346 50.2483 16.269 50.3224V50.3224Z" fill="white"/>
<path d="M16.384 33.6946C16.384 33.6946 16.153 33.915 16.153 34.0974V34.3178C16.153 34.4622 16.77 35.1956 16.77 35.2317C16.77 35.5613 16.346 35.6715 16.23 36.0743C16.924 36.0743 16.846 35.928 17.232 35.8188C16.885 36.403 16.962 36.8068 16.5 37.3568C16.077 37.8698 15.768 38.0893 15.344 38.5282C14.65 39.1856 13.339 39.8838 13.339 41.1654C13.339 41.6404 13.57 41.9719 13.956 42.0451C13.956 42.0061 13.994 41.9349 13.994 41.9349C13.994 41.495 13.956 41.1283 13.956 40.6894C13.956 40.432 14.226 39.9199 14.38 39.7727C15.035 39.1856 15.304 39.1495 16.037 38.7486C16.846 38.3087 16.962 38.2717 17.502 37.5402C17.695 37.2447 18.12 36.0002 18.158 35.5262C17.849 35.5262 17.657 35.8188 17.502 35.8188H17.271C17.348 35.5984 17.541 35.5984 17.541 35.2687V35.0502C17.541 34.6474 16.077 34.2446 16.423 33.7307L16.384 33.6946Z" fill="white"/>
<path d="M8.44299 40.9088V41.1292C8.44299 42.1904 9.71499 43.0701 10.948 43.0701H10.987C11.527 43.0701 12.028 42.8867 12.337 42.6302C11.643 42.6302 10.486 42.1543 10.062 41.8617C9.32999 41.3116 9.09799 41.0181 8.51999 40.3949L8.44299 40.9088Z" fill="white"/>
<path d="M9.09802 40.1033C9.21402 40.5792 9.48402 40.7635 9.75402 41.0561C9.98402 41.3858 10.563 41.6413 10.679 41.7886C10.987 41.7886 11.295 42.0812 11.835 42.0812H13.03L13.069 40.9839C13.069 40.8367 11.18 40.7654 10.871 40.7654C10.601 40.7654 9.98402 40.6923 9.79102 40.6182C9.67602 40.5811 9.52002 40.4709 9.40602 40.3978C9.13702 40.2866 9.25202 40.2135 9.09802 40.1033Z" fill="white"/>
<path d="M13.301 24.3182C13.301 24.3913 13.108 24.6127 13.108 24.7219C13.108 24.8682 13.417 24.8682 13.571 24.8682C13.763 24.8682 13.879 24.9784 14.111 24.9784L14.034 24.6848H14.457C14.843 24.6848 15.305 24.0617 15.305 23.6959V23.5487C15.305 23.4765 15.267 23.4394 15.19 23.4394H15.074C14.65 23.4394 14.689 23.9163 14.265 23.9515C14.226 23.733 13.956 23.6959 13.956 23.4394V23.3302H14.65C14.573 23.22 13.648 22.7801 13.416 22.8171L13.069 22.8542V23.2199C13.069 23.5496 13.3 23.9894 13.3 24.1367L13.301 24.3182Z" fill="white"/>
<path d="M11.565 38.6393C11.489 37.9439 11.449 36.954 11.449 36.2216C11.064 36.7346 10.563 36.8429 10.563 37.6124C10.563 38.3097 10.872 38.8208 11.219 39.2236C11.373 39.4069 11.565 39.6634 11.797 39.7736C11.836 39.8107 12.491 40.2505 12.491 40.2505L12.53 40.2135C12.53 40.2135 12.376 40.1033 12.338 40.1033C12.222 40.0301 12.261 40.0301 12.184 39.9218C12.068 39.8116 11.952 39.7375 11.875 39.5903C11.758 39.2967 11.604 38.968 11.565 38.6393Z" fill="white"/>
<path d="M15.42 38.0152C15.961 38.0152 16.153 37.5754 16.153 37.0643C15.999 37.1013 15.729 37.1745 15.536 37.1745L15.266 37.2096L13.376 36.9531C13.415 37.3198 14.726 38.0143 15.228 38.0143L15.42 38.0152Z" fill="white"/>
<path d="M17.079 25.9663C16.963 25.9663 16.925 26.0024 16.809 26.0024H16.578C16.385 26.0024 16.385 25.9293 16.307 25.821C16.346 25.6737 16.384 25.6376 16.384 25.4894V25.2709C16.384 25.0135 15.883 24.6126 15.729 24.3912C15.69 24.6857 15.382 24.6487 15.382 25.0135V25.1227C15.382 25.1968 15.42 25.2329 15.498 25.2329H15.537C15.729 25.2329 15.999 25.1227 15.999 25.307V25.3431C15.999 25.4885 15.729 25.5255 15.729 25.9283C15.729 26.0385 15.729 26.0385 15.768 26.1117C15.999 26.1117 16.077 26.1858 16.307 26.1858H16.616C16.809 26.1867 17.041 26.1126 17.079 25.9663Z" fill="white"/>
<path d="M18.158 50.2113L17.696 50.3215V50.54C17.696 50.6863 17.888 50.7604 18.043 50.7604C18.043 50.6502 18.005 50.6132 18.005 50.503V50.4659C18.004 50.3956 18.12 50.3225 18.158 50.2113Z" fill="white"/>
<path d="M12.954 37.2457C12.877 36.9901 12.915 36.6614 12.877 36.3669C12.838 35.8919 12.646 35.1956 12.222 35.0863C12.145 35.3789 12.029 35.5604 12.029 35.9271V36.2216C12.029 36.6244 12.184 36.8799 12.184 37.2096C12.376 37.5041 12.414 37.8328 12.684 38.0893C12.993 38.3467 13.108 38.5291 13.532 38.6393L13.07 38.0522C13.069 37.8328 12.992 37.5041 12.954 37.2457Z" fill="white"/>
<path d="M9.521 38.0893V38.3838C9.521 39.0051 10.177 39.9931 10.601 40.1042L10.37 39.7375V39.5912L10.293 39.4829L10.216 38.8958L10.177 38.7144L10.37 37.6143C9.946 37.6494 9.869 38.0893 9.521 38.0893Z" fill="white"/>
<path d="M13.763 37.8328V37.9781C13.763 38.1985 14.149 38.6745 14.341 38.6745H14.766C14.882 38.6745 15.036 38.4911 15.074 38.417C14.92 38.1985 14.766 38.1235 14.457 38.0874C14.149 38.0152 13.956 37.8698 13.763 37.8328Z" fill="white"/>
<path d="M9.25198 38.6754H9.05998C8.98298 38.6754 8.86798 38.7856 8.86798 38.8569V39.1504C8.86798 39.3708 9.13798 39.6264 9.29198 39.6264H9.48398C9.44498 39.4079 9.36798 39.4449 9.36798 39.1504C9.36798 38.968 9.44498 38.6754 9.25198 38.6754Z" fill="white"/>
<path d="M11.951 38.3097L12.183 38.931C12.337 39.0042 12.992 40.1024 13.301 40.1024C13.455 40.1024 13.956 39.6625 13.956 39.3699C13.262 39.2227 13.107 39.1495 12.645 38.7486C12.298 38.417 12.183 37.9421 11.874 37.6115L11.951 38.3097Z" fill="white"/>
<path d="M17.888 50.9808H17.657C17.465 51.091 17.195 51.1271 17.195 51.4568V51.5309L17.311 52.2633C17.658 52.1892 17.581 51.9698 17.581 51.605C17.58 51.1642 17.657 51.2012 17.888 50.9808Z" fill="white"/>
<path d="M12.915 44.0952C13.107 44.2415 13.455 44.9378 13.493 45.2684C13.725 45.2314 13.879 44.7915 13.879 44.497V44.3156C13.879 43.7285 13.378 42.959 12.8 42.959H12.569C12.298 42.959 11.875 43.2155 11.836 43.3988C12.067 43.509 12.222 43.509 12.414 43.6914C12.529 43.7655 12.799 44.0239 12.915 44.0952Z" fill="white"/>
<path d="M58.136 26.1867H58.56C58.792 26.1867 58.753 26.1126 59.023 26.1126C59.062 26.0394 59.099 26.0394 59.099 25.9663V25.8931C59.099 25.7107 58.869 25.4533 58.791 25.3079L58.906 25.1977L59.215 25.2338H59.254C59.37 25.2338 59.37 25.2338 59.446 25.1977V25.0885C59.446 24.7218 59.176 24.6857 59.099 24.4292H59.023C59.023 24.6486 58.406 24.9792 58.406 25.382C58.406 25.5635 58.483 25.6005 58.483 25.7848V25.8219C58.483 25.8941 58.367 26.0033 58.291 26.0033H57.982C57.866 26.0033 57.828 25.9672 57.712 25.9672C57.79 26.0765 57.944 26.1867 58.136 26.1867Z" fill="white"/>
<path d="M60.488 23.9514C60.179 23.9514 60.179 23.4394 59.717 23.4394H59.64C59.563 23.4394 59.525 23.4764 59.525 23.5486V23.6959C59.525 24.0616 59.987 24.6848 60.296 24.6848H60.797L60.681 24.9784L61.723 24.7941C61.684 24.5765 61.529 24.3913 61.529 24.3181V24.1728C61.529 23.9163 61.723 23.77 61.723 23.2931V22.8542C61.607 22.8542 61.568 22.8171 61.452 22.8171C61.106 22.8171 60.296 23.1829 60.18 23.3301L60.258 23.3672C60.605 23.3672 60.567 23.2199 60.875 23.3672C60.835 23.5486 60.681 23.9514 60.488 23.9514Z" fill="white"/>
<path d="M57.597 25.1968C58.214 25.1968 58.484 25.2329 58.484 24.6477V24.4653C58.484 24.1718 58.292 23.9884 57.983 23.9884H57.945C57.674 23.9884 57.25 24.1357 57.096 24.2088L56.865 23.9884L56.826 24.0255C56.826 24.3551 56.633 24.4283 56.633 24.6477C56.633 24.757 56.672 24.7931 56.71 24.8672C57.096 24.6848 57.79 24.6848 57.829 24.2088L58.098 24.4273C57.983 24.6107 57.25 24.9033 56.98 24.9774C57.058 25.27 57.289 25.5616 57.635 25.5987V25.5265C57.559 25.4894 57.443 25.4533 57.443 25.3811C57.443 25.2709 57.519 25.2339 57.597 25.1968ZM57.365 24.5385H57.288C57.173 24.5385 57.173 24.5385 57.096 24.5014L57.288 24.2449L57.635 24.2088C57.635 24.3551 57.519 24.5385 57.365 24.5385Z" fill="white"/>
<path d="M62.724 31.3871L62.685 31.4241H62.724C62.724 31.4602 62.724 31.4602 62.762 31.4602C62.762 31.4963 62.801 31.4963 62.801 31.5324C62.878 31.6056 62.878 31.5685 62.917 31.6426C62.994 31.7889 63.033 31.8621 63.071 31.9732C63.149 32.2668 63.226 32.4112 63.226 32.7779C63.226 33.2177 62.878 33.878 62.493 33.878C62.34 33.878 61.491 33.1807 61.337 33.0714C61.26 32.9983 60.797 32.7427 60.72 32.7057C60.528 32.6325 60.026 32.6325 59.872 32.5584C59.948 32.8881 60.72 32.9983 61.028 33.3279C61.375 33.6576 61.337 34.1706 61.8 34.4993C62.261 34.8289 62.878 34.6465 63.264 34.391C63.572 34.1706 63.842 33.5464 63.842 33.0353V32.8881C63.842 32.4853 63.65 32.2297 63.534 31.8991C63.379 31.6065 62.993 31.5324 62.724 31.3871Z" fill="white"/>
<path d="M60.372 25.8932V25.7108C60.372 25.1978 59.987 24.6126 59.678 24.4283L59.524 25.5265V25.8571L59.293 25.821V25.9664C59.293 26.6618 58.907 26.6257 58.676 26.9192L58.252 27.1016C59.023 27.1016 59.062 26.8081 59.563 26.6988C59.601 26.771 59.64 26.771 59.64 26.8442V26.9544C60.025 26.8822 60.372 26.3321 60.372 25.8932Z" fill="white"/>
<path d="M63.379 34.4261C63.186 34.4622 63.186 34.5724 63.032 34.6465C62.877 34.7178 62.723 34.7178 62.57 34.7909C62.878 35.2308 63.07 35.6336 63.456 35.9993C63.534 36.1095 63.572 36.2197 63.688 36.2938C63.842 36.4392 63.804 36.4762 63.919 36.5874C64.15 36.7688 64.266 36.88 64.458 37.1004C64.536 37.2087 64.921 37.5032 64.998 37.6115C65.191 37.8319 65.307 37.943 65.538 38.1245C65.654 38.2347 65.578 38.2347 65.769 38.418C65.847 38.4912 65.924 38.6014 66 38.7125C66.193 38.8569 66.309 39.1505 66.501 39.2968L67.003 39.9922C67.003 39.1856 65.692 37.6485 65.229 37.1735C65.036 36.9902 64.304 36.1836 64.149 35.9632C64.072 35.7818 63.84 35.4521 63.726 35.2308C63.572 34.9762 63.495 34.6836 63.379 34.4261Z" fill="white"/>
<path d="M61.915 36.843C61.915 37.2458 61.838 37.5403 61.76 37.906C61.606 38.4912 61.529 38.2727 61.26 38.6385C61.645 38.6385 62.223 38.0143 62.339 37.7217C62.492 37.4291 62.608 37.4291 62.647 37.0273C62.685 36.7698 62.801 36.5504 62.801 36.1837V35.9262C62.801 35.5966 62.685 35.378 62.609 35.0854C62.068 35.1956 61.953 36.1846 61.915 36.843Z" fill="white"/>
<path d="M62.993 43.3998C62.955 43.2165 62.531 42.96 62.261 42.96H61.953C61.528 42.96 60.912 43.8026 60.912 44.2425V44.461C60.912 44.7184 61.105 45.1583 61.298 45.2694C61.489 44.9379 61.567 44.3527 61.876 44.0962C62.261 43.8387 62.454 43.51 62.993 43.3998Z" fill="white"/>
<path d="M15.189 24.3912C14.842 24.6116 14.456 25.1607 14.456 25.7478V25.9663C14.456 26.3691 14.842 26.8821 15.15 26.9553C15.304 26.6617 15.112 26.5895 15.574 26.8451C15.767 26.9192 15.998 27.0294 16.153 27.1025H16.539C16.384 26.8831 15.536 26.9201 15.536 26.0034V25.821L15.304 25.8571V25.6737C15.304 25.3811 15.15 25.0144 15.15 24.8681V24.5755C15.151 24.4653 15.151 24.4653 15.189 24.3912Z" fill="white"/>
<path d="M17.001 24.2088C17.04 24.4273 17.271 24.6477 17.464 24.6848C17.695 24.7209 18.158 24.9413 18.158 24.757V24.6477C18.158 24.3903 18.004 24.3171 18.004 24.1357V24.0255C17.733 24.0616 17.849 24.2088 17.733 24.2088C17.656 24.2088 17.232 23.9884 16.846 23.9884H16.808C16.539 23.9884 16.307 24.2088 16.307 24.5014C16.307 25.1598 16.5 25.1968 17.194 25.1968C17.232 25.2329 17.386 25.307 17.386 25.3431C17.386 25.4885 17.232 25.4524 17.194 25.5996C17.541 25.5265 17.772 25.307 17.849 24.9783C17.734 24.9783 16.732 24.5385 16.732 24.4653C16.732 24.3551 16.924 24.2449 17.001 24.2088ZM17.734 24.5014C17.657 24.5385 17.657 24.5385 17.541 24.5385C17.31 24.5385 17.194 24.4283 17.194 24.2088C17.464 24.2088 17.696 24.2449 17.734 24.5014Z" fill="white"/>
<path d="M15.189 23.3672C15.382 23.3672 15.729 23.6968 15.768 23.8431L17.001 23.7329H17.194C17.464 23.7329 17.695 23.807 17.926 23.8431C18.273 23.8792 18.35 24.0616 18.543 24.0996V23.9172C18.543 23.8802 18.389 23.5496 18.35 23.5125C18.158 23.5125 17.733 23.4052 17.502 23.3681C17.194 23.3311 16.808 23.3311 16.539 23.294C16.114 23.2579 15.998 23.3311 15.768 23.0755C15.69 22.9663 15.267 22.7079 15.113 22.7079H14.804L14.958 23.3681L15.189 23.3672Z" fill="white"/>
<path d="M61.451 36.9531L59.485 37.2096L59.371 37.1745L58.677 37.1013C58.677 37.6495 58.908 38.0152 59.448 38.0152C60.179 38.0152 61.221 37.43 61.451 36.9531Z" fill="white"/>
<path d="M21.859 7.47076C21.974 8.02081 22.476 10.5469 22.399 11.0589L22.36 11.4988C22.283 11.5729 21.898 12.0488 21.898 12.0859V12.1951C21.898 12.2673 22.052 12.4146 22.09 12.4146C22.129 12.4146 23.054 11.7923 23.208 11.7182C23.555 11.4988 24.018 11.2432 24.365 11.0589C24.326 10.9867 24.211 10.6932 24.133 10.6932C23.902 10.6932 23.786 10.9136 23.478 10.9136C23.054 10.9136 22.938 10.0339 22.938 9.55696L24.79 8.45876C25.02 8.64116 25.792 9.04396 25.792 9.37361V9.44676C25.792 9.63106 25.291 9.88661 25.291 10.0339C25.291 10.1431 25.445 10.3265 25.521 10.3635C26.099 10.0709 26.678 9.52086 27.257 9.26531C27.449 9.15511 28.953 8.31246 29.029 8.20321C28.991 8.05691 28.952 7.87261 28.759 7.87261C28.682 7.87261 28.374 8.05596 28.142 8.05596H27.91C27.602 8.05596 26.599 7.32351 26.369 7.14016C26.137 6.99291 25.096 6.22341 24.903 6.15026C24.711 6.04196 23.708 5.34561 23.477 5.12616C23.323 5.05206 21.973 4.13721 21.973 4.13721H21.781C21.241 4.13721 21.511 5.27246 21.589 5.67431C21.743 6.22531 21.743 6.84946 21.859 7.47076ZM22.36 6.77536L24.327 8.13101L22.785 9.04586L22.323 6.77536H22.36Z" fill="white"/>
<path d="M43.14 7.83655C43.178 7.8014 43.294 7.6551 43.294 7.581V7.4708C43.294 7.3245 42.562 7.1782 42.562 6.81245V6.555C42.562 6.44575 42.831 5.6753 42.87 5.4929C42.947 5.16325 43.14 4.83455 43.178 4.3947L45.954 5.20125C45.916 5.2744 45.491 6.51985 45.491 6.59205C45.414 6.99485 45.221 7.7273 44.72 7.69215L44.18 7.6551C44.141 7.69215 44.026 7.83655 44.026 7.9116V7.98475C44.026 8.0579 44.064 8.0579 44.104 8.09495L45.183 8.35145L45.299 8.4246C45.569 8.4246 47.728 9.08295 47.96 9.1941C48.075 9.12 48.152 9.0098 48.152 8.86445V8.82645C48.152 8.71625 47.303 8.5329 47.303 8.02085C47.303 7.8014 47.613 6.8856 47.69 6.62815C47.844 6.2244 47.96 5.6753 48.113 5.27345C48.267 4.90675 48.421 4.3206 48.537 3.9178C48.653 3.515 48.808 2.8557 49.308 2.8557H49.654L50.001 2.8918C50.001 2.7094 50.079 2.74645 50.079 2.5992V2.52605C50.079 2.3807 49.347 2.23345 49.155 2.23345C49 2.1242 47.92 1.94085 47.612 1.83065C47.38 1.7214 46.3 1.3547 46.108 1.3547C46.108 1.53805 46.031 1.501 46.031 1.6492V1.7214C46.031 1.79455 46.07 1.79455 46.108 1.8677C46.338 1.8677 46.724 2.12515 46.724 2.2344V2.6011C46.724 2.96685 46.493 3.3326 46.416 3.62615C46.377 3.99285 46.107 4.4327 46.107 4.68825C45.837 4.68825 44.565 4.2484 44.218 4.13915C43.948 4.1021 43.37 4.0299 43.408 3.80855C43.408 3.62615 43.639 3.03905 43.678 2.92885L43.987 2.05105V1.90475C44.103 1.7214 44.179 1.501 44.487 1.501H44.719L45.142 1.53805C45.181 1.4649 45.22 1.42785 45.22 1.3186V1.06115C44.911 0.988 44.565 0.95095 44.257 0.8417C43.948 0.7334 43.562 0.69635 43.293 0.5852C43.023 0.513 42.638 0.3667 42.368 0.2926C42.214 0.2565 41.521 0.0361 41.443 0H41.29C41.251 0.14535 41.173 0.1824 41.173 0.2565V0.43985C41.482 0.47595 41.983 0.80655 41.983 1.13525C41.983 1.6112 41.675 2.1242 41.597 2.52605C41.52 2.89275 41.289 3.51595 41.173 3.91875C41.019 4.32155 40.865 4.83455 40.75 5.2744C40.634 5.67625 40.48 6.3726 39.979 6.33555L39.324 6.29945C39.285 6.3726 39.208 6.48185 39.208 6.5189V6.7013C39.825 6.84855 40.596 7.06705 41.213 7.2143C41.791 7.3967 42.639 7.61805 43.14 7.83655Z" fill="white"/>
<path d="M49.038 9.66911C48.884 9.66911 48.807 9.85151 48.768 9.99876C48.846 10.1451 50.157 10.9507 50.426 11.1701C50.619 11.2803 52.084 12.3785 52.084 12.3785C52.2 12.3785 52.392 12.1211 52.392 12.0859C52.392 11.7183 51.39 11.7924 52.2 10.6191C52.354 10.4377 52.586 10.1812 52.701 9.96171C52.739 9.92466 53.201 9.33851 53.24 9.30241C53.549 8.97181 54.012 8.35051 54.282 7.98381C54.397 7.80141 54.629 7.50691 54.783 7.32451C54.937 7.10506 55.13 6.84951 55.515 6.84951H55.554C55.707 6.84951 56.209 7.10506 56.209 7.10506C56.363 7.10506 56.479 6.88656 56.517 6.73931C56.055 6.51986 53.202 4.43176 53.202 4.43176H53.01C52.971 4.57711 52.894 4.61321 52.894 4.68826C52.894 4.87161 53.395 5.05401 53.395 5.56796C53.395 5.82351 52.778 6.55596 52.586 6.73931C52.315 7.06801 52.046 7.54491 51.737 7.87361C51.428 8.16716 51.159 8.67921 50.85 8.97181C50.58 9.26631 50.272 9.92466 49.809 9.92466C49.5 9.92466 49.116 9.66911 49.038 9.66911Z" fill="white"/>
<path d="M29.53 1.57513C29.839 2.12423 29.762 2.01498 29.878 2.78258C29.955 3.18633 30.07 3.62523 30.148 4.06413C30.187 4.32158 30.187 4.57713 30.225 4.76048C30.264 5.01698 30.341 5.20033 30.341 5.41883C30.379 5.85868 30.534 6.26148 30.534 6.81153C30.534 7.28843 29.994 7.46988 29.609 7.54398V7.72638C29.609 7.83563 29.648 7.87268 29.686 7.94583C30.457 7.94583 31.614 7.54303 32.307 7.54303C32.769 7.54303 34.582 7.25043 34.929 7.14023C36.394 6.62723 37.627 5.82068 37.627 3.91688C37.627 2.92698 37.165 1.75563 36.587 1.31673C36.124 0.949079 36.047 0.839829 35.43 0.621329C35.198 0.513029 34.196 0.256529 33.81 0.329679V0.293579L28.567 1.06213C28.528 1.09918 28.528 1.09918 28.528 1.20938C28.528 1.31863 28.605 1.42788 28.644 1.46588L29.53 1.57513ZM31.844 1.46493C31.844 0.988029 32.768 0.878779 33.27 0.878779C33.618 0.878779 33.733 0.988029 34.042 0.988029C34.157 1.17138 34.504 1.28158 34.697 1.64828C34.89 1.90478 35.006 2.19643 35.121 2.52608C35.314 3.11223 35.507 3.95583 35.507 4.72343C35.507 5.16328 35.314 5.49293 35.314 5.82163C34.928 6.37168 34.697 6.70133 33.849 6.84858C32.577 7.06613 32.731 6.77448 32.538 5.78458C32.422 5.09013 32.268 4.35768 32.191 3.66228C32.152 3.29558 32.036 3.00203 31.998 2.63628C31.96 2.26958 31.844 1.82973 31.844 1.53808V1.46493Z" fill="white"/>
<path d="M56.44 23.5115L56.247 24.0986C56.479 24.0616 56.556 23.8792 56.826 23.8421C57.096 23.8051 57.25 23.7319 57.559 23.7319H57.906L58.985 23.8421C59.178 23.7319 59.371 23.3662 59.64 23.3662H59.833L59.987 22.7059H59.833C59.525 22.7059 59.294 22.8532 59.1 23.0004C58.985 23.0736 59.024 23.1458 58.831 23.2569C58.677 23.3301 58.522 23.293 58.33 23.293C58.099 23.3671 57.636 23.3671 57.366 23.3671C57.057 23.3671 56.709 23.5115 56.44 23.5115Z" fill="white"/>
<path d="M63.379 47.4287C62.955 47.3917 62.492 46.6592 62.492 46.2203V45.999C62.492 45.6323 62.646 45.3777 62.723 45.0851C62.261 45.1953 62.261 45.3026 62.029 45.5962C62.029 45.7425 61.837 46.7324 61.8 46.8806C61.684 47.3185 61.529 47.6501 60.99 47.6501H60.836C60.296 47.6501 60.026 47.4658 59.64 47.4658C59.833 47.7593 60.141 48.051 60.528 48.1241C60.488 48.4908 59.333 48.4557 58.908 48.4908C59.024 48.6371 59.718 48.7483 60.026 48.7483H60.103C60.99 48.7483 61.337 48.5649 61.992 48.3825C62.416 48.2353 63.303 47.5028 63.38 47.5028L63.379 47.4287Z" fill="white"/>
<path d="M50.157 38.3828H42.523V38.8939H50.157V38.3828Z" fill="white"/>
<path d="M19.16 25.6729C19.16 25.8562 19.276 25.9664 19.43 25.9664C19.546 25.9664 19.661 25.9294 19.661 25.8211C19.661 25.7109 19.545 25.6738 19.43 25.6738L19.16 25.6729Z" fill="white"/>
<path d="M46.339 36.2216H42.523V36.6966H46.339V36.2216Z" fill="white"/>
<path d="M40.865 34.0603H38.398V34.5372H40.865V34.0603Z" fill="white"/>
<path d="M46.339 37.2827H42.523V37.7957H46.339V37.2827Z" fill="white"/>
<path d="M19.238 25.1598C19.16 25.1598 19.084 25.2329 19.084 25.307V25.3431C19.084 25.4163 19.199 25.5255 19.276 25.5255H19.43C19.507 25.5255 19.546 25.4885 19.546 25.4163V25.3802C19.546 25.2709 19.314 25.1598 19.238 25.1598Z" fill="white"/>
<path d="M55.399 34.0603C55.707 34.3919 55.823 34.5372 56.17 34.8669C56.324 34.9771 57.018 35.4169 57.211 35.453C57.211 35.2326 57.095 35.2697 57.095 35.1604V35.0132C57.095 34.903 57.095 34.8669 57.134 34.7928C57.095 34.7586 56.748 34.4631 56.709 34.3919C56.517 34.2817 56.401 34.1344 56.247 33.9872C55.977 33.6946 55.707 33.402 55.476 33.0723C55.283 32.7778 54.204 31.2398 54.204 30.9481V30.7657C54.204 30.6565 54.358 30.5833 54.358 30.3981C54.358 30.2898 54.281 30.1796 54.243 30.0323C54.32 29.9953 54.32 29.9592 54.397 29.9592H54.552C54.899 29.9592 54.783 30.1055 55.13 30.1055C54.938 29.8129 54.32 29.6656 54.32 29.4471V29.336C54.32 29.2628 54.474 29.0063 54.59 29.0063H54.783C55.13 29.0063 55.593 29.2248 55.746 29.4101C55.669 29.5915 55.515 30.2527 55.515 30.5073C55.515 31.0935 55.9 31.8991 56.247 32.1185C56.595 32.338 57.288 32.9251 57.789 32.9612C57.75 32.6325 57.558 32.7436 57.518 32.5584C57.828 32.7769 58.097 33.2538 58.406 33.5093C58.559 33.6566 59.215 34.3909 59.408 34.3909C59.484 34.3909 59.524 34.3548 59.524 34.2807C59.524 33.4751 58.329 32.6334 58.329 32.3028V32.1565C58.329 31.9361 58.407 31.7537 58.599 31.7167L58.715 31.863C58.754 31.7898 58.793 31.7537 58.793 31.6435V31.3139C58.793 30.9472 57.945 30.3971 57.906 29.9943C58.522 30.3971 59.024 30.7268 60.065 30.7268C59.834 30.5814 59.063 30.4703 59.024 30.0675C59.718 30.0675 59.91 30.2518 60.373 30.4712C60.335 29.9943 59.873 29.8129 59.679 29.5184C60.566 29.5184 60.991 29.9943 61.568 30.2888C61.568 29.6656 61.028 29.5554 61.028 29.2258C61.028 29.1526 61.105 29.0804 61.143 29.0804C61.374 29.0804 61.374 29.2999 61.49 29.374C61.49 28.5674 61.221 28.7137 61.143 28.3841C61.567 28.347 61.722 28.0174 61.876 27.6896C61.915 27.4711 61.953 27.36 62.029 27.1396C62.107 26.9572 62.3 26.846 62.339 26.7007C62.724 26.7007 62.916 26.7368 62.916 27.1757C62.916 27.3961 62.531 27.2859 62.531 27.6155C62.762 27.6526 62.878 28.3109 62.878 28.5684V28.8249C62.647 28.7878 62.685 28.6786 62.378 28.6786H62.224C62.108 28.6786 62.108 28.6786 62.03 28.7147L61.992 28.9351H62.107C62.57 28.9351 62.647 29.0443 62.916 29.1906C62.916 29.5944 62.8 29.7777 62.839 30.2907C62.877 30.7296 62.955 30.9491 63.186 31.2065C63.148 31.0222 63.032 30.913 63.032 30.6945V30.6574L63.07 30.1444C63.263 29.887 63.379 28.8619 63.379 28.385L63.417 27.2507C63.417 26.1155 62.684 25.4191 61.991 24.9802H61.837C61.914 25.0895 62.029 25.1617 62.029 25.346V25.5284C62.029 25.7488 61.837 26.0043 61.722 26.1145C61.722 25.8219 61.221 25.2719 61.028 25.2719H60.912C60.912 25.5645 60.951 25.7849 61.221 25.858C61.183 26.0404 61.105 25.9673 60.874 25.9673L61.143 26.4803C61.105 26.4803 60.912 26.333 60.912 26.333C60.796 26.333 60.372 27.1035 60.372 27.2498L60.064 27.1757C59.872 28.0183 58.946 27.872 58.792 28.0924L58.984 28.1285L58.56 28.6054L58.599 28.6415C58.715 28.5684 59.024 28.3841 59.216 28.3841H59.948C60.372 28.3841 60.835 28.7508 60.835 29.1536C60.604 29.0082 60.064 28.8239 59.678 28.8239H59.524C59.138 28.8239 58.792 29.0073 58.521 29.1175L58.367 28.2748C58.483 28.0924 58.714 28.1285 58.714 27.9813V27.7998C58.714 27.7257 58.521 27.5424 58.444 27.5424H58.328C57.981 27.5424 57.48 28.0544 57.133 27.9813V28.0915H56.67C56.439 28.0915 56.284 28.0174 56.208 27.872C56.67 27.6526 57.133 27.9091 57.711 27.5424C57.711 26.7358 57.21 25.7478 56.323 25.7478C56.014 25.7478 55.976 26.1136 55.629 26.1136H55.205C55.089 26.1136 54.781 25.821 54.588 25.821H54.434L54.356 25.6737L54.51 25.7478C54.51 25.6376 54.472 25.6006 54.472 25.5635L54.55 25.308L54.858 25.0135C55.167 25.1968 55.86 25.1227 56.323 25.1227C56.207 24.9783 55.899 24.8301 55.667 24.8301H55.243C54.935 24.8301 54.781 24.9033 54.549 24.9403L54.433 24.9033C54.587 24.3542 56.052 24.8301 56.052 24.1708H55.9V23.9504C55.9 23.769 55.784 23.7319 55.784 23.6208C55.784 23.4384 55.9 23.3652 55.977 23.255C55.861 23.1809 55.63 23.0726 55.668 22.8522L55.706 22.4855C55.784 22.4124 55.861 22.3753 55.938 22.2661C56.169 22.0466 56.054 22.1929 56.246 22.0837C56.054 22.0837 55.553 22.1198 55.553 21.9735C55.553 21.3873 55.9 21.204 56.555 21.204C56.478 21.0947 56.439 20.9855 56.246 20.9855H55.822C55.668 20.9855 55.475 21.0947 55.398 21.1669C55.436 21.0216 55.745 20.8373 55.822 20.8373H55.976C56.785 20.8373 57.518 21.4956 57.518 22.2661V22.8883C57.518 22.9985 57.48 23.0346 57.48 23.1448C57.596 22.9995 57.789 22.6328 57.789 22.4124V22.1559C57.789 21.3854 57.057 20.6178 56.208 20.6178H56.13C55.938 20.6178 55.591 20.691 55.475 20.7632L55.514 12.559C55.36 12.596 55.321 12.596 55.205 12.6682C55.013 12.7423 54.974 12.6682 54.819 12.7423C54.549 12.7784 54.356 12.8525 54.087 12.9257C53.586 13.034 53.046 13.1071 52.545 13.1822C51.774 13.3285 50.155 13.4748 49.23 13.4748H47.996C46.492 13.4748 43.524 12.4868 42.368 12.0469C41.52 11.7163 40.671 11.3876 39.862 11.0209C39.477 10.8756 38.976 10.6913 38.628 10.5079C38.551 10.4357 37.433 9.92273 37.433 9.92273C37.433 9.92273 35.66 10.7283 35.544 10.8024C35.313 10.9126 34.811 11.1321 34.542 11.2052C34.388 11.2784 34.233 11.3154 34.079 11.4247C33.848 11.5339 33.771 11.5339 33.54 11.6071C32.922 11.8645 29.993 12.9979 29.338 12.9979C29.068 13.1822 27.295 13.4748 26.794 13.4748H25.598C24.442 13.4748 23.324 13.3294 22.283 13.1822C21.203 13.072 20.278 12.7784 19.314 12.559V13.3294L19.354 20.7632C19.276 20.7261 18.93 20.6178 18.775 20.6178H18.467C17.812 20.6178 17.041 21.4605 17.041 22.0827V22.3383C17.041 22.5957 17.233 23.0717 17.349 23.1448L17.272 22.4124C17.195 21.6429 18.043 20.8373 18.814 20.8373H18.969C19.123 20.8373 19.354 21.0206 19.431 21.1308L19.392 21.1669L19.354 21.1308L19.314 21.0947C19.314 21.0947 19.238 21.0577 19.198 21.0577C19.122 21.0216 19.044 20.9855 18.929 20.9855H18.582C18.389 20.9855 18.312 21.0577 18.274 21.204C18.891 21.204 19.276 21.3864 19.276 21.9364C19.276 22.1198 18.813 22.0837 18.582 22.0837C18.852 22.229 19.16 22.4133 19.16 22.7781V22.8883C19.16 23.0346 18.968 23.1809 18.851 23.255C18.929 23.3652 19.006 23.3652 19.006 23.5476V23.5847C19.006 23.8782 18.851 23.8782 18.929 24.1708H18.736L18.775 24.3893C19.123 24.4634 19.084 24.5366 19.624 24.5736C19.932 24.6097 20.279 24.6829 20.395 24.8662L20.279 24.9394C20.048 24.9023 19.855 24.8292 19.624 24.8292H19.354C19.007 24.8292 18.544 24.9394 18.467 25.1588C18.814 25.0125 19.585 25.269 19.97 25.0125C20.086 25.1588 20.356 25.232 20.356 25.5255C20.356 25.5987 20.317 25.6718 20.279 25.7089L20.318 25.7459L20.473 25.6718L20.395 25.8191H20.24C20.047 25.8191 19.7 26.1117 19.584 26.1117H19.198C18.851 26.1117 18.813 25.7459 18.505 25.7459C17.657 25.7459 17.117 26.6978 17.117 27.4683C17.117 27.8331 18.351 27.7238 18.621 27.8701C18.544 27.9794 18.351 28.0896 18.159 28.0896H17.658L17.697 28.0155L17.658 27.9794L17.619 28.0155H17.503L17.387 27.9433C17.233 27.8331 17.271 27.8701 17.117 27.7979C17.002 27.7609 16.694 27.5405 16.578 27.5405H16.385C16.308 27.5405 16.077 27.7599 16.077 27.8331V27.8701C16.077 28.0525 16.307 28.1998 16.462 28.2368L16.308 29.1156C16.038 29.0063 15.691 28.822 15.306 28.822H15.114C14.651 28.822 14.266 29.0054 13.957 29.1517C14.072 28.7118 14.419 28.3822 14.998 28.3822H15.615C15.846 28.3822 16.078 28.6026 16.27 28.6026L15.884 28.1627L15.846 28.1988V28.1257L16.039 28.0525L15.23 27.8331C15.075 27.6136 14.806 27.5775 14.767 27.1738H14.574V27.2479H14.458L13.996 26.295L13.649 26.4784L13.919 25.9654L13.572 25.9283C13.688 25.783 13.764 25.8922 13.842 25.6718C13.919 25.5255 13.88 25.4153 13.958 25.232C13.572 25.3061 13.109 25.7089 13.109 26.1117C12.955 26.0015 12.762 25.6357 12.762 25.3792C12.762 25.1959 12.916 25.0857 12.993 24.9764H12.839C12.145 25.4153 11.412 26.0746 11.412 27.1728L11.45 27.2099V28.31C11.45 28.7859 11.528 29.1165 11.566 29.4823C11.605 29.9221 11.798 30.1416 11.798 30.5444C11.798 30.874 11.644 31.0194 11.644 31.2037L11.875 30.8731C11.875 30.6166 11.99 30.4703 11.99 30.1406V29.7739C11.99 29.5535 11.913 29.4082 11.875 29.2239C12.222 29.0054 12.261 28.9313 12.839 28.9313C12.839 28.8211 12.8 28.6738 12.646 28.6738H12.53C12.222 28.6738 12.106 28.8201 11.99 28.8201C11.952 28.8201 11.913 28.7831 11.913 28.7099C11.913 28.3071 12.106 28.0145 12.144 27.6488L12.298 27.6117C12.298 27.3932 12.067 27.2821 11.874 27.246C11.874 27.0626 12.028 26.6598 12.221 26.6598C12.992 26.6598 12.761 28.3071 13.686 28.3812C13.609 28.7109 13.339 28.4544 13.339 29.3711C13.416 29.2609 13.493 29.0776 13.686 29.0776C13.725 29.0776 13.801 29.1498 13.801 29.1859C13.801 29.5896 13.261 29.6257 13.261 30.2499C13.415 30.2499 13.801 29.9554 13.916 29.8822C14.07 29.773 14.417 29.6628 14.611 29.5516L15.15 29.5155C14.957 29.81 14.456 30.0646 14.418 30.5045C14.765 30.286 15.15 30.0646 15.729 30.0646C16.038 30.0646 15.459 30.4313 15.42 30.4313C15.304 30.5045 14.919 30.6517 14.881 30.7249C15.343 30.7249 15.69 30.6527 16.037 30.5054C16.23 30.3952 16.268 30.3601 16.461 30.2499C16.577 30.2128 16.846 30.0295 16.924 29.9924C16.77 30.5795 15.999 30.8721 15.999 31.4583C15.999 31.6407 16.038 31.7148 16.077 31.8611C16.115 31.8611 16.269 31.7518 16.269 31.7518C16.423 31.7518 16.5 32.0444 16.5 32.1917V32.2648C16.5 32.6676 15.305 33.4362 15.305 34.2788V34.389C15.614 34.389 16.231 33.7658 16.385 33.5815C16.617 33.288 16.964 32.775 17.272 32.5935L17.002 32.9232L17.041 32.9593C17.966 32.7417 19.276 31.7879 19.276 30.6897V30.2499C19.276 29.8822 19.084 29.5896 19.084 29.4072C19.084 29.2229 19.777 29.0035 20.086 29.0035H20.24C20.317 29.0035 20.51 29.297 20.51 29.3331V29.4433C20.51 29.5516 20.24 29.7359 20.124 29.773C19.893 29.8822 19.815 29.9193 19.7 30.1026C20.009 30.1026 19.97 29.9563 20.356 29.9563C20.472 29.9563 20.51 29.9924 20.587 30.0295C20.548 30.1758 20.472 30.2499 20.472 30.3952C20.472 30.6527 20.741 30.6907 20.587 31.1277C20.51 31.2369 20.317 31.4944 20.24 31.7138C20.124 31.9713 19.662 32.5935 19.508 32.8481C19.199 33.2519 18.969 33.5065 18.659 33.8751C18.505 34.0565 18.351 34.1677 18.197 34.352C18.121 34.4232 17.735 34.7548 17.697 34.789L17.735 35.0844V35.1205C17.735 35.1576 17.619 35.4141 17.581 35.4502C17.812 35.4141 18.467 35.0103 18.622 34.864C18.931 34.6075 19.162 34.3529 19.432 34.0575C19.432 34.5344 19.393 35.89 19.471 36.2928C19.509 36.4382 19.548 37.1725 19.548 37.3549C19.548 37.7207 19.664 38.0494 19.664 38.4161C19.664 38.7837 19.972 40.0273 20.126 40.2847C20.242 40.5773 20.319 40.8329 20.474 41.0913C20.589 41.3098 20.782 41.6755 20.898 41.8608C21.09 42.3367 22.517 44.2776 22.864 44.5702C23.249 44.9369 23.673 45.3767 24.058 45.7415C24.251 45.9258 24.521 46.0712 24.714 46.2555C24.945 46.4369 25.215 46.5851 25.408 46.7685C25.484 46.8397 25.986 47.2064 26.101 47.2425C26.295 47.3527 26.564 47.6111 26.757 47.7565C27.258 48.0491 27.721 48.4167 28.222 48.6723C28.376 48.7454 28.801 49.0019 28.954 49.1121C29.146 49.2936 29.455 49.4418 29.686 49.589C30.187 49.8816 30.727 50.1362 31.189 50.4659C32.153 51.053 33.271 51.603 34.273 52.1512C35.314 52.7373 36.355 53.2142 37.435 53.7624C37.589 53.617 37.975 53.4688 38.206 53.3586C38.36 53.2855 38.476 53.2513 38.591 53.1772C38.706 53.1411 38.862 53.0309 38.978 52.9568C39.517 52.7012 40.018 52.4457 40.557 52.1512C41.02 51.8576 41.598 51.566 42.099 51.3076C42.639 51.015 43.101 50.7604 43.641 50.4649C44.142 50.1723 44.643 49.8807 45.106 49.5881C45.26 49.4779 45.723 49.2565 45.838 49.1482C45.992 49.038 46.417 48.7445 46.57 48.6713C47.11 48.3787 47.534 48.0481 48.035 47.7555C48.382 47.537 49.154 47.0231 49.423 46.7675C49.539 46.6203 49.885 46.3989 50.078 46.2545C50.309 46.0702 50.502 45.961 50.733 45.7406C50.926 45.5572 51.119 45.3378 51.349 45.1934C51.465 45.1193 51.773 44.7535 51.967 44.6063C52.237 44.3878 53.778 42.2256 53.933 41.8598C54.011 41.6394 54.241 41.3459 54.356 41.1274C54.472 40.8699 54.587 40.5773 54.703 40.3199C54.935 39.8088 55.012 39.0763 55.127 38.4161C55.361 37.1744 55.399 35.5262 55.399 34.0603ZM59.91 27.9803V27.9442L60.257 27.9803C60.296 27.9442 60.642 27.5785 60.72 27.5414C60.797 27.4692 60.951 27.1016 60.99 26.9553C61.105 26.9923 61.143 27.0294 61.143 27.1738V27.3581L61.374 27.2479L61.412 27.5414C61.451 27.7989 61.142 28.1998 60.989 28.31C60.642 28.1266 60.449 27.9803 59.91 27.9803ZM56.787 31.6435C56.942 31.35 56.98 30.6926 57.328 30.6926L57.25 31.2046V31.4972C57.25 31.7908 57.328 31.9741 57.405 32.2297L56.787 31.6435ZM57.635 28.3461L58.252 27.9442C58.252 28.4933 57.712 28.9332 57.481 29.373C57.365 29.6656 56.787 30.6555 56.748 30.874C56.671 30.7999 56.632 30.6926 56.632 30.5444C56.632 29.7749 57.674 29.0795 57.674 28.6396V28.4933C57.674 28.3831 57.674 28.3831 57.635 28.3461ZM55.438 26.5525C55.516 26.5895 55.862 26.771 55.939 26.771C56.131 26.771 55.823 26.4413 55.785 26.3682C55.862 26.295 55.978 26.1117 56.094 26.1117H56.518C56.749 26.1117 57.135 26.6608 57.135 26.8812V26.9182C57.135 27.1738 56.904 27.4312 56.633 27.4312H56.556C56.247 27.4312 56.209 27.0284 55.901 26.9914C55.978 27.1006 55.94 27.3581 55.708 27.2479V27.5044C55.863 27.5785 56.056 27.6877 56.056 27.9442C56.056 28.0535 56.017 27.9803 56.017 28.1266C56.171 28.309 56.518 28.4563 56.865 28.4563H57.019C57.135 28.4563 57.135 28.4563 57.212 28.4202C57.212 28.7498 56.518 29.7758 56.325 29.8129C56.325 30.1055 56.094 30.1055 56.094 30.4712V30.6175C56.094 31.0564 56.556 31.2388 56.556 31.4963C56.286 31.35 55.978 30.9842 55.978 30.5814C55.978 30.1777 56.209 30.0314 56.209 29.8119V29.6647C56.209 29.1878 55.785 28.8952 55.438 28.7118V26.5525ZM13.84 28.31C13.647 28.2007 13.416 27.8711 13.416 27.5785V27.5044C13.416 27.3951 13.455 27.359 13.455 27.2479L13.686 27.3581V27.1738C13.686 27.0294 13.725 26.9923 13.801 26.9553C13.878 26.9923 14.071 27.6136 14.572 27.9442H14.881V27.9803C14.457 27.9803 14.11 28.1637 13.84 28.31ZM18.004 31.6435L17.386 32.2667C17.464 32.0093 17.617 31.6796 17.579 31.35L17.501 30.6926C17.848 30.7277 17.887 31.387 18.041 31.6796L18.004 31.6435ZM18.158 30.6926C18.158 30.7999 18.158 30.7999 18.12 30.874C17.927 30.7648 17.502 29.7027 17.348 29.4101C17.117 29.0063 16.577 28.4563 16.577 27.9442L17.194 28.31C17.156 28.3831 17.156 28.3831 17.156 28.4933V28.6396C17.156 29.1156 18.158 29.7749 18.158 30.362V30.6926ZM19.392 28.7128C19.045 28.8961 18.582 29.2258 18.582 29.6656C18.582 29.9592 18.852 30.2527 18.852 30.5083C18.852 30.9481 18.582 31.3148 18.274 31.4611C18.312 31.2407 18.736 31.0203 18.736 30.5453C18.736 29.8129 17.618 29.0804 17.618 28.4572H17.965C18.274 28.4572 18.697 28.347 18.774 28.1276C18.813 28.0174 18.697 27.8711 18.89 27.6887C19.044 27.5053 19.121 27.5794 19.121 27.2488L18.967 27.2849L18.889 27.2118L18.928 26.9933C18.657 27.0303 18.504 27.4331 18.311 27.4331H18.234C17.926 27.4331 17.695 27.2127 17.695 26.9201V26.809C17.695 26.6266 18.081 26.1136 18.35 26.1136H18.697C18.774 26.1136 19.006 26.3321 19.006 26.4062C19.006 26.4803 18.658 26.7729 18.89 26.7729C18.968 26.7729 19.313 26.5914 19.391 26.5544L19.392 28.7128ZM36.933 52.2262C36.663 52.1531 35.814 51.642 35.429 51.4938C35.005 51.2753 34.427 50.9067 34.003 50.6872C33.502 50.4317 33.039 50.2113 32.577 49.8816C32.422 49.8085 31.96 49.552 31.805 49.5149C31.767 49.4788 31.151 49.1121 31.112 49.0751C30.687 48.8176 30.148 48.4889 29.724 48.2324C29.377 48.0852 28.567 47.5741 28.337 47.3527C28.259 47.3166 27.72 46.9499 27.642 46.9499C27.526 46.8787 27.102 46.5471 26.987 46.474C26.562 46.1443 26.099 45.8156 25.676 45.5221C25.521 45.4119 24.557 44.6433 24.481 44.4961C24.365 44.3878 23.94 44.0562 23.864 43.9831C23.787 43.8007 23.478 43.5451 23.363 43.3618C23.016 42.958 22.746 42.5182 22.438 42.0783C22.09 41.6755 21.859 41.1274 21.59 40.6885C20.588 39.1134 20.626 35.4872 20.626 32.8861V31.7148C20.626 31.5314 20.896 30.6536 20.973 30.3952H36.934L36.933 52.2262ZM36.933 29.4823H20.896C20.896 29.1517 20.857 28.7498 20.587 28.6757V25.5265C20.896 25.4533 20.857 25.1598 21.011 25.0505V29.0424H21.396L21.435 26.5525H22.938L22.978 29.0424H23.402H36.587V19.5937H27.18V20.9133H25.483C25.483 21.0225 25.483 21.0957 25.599 21.0957H27.18V22.9643H27.102V21.1318H25.599V21.9744L24.482 21.279L24.25 21.242C24.25 21.242 22.708 22.1578 22.592 22.267C22.361 22.4133 20.973 23.1458 20.973 23.2921V23.8421H27.18V23.9153H20.973V24.1718H27.18V24.2449H20.973V24.4644H27.18V24.5746H21.012V24.9774L20.588 24.7199L20.51 14.0277C22.052 14.3573 24.288 14.649 26.138 14.649H26.293C27.757 14.649 29.185 14.2462 30.378 13.9536C31.034 13.7712 31.574 13.5508 32.191 13.3684C32.614 13.2221 33.579 12.8924 33.886 12.7091H34.041L36.932 11.4275L36.933 29.4823ZM26.293 27.0294V28.1266H25.521V27.0294H26.293ZM25.521 26.9553V25.821H26.293V26.9553H25.521ZM27.179 27.0294V28.1637H26.37V27.0294H27.179ZM26.37 26.9553V25.821H27.179V26.9553H26.37ZM30.957 24.5014V27.4692H28.837V24.5014H30.957ZM28.837 24.3181V21.3531H30.957V24.3181H28.837ZM33.232 24.5014V27.4692H31.112V24.5014H33.232ZM31.112 24.3181V21.3531H33.232V24.3181H31.112ZM37.896 11.4266C38.629 11.7933 39.478 12.159 40.287 12.4516C40.672 12.634 41.097 12.8183 41.482 12.9646C41.867 13.11 42.33 13.2211 42.716 13.4026C43.757 13.8424 46.841 14.649 48.267 14.649H48.576C49.579 14.649 50.697 14.5777 51.584 14.4675C52.007 14.3934 52.586 14.3573 53.01 14.2832C53.279 14.211 54.089 14.0647 54.321 14.0277L54.244 24.6487L53.82 25.0144C53.859 25.1607 54.014 25.4904 54.206 25.5274V28.6767C54.014 28.7128 53.936 29.1165 53.936 29.373V29.4823H37.896V11.4266ZM54.204 33.1806C54.204 33.915 54.165 34.5733 54.165 35.2687C54.165 35.8558 54.165 36.8068 54.088 37.3568C53.973 37.9781 53.973 38.6393 53.779 39.2236C53.587 39.8468 53.471 40.2505 53.163 40.7977C52.971 41.2015 52.585 41.8247 52.315 42.1543C52.238 42.3016 51.929 42.6673 51.852 42.7756C51.775 42.959 51.775 42.959 51.622 43.1072C51.544 43.2525 51.506 43.3257 51.39 43.4368C50.735 44.2063 49.886 44.9378 49.077 45.5591C48.652 45.8907 48.266 46.1823 47.804 46.512C47.65 46.5861 47.226 46.9148 47.149 46.9518C47.033 46.9889 46.57 47.3185 46.454 47.3917C46.378 47.4648 45.915 47.7584 45.799 47.8315C45.568 47.9417 45.298 48.1241 45.105 48.2714C44.642 48.5269 44.063 48.7844 43.678 49.077C43.601 49.1511 43.061 49.4807 43.023 49.5168C42.792 49.5909 42.792 49.5909 42.637 49.6992C42.483 49.8094 42.406 49.8094 42.252 49.8826C42.021 50.064 41.133 50.5409 40.825 50.6882C40.44 50.8354 39.745 51.3465 39.399 51.4947C38.976 51.642 38.242 52.116 37.895 52.2272V30.3971H53.856L53.934 30.874C53.973 30.9472 54.204 31.5324 54.204 31.6435V33.1806Z" fill="white"/>
<path d="M51.66 32.0825H50.195H47.303H41.559H38.398V32.9612H41.521V49.8446C41.637 49.8085 41.791 49.8085 41.791 49.6632V32.9612H51.853V41.8618C52.085 41.7145 53.01 39.9209 53.01 39.4811V32.1927C53.009 32.0084 51.891 32.0825 51.66 32.0825Z" fill="white"/>
<path d="M50.156 34.0603H46.648V37.7967H50.156V34.0603Z" fill="white"/>
<path d="M46.339 34.0603H42.523V34.5733H46.339V34.0603Z" fill="white"/>
<path d="M42.523 47.5019H45.491C45.568 47.5019 46.147 47.0991 46.224 47.025H42.523V47.5019Z" fill="white"/>
<path d="M42.523 46.4389H47.072C47.188 46.4389 47.69 46.0361 47.804 45.9639H42.523V46.4389Z" fill="white"/>
<path d="M50.157 39.4821H42.523V39.958H50.157V39.4821Z" fill="white"/>
<path d="M42.523 45.3777H48.537C48.653 45.3777 49.155 44.9379 49.231 44.8638H42.523V45.3777Z" fill="white"/>
<path d="M42.523 48.6362H43.641C43.719 48.6362 44.489 48.1603 44.527 48.0862H42.523V48.6362Z" fill="white"/>
<path d="M50.157 41.6062H42.523V42.1173H50.157V41.6062Z" fill="white"/>
<path d="M50.157 40.5431H42.523V41.019H50.157V40.5431Z" fill="white"/>
<path d="M50.157 42.7043H42.523V43.2154H50.157V42.7043Z" fill="white"/>
<path d="M42.523 44.2785H49.886C50.079 44.2785 49.926 44.1683 50.157 44.0952V43.8016H42.523V44.2785Z" fill="white"/>
<path d="M46.339 35.1234H42.523V35.6345H46.339V35.1234Z" fill="white"/>
<path d="M67.196 51.3836C67.119 51.3836 67.196 51.3836 67.119 51.4206C67.196 51.7132 67.581 51.7132 67.581 52.1151V52.1521C67.581 52.2623 67.35 52.3725 67.234 52.3725H66.733C66.463 52.3725 66.271 52.2984 66.117 52.1882L66.541 52.078L66.579 51.6771C66.656 51.1641 65.615 50.3215 65.307 49.9928L65.345 50.2854C65.383 50.3595 65.537 50.6521 65.537 50.7623V50.9067C65.537 51.0169 65.422 51.2382 65.307 51.2382H65.114C64.458 51.2382 64.228 50.7252 63.919 50.5048C63.919 51.2021 64.073 51.2762 64.381 51.6781C64.535 51.8595 65.152 52.1892 65.537 52.1892C65.768 52.629 66.617 53.1791 67.272 53.1791H67.503C67.889 53.1791 68.39 52.9587 68.39 52.5929C68.391 52.078 67.581 51.3836 67.196 51.3836Z" fill="white"/>
<path d="M70.665 52.0068C70.742 51.9698 70.782 51.8966 70.936 51.8966C71.013 51.8966 71.089 51.9698 71.089 52.0068C71.089 52.5179 70.473 52.5179 70.435 52.9217C70.897 52.8134 72.053 52.2994 72.053 51.7864V51.4938C71.9 51.4938 71.977 51.4568 71.822 51.4568C71.282 51.4568 70.782 51.604 70.665 52.0068Z" fill="white"/>
<path d="M70.435 52.4466C70.435 52.0067 69.432 51.8595 68.893 51.8595H68.623C68.545 51.8595 68.507 51.8965 68.507 51.9336C68.777 51.9697 69.317 52.1891 69.317 52.4466V52.5919C69.317 52.8845 68.584 53.0679 68.391 53.2151C69.047 53.2151 70.435 52.9947 70.435 52.4817V52.4466Z" fill="white"/>
<path d="M65.191 49.1863L64.689 49.2946C64.728 48.8918 65.036 48.8918 65.036 48.6001V48.3436C64.227 48.4177 64.111 49.039 63.379 49.039C63.263 49.039 63.225 49.002 63.109 49.002C63.07 49.0751 63.032 49.1122 63.032 49.2224V49.4409C63.032 49.5511 63.379 50.028 63.495 50.0992C64.266 50.0299 65.191 49.9558 65.191 49.1863Z" fill="white"/>
<path d="M64.381 48.3816L65.036 47.7584C65.036 47.4648 65.152 47.5019 65.152 47.2444V47.1732C65.152 46.9528 65.075 46.8416 65.036 46.6602C64.651 46.7704 63.88 48.1241 62.915 48.1612V48.2343C63.108 48.2714 63.378 48.4908 63.648 48.4908C63.996 48.4899 64.073 48.3816 64.381 48.3816Z" fill="white"/>
<path d="M74.444 47.7203H74.404C74.096 47.7203 73.826 47.9037 73.826 48.1972V48.563C74.096 48.5259 74.019 48.4186 74.096 48.2704C74.212 48.1231 74.366 48.2333 74.636 48.2333L74.598 48.6732C74.868 48.6 74.714 48.563 74.829 48.4176V48.1972C74.713 48.05 74.675 47.7203 74.444 47.7203Z" fill="white"/>
<path d="M20.086 25.5265C20.086 25.4172 20.009 25.4172 19.931 25.3811L19.661 25.4172V25.6367C19.738 25.6728 19.738 25.6728 19.853 25.6728H20.085V25.5265H20.086Z" fill="white"/>
<path d="M72.285 50.7253C72.093 50.8355 71.668 51.0549 71.629 51.3095C71.9 51.3095 71.9 51.2383 72.13 51.2383H72.246V51.642C72.246 51.8976 72.13 51.8596 72.13 52.1531C72.323 52.0448 72.747 51.642 72.747 51.3836V51.091C72.747 50.9438 72.631 50.8345 72.593 50.6873L72.285 50.7253Z" fill="white"/>
<path d="M14.65 48.7474C15.035 48.7474 15.729 48.6743 15.922 48.49C15.421 48.49 14.457 48.4548 14.265 48.1974C14.341 48.0862 14.573 48.0501 14.766 47.9038C14.92 47.7205 15.036 47.6834 15.151 47.464C14.881 47.5381 14.341 47.6482 14.071 47.6482H13.801C13.416 47.6482 13.223 47.3908 13.069 47.1714C13.069 47.0241 12.876 46.0713 12.838 45.8889C12.722 45.449 12.607 45.1194 12.067 45.0833C12.144 45.1935 12.298 45.5944 12.298 45.7777V46.1805C12.298 46.6945 11.913 47.3889 11.449 47.4269V47.5001C11.489 47.5001 11.951 47.9028 12.028 47.9769C12.144 48.0482 12.607 48.3066 12.76 48.3427C13.146 48.5242 13.993 48.7455 14.533 48.7455H14.65V48.7474Z" fill="white"/>
<path d="M74.25 48.6732H73.942C73.826 48.6732 73.633 48.8547 73.556 48.9297C73.518 48.9658 73.326 49.3325 73.326 49.3325C73.326 49.4427 73.402 49.4427 73.48 49.4798C73.556 49.3325 73.634 49.1862 73.865 49.1862H73.904C74.02 49.1862 74.135 49.2233 74.135 49.3316V49.552C74.135 49.6973 73.982 49.9187 73.982 50.0631V50.1001C73.982 50.2103 73.982 50.2103 74.02 50.2835C74.174 50.0631 74.559 49.551 74.559 49.1853C74.559 49.0029 74.404 48.6732 74.25 48.6732Z" fill="white"/>
<path d="M55.129 51.9697C55.206 51.9697 55.399 52.2633 55.437 52.3364H56.208C56.362 52.3364 56.478 52.2633 56.478 52.116C56.362 52.116 56.324 52.1531 56.208 52.1531H56.054C55.823 52.1531 55.592 51.9707 55.592 51.7493C55.592 51.5318 56.246 51.8234 56.246 51.5679C56.246 51.3475 55.861 51.4947 55.861 51.3475C55.861 51.2031 56.401 51.0178 56.594 51.0178V50.9447C56.478 50.9076 56.478 50.8734 56.324 50.8734H56.093C56.016 50.8734 56.016 50.9076 55.939 50.9447L55.477 50.9817C55.554 50.6882 55.901 50.6521 56.248 50.6521L56.326 50.5048L56.056 50.3604L56.673 50.103C56.596 49.9947 56.365 49.7733 56.133 49.7733H56.056C55.478 49.7733 55.169 50.4678 54.938 50.8734C55.284 50.8734 55.091 51.0919 55.362 51.166L54.976 52.0087C55.09 51.9697 55.052 51.9697 55.129 51.9697ZM56.055 49.9196C56.171 49.9196 56.247 49.9928 56.286 50.064L55.631 50.1372C55.669 49.9928 55.862 49.9196 56.055 49.9196Z" fill="white"/>
<path d="M59.794 48.9297H59.215C59.446 49.9196 61.027 49.626 61.528 50.3594L61.673 50.4611C61.7 50.4259 61.722 50.4117 61.722 50.3594V50.102C61.722 49.5529 60.449 48.9297 59.794 48.9297Z" fill="white"/>
<path d="M54.937 25.3811H54.898C54.743 25.3811 54.705 25.5265 54.705 25.6737H55.014C55.129 25.6737 55.168 25.5635 55.168 25.4904C55.168 25.4172 55.014 25.3811 54.937 25.3811Z" fill="white"/>
<path d="M55.322 25.9664C55.554 25.9664 55.669 25.8933 55.669 25.6729H55.399C55.283 25.6729 55.168 25.7099 55.168 25.8201C55.168 25.8933 55.283 25.9664 55.322 25.9664Z" fill="white"/>
<path d="M55.707 25.271C55.707 25.1978 55.669 25.1608 55.593 25.1608H55.515C55.437 25.1608 55.283 25.308 55.283 25.3812V25.4173C55.283 25.4895 55.322 25.5265 55.399 25.5265H55.553C55.63 25.5265 55.706 25.4534 55.706 25.3812L55.707 25.271Z" fill="white"/>
<path d="M61.528 50.3595L60.912 50.1382V50.1752C61.028 50.3956 61.183 50.4678 61.183 50.7253V50.8725C61.183 51.0169 61.028 50.9438 60.912 51.1651C60.179 51.1651 59.409 51.3836 58.907 51.642C58.753 51.7494 58.252 52.0448 58.175 52.1531C58.021 52.2994 57.713 52.7032 57.519 52.7393C57.443 52.4467 57.405 52.3365 57.018 52.3365C57.057 52.4467 57.096 52.555 57.096 52.7032V52.7393C57.096 52.8846 56.865 52.9958 56.672 52.9958H56.48L55.594 52.9226C55.516 52.9226 55.284 52.9587 55.284 53.0328C55.284 53.143 55.362 53.1791 55.477 53.2162V53.3976C55.707 53.3976 55.824 53.5078 56.132 53.5078H56.518C57.212 53.5078 57.52 53.1421 57.906 52.9217C58.022 52.8846 59.024 52.1151 59.063 52.0781C59.217 52.0781 59.641 51.9337 59.756 51.8596C59.987 51.7864 60.257 51.7494 60.488 51.6781C60.836 51.605 61.722 51.3466 61.722 51.0549V50.7253C61.722 50.6151 61.683 50.578 61.644 50.5049C61.652 50.4906 61.66 50.4811 61.668 50.4678H61.644L61.528 50.3595Z" fill="white"/>
<path d="M55.438 52.8494C55.708 52.8494 55.901 52.7031 56.325 52.7031C56.247 52.5929 56.094 52.4095 55.939 52.4095H55.707C55.437 52.4095 55.129 52.5549 55.129 52.8133C55.245 52.8133 55.283 52.8494 55.399 52.8494H55.438Z" fill="white"/>
<path d="M61.684 50.4672L61.673 50.4612L61.668 50.4672H61.684Z" fill="white"/>
<path d="M73.595 49.6632L73.48 49.6983L73.364 49.6261C73.171 49.8446 72.478 49.9928 72.438 50.577C72.631 50.577 72.823 50.3956 73.016 50.3956C73.171 50.3956 73.171 50.5409 73.171 50.6882C73.171 51.128 72.94 51.2022 72.862 51.4948C73.132 51.3105 73.788 50.7993 73.788 50.3965V50.2493L73.749 49.8465L73.595 49.6632Z" fill="white"/>
<path d="M33.309 13.4777C32.847 13.7351 32.461 14.0638 31.998 14.2833V13.8795L31.304 14.137C31.034 14.137 29.878 14.5398 29.492 14.612C28.952 14.7583 28.875 14.5398 28.875 15.124V16.2593L25.945 18.1289H36.586V13.9897C36.586 13.8795 34.928 12.9286 34.736 12.8184C34.505 12.9647 34.273 12.9998 34.003 13.111C33.694 13.2582 33.579 13.3314 33.309 13.4777Z" fill="white"/>
<path d="M42.369 55.8153H42.254C41.29 55.8153 40.557 57.208 40.557 58.1951C40.557 58.9275 40.982 59.6619 41.714 59.6619C42.601 59.6619 43.411 58.3053 43.411 57.3895V57.208C43.411 56.8043 43.257 56.5478 43.102 56.2913C43.024 56.144 42.6 55.8153 42.369 55.8153ZM42.639 57.3524C42.639 58.0127 42.292 59.4035 41.713 59.4035H41.675C41.444 59.4035 41.29 58.671 41.29 58.4155V58.121C41.29 57.4626 41.675 56.0718 42.254 56.0718C42.6 56.0718 42.639 56.8784 42.639 57.2071V57.3524Z" fill="white"/>
<path d="M47.303 54.4607V54.3144C47.303 54.0579 47.92 54.2403 48.152 54.2403C48.267 54.2403 48.421 54.1301 48.421 54.0218C48.421 53.8384 48.229 53.5819 47.997 53.5819C47.573 53.5819 47.535 53.7643 47.303 53.8004C47.265 54.0208 46.994 54.0959 46.994 54.4607V54.9357C46.994 55.2653 47.38 55.632 47.612 55.7783C47.766 55.8515 47.92 55.9987 48.074 56.0728C48.305 56.1811 48.228 56.2543 48.497 56.4025C48.497 56.621 48.574 56.621 48.574 56.8053V56.8423C48.574 56.9877 48.42 57.0988 48.227 57.0988C47.958 57.0988 47.88 56.9886 47.688 56.9516C47.495 56.9516 47.301 57.1349 47.301 57.2831C47.301 57.4646 47.533 57.6128 47.726 57.6128H47.842C48.496 57.6128 48.959 57.0257 48.959 56.4044C48.961 55.3014 47.303 54.8274 47.303 54.4607Z" fill="white"/>
<path d="M40.209 63.5066H39.709C39.4 63.5066 38.977 62.9223 38.977 62.6639V62.3343C38.977 61.8213 39.4 61.3102 39.939 61.3102C40.286 61.3102 40.671 61.5657 40.71 61.8574H40.787L40.71 61.2361L40.286 61.2H39.593C39.246 61.2 38.59 61.8213 38.59 62.2241V62.7371C38.59 62.9214 38.861 63.214 38.977 63.3242C39.207 63.5797 39.4 63.5056 39.593 63.6538H40.171C40.595 63.3964 40.865 63.9094 40.942 62.9214C40.711 62.9565 40.633 63.5066 40.209 63.5066Z" fill="white"/>
<path d="M21.435 35.8188C21.435 35.892 21.474 36.0003 21.589 36.0003H26.755V36.0734H21.898V39.3709C21.898 39.7005 22.244 40.2506 22.36 40.5422C22.438 40.7626 22.938 41.3849 22.978 41.5682H26.756V41.6765H23.054L23.285 42.0062H26.716V42.0793H23.362C23.439 42.2266 24.017 43.0692 24.172 43.0692H24.79V43.7646C24.79 43.8748 25.098 44.1304 25.213 44.1674V43.0692H26.331V44.6804H25.83C25.869 44.7545 25.869 44.7906 25.985 44.7906H26.332V45.0471C26.332 45.1573 26.332 45.1203 26.409 45.1573V44.7906H26.717V45.3388C26.717 45.4119 27.989 46.3287 28.067 46.3287H34.08V44.7906H34.543V46.3657H33.734V46.437H28.259C28.337 46.5472 28.76 46.8398 28.915 46.8398H33.734V46.95H29.03C29.108 47.0602 30.688 48.0482 30.842 48.0482H32.115V48.7816C32.115 48.8899 32.153 48.8528 32.231 48.8899V48.0472H33.58V49.6233C33.58 49.7316 33.965 49.8798 34.08 49.9529V49.0001H34.543V50.1344C34.543 50.2446 34.543 50.2085 34.621 50.2446V48.9991H35.777V50.6103H35.315C35.392 50.6474 35.431 50.6835 35.586 50.6835H35.778V50.7937C35.778 50.902 36.048 51.0122 36.164 51.0502V50.6835H36.665V50.6103H36.164V48.9991H36.665V48.0824H34.08V48.0111H36.663V47.6796H34.08V47.5713H36.663V46.3638H36.162V44.7887H36.663V44.6785H36.162V43.0673H36.663V42.0774H34.08V42.0043H36.663V41.6746H34.08V41.5663H36.663V40.4662H36.162V38.855H36.663V38.7477H36.162V37.1726H36.663V36.0725H34.08V35.9993H36.663V35.378H34.08V32.3741H26.756V35.378H21.397V35.7077H21.475C21.474 35.7457 21.435 35.8188 21.435 35.8188ZM26.716 44.6453H26.446V43.0702H26.716V44.6453ZM34.62 43.0702H35.738V44.6453H34.62V43.0702ZM34.62 44.7916H35.776V46.3667H34.62V44.7916ZM23.594 40.4691H22.438V38.8579H23.594V40.4691ZM23.594 38.7496H22.438V37.1745H23.594V38.7496ZM24.79 40.433H23.671V38.8579H24.79V40.433ZM24.79 38.7496H23.632V37.1745H24.79V38.7496ZM26.331 39.1153C26.331 39.2968 26.177 39.1505 26.177 39.4079C26.177 39.5533 26.331 39.5181 26.331 39.6644V40.4339H25.213V38.8588H26.331V39.1153ZM26.331 38.7496H25.175V37.1745H26.331V38.7496ZM26.408 37.1745H26.755V38.7496H26.408V37.1745ZM28.76 44.9008H27.488C27.411 44.9008 27.373 44.8638 27.373 44.7925V42.96H28.761L28.76 44.9008ZM28.76 42.8127H27.411V40.908H28.76V42.8127ZM30.225 44.8638H28.875V42.96H30.225V44.8638ZM30.225 42.8127H28.875V40.908H30.225V42.8127ZM32.114 44.9008H30.725V42.96H32.114V44.9008ZM32.114 42.8127H30.725V40.908H32.114V42.8127ZM33.579 44.8638H32.23V42.96H33.579V44.8638ZM33.579 42.8127H32.23V40.908H33.579V42.8127ZM34.504 43.0702V44.6453H34.08V43.0702H34.504ZM34.504 40.433H34.08V39.6635H26.756L26.717 40.433H26.524H26.447V39.5903H34.505L34.504 40.433ZM34.62 37.1745H35.776V38.7496H34.62V37.1745ZM34.62 39.8107V38.9671V38.8569H35.738V40.432H34.62V39.8107ZM34.08 37.1745H34.543V38.7496H34.08V37.1745ZM32.23 33.7307H33.579V35.6716H32.23V33.7307ZM32.23 35.8188H33.579V37.7226H32.23V35.8188ZM30.726 33.7307H32.115V35.6716H30.726V33.7307ZM30.726 35.7818H32.115V37.7226H30.726V35.7818ZM28.875 33.7307H30.264V35.6716H28.875V33.7307ZM28.875 35.8188H30.225V37.7226H28.875V35.8188ZM27.372 33.7307H28.76V35.6716H27.372V33.7307ZM28.76 35.8188V37.7226H27.411V35.8188H28.76ZM34.08 39.0792V38.8579H34.505V39.1875H26.447V38.8579H26.756V39.0792H34.08Z" fill="white"/>
<path d="M25.367 18.4223V18.6408C25.367 18.7871 25.559 18.8242 25.714 18.8242H36.586V18.3473H25.56C25.444 18.3473 25.521 18.3853 25.367 18.4223Z" fill="white"/>
<path d="M26.099 31.9732H26.215C26.176 32.0824 26.176 32.0454 26.176 32.1185C26.176 32.2287 26.254 32.338 26.369 32.338H34.387C34.541 32.338 34.58 32.2658 34.657 32.2287L34.619 31.9722H34.889C34.927 31.8981 35.005 31.862 35.005 31.7889V31.7157C35.005 31.6426 34.927 31.5685 34.85 31.5685H25.984C25.868 31.5685 25.829 31.6787 25.829 31.7528C25.83 31.8991 25.945 31.9732 26.099 31.9732Z" fill="white"/>
<path d="M26.061 19.154C26.061 19.3373 26.177 19.4475 26.37 19.4475H36.586V18.9716H26.254C26.177 18.9716 26.061 19.0808 26.061 19.154Z" fill="white"/>
<path d="M38.938 59.222C39.285 58.8553 39.555 58.3053 39.555 57.6108C39.555 57.0978 39.208 56.3654 38.706 56.3654H38.32C37.935 56.3654 37.241 56.9867 37.087 57.208C36.856 57.5738 36.508 58.0877 36.508 58.709V58.8924C36.508 59.4405 36.971 60.0637 37.55 60.0637C38.166 60.0647 38.667 59.5517 38.938 59.222ZM37.203 59.3664V59.222C37.203 58.709 37.357 58.0877 37.55 57.7552C37.626 57.5738 37.742 57.2812 37.858 57.171C37.896 57.1339 38.282 56.658 38.282 56.658H38.668C38.822 56.658 38.861 56.8784 38.861 57.0237V57.2441C38.861 57.6108 38.744 58.1951 38.59 58.4155V58.5979C38.359 58.8924 38.051 59.7692 37.588 59.7692H37.434C37.279 59.7702 37.203 59.5137 37.203 59.3664Z" fill="white"/>
<path d="M46.031 57.1339C45.954 57.3904 45.8 58.0136 45.491 58.0136C45.491 57.1339 45.414 56.0727 45.414 55.193C45.414 54.8273 45.491 52.4095 45.298 52.4095C45.182 52.4095 44.488 53.2531 44.141 53.3244C44.141 53.5818 44.295 53.5077 44.603 53.5077C44.795 53.9105 44.681 55.4486 44.719 56.1069C44.719 56.5116 44.757 56.9496 44.757 57.4265C44.757 57.6469 44.719 57.8663 44.757 58.0867C44.795 58.2682 44.911 58.5237 44.911 58.6339C45.065 58.671 45.104 58.7441 45.182 58.7441H45.221C45.722 58.7441 46.223 57.6811 46.223 57.207C46.224 57.1339 46.108 57.1339 46.031 57.1339Z" fill="white"/>
<path d="M19.893 50.8724C19.662 50.5409 19.354 49.7723 18.813 49.7723C18.505 49.7723 18.274 49.9196 18.158 50.102L18.774 50.3965C18.582 50.3965 18.504 50.4335 18.504 50.615C18.851 50.6881 19.313 50.652 19.313 50.9817C19.083 50.9817 18.773 50.8734 18.658 50.8734H18.427C18.311 50.8734 18.388 50.9076 18.234 50.9446V51.0178C18.388 51.0178 18.967 51.2021 18.967 51.3104C18.967 51.5317 18.581 51.3474 18.581 51.5678C18.581 51.7493 18.928 51.6419 19.121 51.678C19.352 51.7132 19.121 51.9345 19.082 52.0789C18.889 52.0789 18.928 52.153 18.773 52.153H18.542C18.426 52.153 18.426 52.153 18.349 52.116C18.349 52.2262 18.426 52.3364 18.542 52.3364H19.39C19.429 52.2262 19.582 51.9697 19.698 51.9697C19.814 51.9697 19.737 52.0067 19.891 52.0438L19.429 51.1641C19.739 51.0909 19.546 50.8724 19.893 50.8724ZM19.198 50.1371L18.543 50.064C18.582 49.9927 18.658 49.9196 18.774 49.9196C19.006 49.9196 19.006 50.064 19.198 50.064V50.1371Z" fill="white"/>
<path d="M37.357 63.4695H36.778C36.74 63.3963 36.74 63.3963 36.74 63.288V61.6037C36.74 61.3833 36.856 61.3462 37.087 61.3462V61.2379H35.931V61.3462H36.085C36.162 61.3462 36.355 61.4564 36.355 61.5666V63.2149C36.355 63.3612 36.239 63.5075 36.124 63.5075H35.932V63.5806H37.937L38.014 62.9232C37.819 62.9935 37.742 63.4695 37.357 63.4695Z" fill="white"/>
<path d="M19.198 52.4095H18.968C18.736 52.4095 18.582 52.5549 18.505 52.7031C18.775 52.7031 19.276 52.8494 19.354 52.8494L19.662 52.8133V52.7031C19.662 52.5549 19.354 52.4095 19.198 52.4095Z" fill="white"/>
<path d="M19.354 52.9216L18.274 52.9947H18.158C17.927 52.9947 17.734 52.9216 17.734 52.7021V52.6651L17.773 52.3354C17.349 52.3354 17.465 52.4808 17.272 52.7382C17.08 52.628 16.81 52.2984 16.655 52.1521C16.54 52.0438 16.115 51.7854 15.923 51.6771C15.499 51.3826 14.69 51.1641 13.957 51.1641C13.879 51.127 13.61 50.9066 13.61 50.8344V50.7242C13.61 50.4316 13.88 50.4668 13.88 50.1742C13.533 50.1742 13.379 50.3585 13.187 50.4668C13.379 49.7343 15.384 49.9196 15.616 48.9297H15.115C14.343 48.9297 13.072 49.5158 13.072 50.2122V50.2483C13.072 50.3955 13.15 50.4326 13.188 50.5048C13.15 50.5779 13.072 50.615 13.072 50.7622V50.9437C13.072 51.4206 13.881 51.5308 14.267 51.6771C14.845 51.8585 15.231 51.8585 15.77 52.115C16.425 52.4817 17.35 53.5077 18.237 53.5077H18.738C19.009 53.5077 19.124 53.3975 19.356 53.3975V53.2161C19.433 53.179 19.51 53.179 19.51 53.0688C19.51 52.9586 19.392 52.9216 19.354 52.9216Z" fill="white"/>
<path d="M29.338 53.1791V53.2532C29.338 53.7272 29.184 53.8004 29.145 54.0958L29.338 54.13L30.031 53.0328C29.838 52.9957 29.414 52.5929 29.26 52.4476C29.068 52.3003 28.566 52.079 28.219 52.079H27.872C27.216 52.079 26.87 52.5929 26.6 52.9587C26.6 53.2161 26.523 53.143 26.523 53.3254V53.3985C26.523 54.168 26.986 54.9727 26.909 55.5598L26.871 55.9996C26.639 56.3293 26.408 56.7321 25.868 56.7321C25.29 56.7321 24.557 56.2191 24.557 55.7061V55.4876C24.557 55.194 24.789 54.9024 24.789 54.6449H24.518L24.556 54.681L23.785 55.7792C24.248 55.8894 24.864 57.0617 26.021 57.0617H26.368C26.792 57.0617 27.061 56.8432 27.293 56.6589C27.447 56.5487 27.794 56.0737 27.794 55.8163V55.0838C27.794 54.7181 27.485 54.168 27.485 53.7652V53.3615C27.485 52.9957 27.986 52.3744 28.334 52.3744C28.76 52.3735 29.338 52.7763 29.338 53.1791Z" fill="white"/>
<path d="M31.266 55.4857H30.841C30.417 55.4857 29.492 55.9987 29.299 56.2182C29.068 56.4737 28.374 57.0979 28.374 57.5377V57.9405C28.374 58.122 28.605 58.4165 28.721 58.4887C28.991 58.672 29.144 58.5989 29.492 58.5989C29.685 58.4887 30.456 58.2322 30.456 58.0137V57.9025C30.225 57.9396 29.994 58.16 29.608 58.16H29.492C29.299 58.16 29.145 58.0498 29.145 57.8655V57.7543C29.145 57.4988 29.415 57.0599 29.53 56.8775C29.801 56.5108 29.839 56.5108 30.109 56.1802C31.189 55.0459 31.035 56.4006 31.613 56.4006C32.23 56.4015 31.729 55.4857 31.266 55.4857Z" fill="white"/>
<path d="M34.504 56.3653C34.042 56.5116 33.694 57.0227 33.385 57.208C33.54 56.6209 34.966 54.4245 34.966 54.0587C34.966 54.0217 34.927 53.9856 34.85 53.9856C34.85 53.9856 34.272 54.13 34.195 54.167C33.964 54.2041 33.694 54.2402 33.463 54.2772C33.463 54.6069 33.81 54.4245 33.81 54.68V54.7541C33.81 54.8643 31.728 58.8192 31.497 59.222C31.574 59.3303 31.689 59.4034 31.844 59.4034C32.306 59.4034 32.268 58.9636 32.499 58.671C32.73 58.4145 32.846 58.1209 33.078 57.8654C33.386 57.5718 34.119 56.7301 34.697 56.7301C34.851 56.7301 34.967 56.8774 34.967 57.0227V57.0598C34.967 57.6469 34.235 59.2951 33.773 59.2951C33.619 59.2951 33.58 58.9636 33.31 58.9636H33.195C33.04 58.9636 32.886 59.0738 32.886 59.184V59.5136C33.04 59.5507 33.156 59.734 33.272 59.734H33.35C34.314 59.734 35.778 58.0117 35.778 56.9857V56.9116C35.776 56.3283 35.082 56.2181 34.504 56.3653Z" fill="white"/>
<path d="M34.736 63.4695H34.312C34.196 63.4695 34.157 63.3612 34.157 63.251V61.5666C34.157 61.4194 34.35 61.3462 34.543 61.3462V61.2379H33.425C33.464 61.3833 33.502 61.3833 33.695 61.3833C33.734 61.4564 33.811 61.4935 33.811 61.5666V63.289C33.811 63.4343 33.619 63.5075 33.425 63.5075V63.5806H35.352L35.507 62.9232C35.236 62.9565 35.275 63.4695 34.736 63.4695Z" fill="white"/>
<path d="M40.865 36.2216H38.398V36.6966H40.865V36.2216Z" fill="white"/>
<path d="M40.865 40.5431H38.398V41.019H40.865V40.5431Z" fill="white"/>
<path d="M40.865 41.6062H38.398V42.1173H40.865V41.6062Z" fill="white"/>
<path d="M40.865 42.7043H38.398V43.2154H40.865V42.7043Z" fill="white"/>
<path d="M40.865 43.8016H38.398V44.2785H40.865V43.8016Z" fill="white"/>
<path d="M40.865 44.8638H38.398V45.3777H40.865V44.8638Z" fill="white"/>
<path d="M40.865 37.2827H38.398V37.7957H40.865V37.2827Z" fill="white"/>
<path d="M40.865 35.1234H38.398V35.6345H40.865V35.1234Z" fill="white"/>
<path d="M40.865 39.4821H38.398V39.958H40.865V39.4821Z" fill="white"/>
<path d="M40.865 38.3828H38.398V38.8939H40.865V38.3828Z" fill="white"/>
<path d="M40.865 47.025H38.398V47.5019H40.865V47.025Z" fill="white"/>
<path d="M46.108 14.7963C45.916 14.7592 45.298 14.649 45.183 14.6129V14.6861L44.912 14.6129L44.682 14.8324V14.5027L42.562 13.8425C42.325 13.6829 42.031 13.585 41.754 13.5603C41.766 13.5727 41.763 13.5869 41.712 13.5869V13.5565C41.687 13.5556 41.66 13.5499 41.635 13.5499C41.519 13.5499 41.519 13.5499 41.404 13.5128L41.249 13.7342V13.4387L41.018 13.3665L41.096 13.2943L38.281 12.0859V23.3662H38.86V28.9693C38.86 29.0415 38.898 29.0786 38.976 29.0786H40.479V23.3653H42.06V29.0786H43.602C43.679 29.0786 43.718 29.0415 43.718 28.9693V23.3662H45.299V29.0425H46.918V15.0528C46.918 14.9065 46.263 14.8324 46.108 14.7963ZM39.439 22.3402L39.169 22.268L38.898 22.4875V22.1578L38.667 22.1208C38.898 21.9374 38.937 22.23 38.937 21.755L39.13 21.9365L39.439 21.8272L39.247 22.0847L39.439 22.3402ZM39.439 20.1438L39.169 20.0697L38.898 20.3262V19.9966L38.628 19.9234L38.898 19.8512V19.5206L39.169 19.741L39.439 19.6669L39.247 19.8854L39.439 20.1438ZM39.439 17.9455L39.13 17.8733L38.937 18.0928V17.8353L38.705 17.7631V17.69L38.937 17.6159V17.3603L39.091 17.5418H39.207C39.323 17.5418 39.362 17.5047 39.439 17.4696L39.247 17.7261L39.439 17.9455ZM39.439 15.7843L39.169 15.7121L38.898 15.9306C38.898 15.6009 38.977 15.5639 38.628 15.5639L38.898 15.4537V15.124L39.169 15.3815L39.439 15.2722L39.247 15.5648L39.439 15.7843ZM39.247 13.3314L39.401 13.5499L39.17 13.5128L38.939 13.6971V13.4397L38.669 13.3675L38.9 13.2582V12.9647L39.171 13.1841L39.441 13.11L39.247 13.3314ZM40.556 21.242L40.326 21.1679L40.094 21.3522V21.0948L39.824 20.9855L40.094 20.9124V20.6549C40.133 20.692 40.287 20.8373 40.326 20.8373C40.403 20.8373 40.442 20.8012 40.556 20.7642L40.402 20.9846L40.556 21.242ZM40.556 19.0437L40.248 18.9715L40.094 19.191V18.8974L39.786 18.8243L40.094 18.7141V18.4576L40.287 18.6761L40.596 18.5668L40.403 18.8243L40.556 19.0437ZM40.287 16.7732L40.094 16.9927V16.6991L39.786 16.6621L40.094 16.5528V16.2593L40.326 16.4426L40.556 16.4065L40.402 16.6241L40.595 16.8815L40.287 16.7732ZM40.326 14.6129C40.287 14.6129 40.133 14.7592 40.094 14.7963V14.5027L39.786 14.3925C40.133 14.3925 40.094 14.4296 40.094 14.0999L40.326 14.2814L40.556 14.2092L40.402 14.4286L40.595 14.6851C40.441 14.6861 40.441 14.6129 40.326 14.6129ZM41.713 22.3402C41.559 22.3402 41.559 22.268 41.443 22.268C41.405 22.268 41.289 22.4504 41.25 22.4875V22.1939L40.98 22.1208C41.172 21.9004 41.25 22.3032 41.25 21.718L41.481 21.9365L41.712 21.8633C41.674 21.9365 41.596 22.0467 41.596 22.0837V22.1198C41.597 22.1578 41.675 22.2671 41.713 22.3402ZM41.751 20.1438C41.636 20.1438 41.597 20.1068 41.481 20.1068H41.365L41.25 20.3253V19.9956L40.98 19.9225C41.096 19.8503 40.941 19.8503 41.096 19.8503H41.25V19.5197C41.327 19.5928 41.365 19.7401 41.481 19.7401C41.596 19.7401 41.596 19.666 41.751 19.666C41.674 19.7752 41.597 19.7752 41.597 19.9586C41.597 20.0697 41.675 20.0697 41.751 20.1438ZM41.713 17.9455C41.482 17.9455 41.636 17.8733 41.482 17.8733C41.366 17.8733 41.328 18.0557 41.251 18.1308C41.251 17.5066 41.097 18.0206 41.02 17.6909L41.251 17.6168V17.3242C41.29 17.3964 41.328 17.5427 41.482 17.5427C41.636 17.5427 41.559 17.5057 41.713 17.5057C41.675 17.5798 41.597 17.6159 41.597 17.69V17.7631C41.597 17.8353 41.675 17.8724 41.713 17.9455ZM41.751 15.7843C41.559 15.7843 41.597 15.7121 41.443 15.7121C41.405 15.7121 41.289 15.8935 41.25 15.9306V15.6009L40.98 15.5639L41.25 15.4537V15.124C41.289 15.1981 41.327 15.3435 41.481 15.3435C41.635 15.3435 41.635 15.3083 41.751 15.2713C41.712 15.3435 41.597 15.4166 41.597 15.4898C41.597 15.675 41.675 15.675 41.751 15.7843ZM43.525 15.4546V15.125L43.757 15.3824L43.988 15.3102H44.026L43.872 15.5658L44.026 15.7501L43.988 15.7852L43.718 15.713L43.525 15.9315V15.6019L43.255 15.5648L43.525 15.4546ZM42.87 21.242L42.562 21.1679L42.446 21.3874C42.407 21.0216 42.446 21.0948 42.136 21.0216L42.407 20.9124V20.6549C42.599 20.7642 42.484 20.8373 42.638 20.8373C42.715 20.8373 42.754 20.8012 42.869 20.7642L42.715 21.0216L42.87 21.242ZM42.87 19.0437C42.755 19.0076 42.755 18.9715 42.599 18.9715C42.522 18.9715 42.561 19.0808 42.407 19.191V18.9345L42.136 18.7872L42.407 18.7141V18.4215L42.562 18.677L42.87 18.5678L42.716 18.8252L42.87 19.0437ZM42.639 16.8103C42.447 16.8103 42.6 16.9205 42.408 16.9927V16.6991L42.137 16.6621L42.408 16.5177V16.2602C42.485 16.3334 42.563 16.4436 42.6 16.4436C42.755 16.4436 42.678 16.4075 42.831 16.4075L42.716 16.625L42.87 16.8825C42.793 16.8473 42.755 16.8103 42.639 16.8103ZM42.87 14.6861C42.755 14.649 42.755 14.6129 42.599 14.6129C42.561 14.6129 42.484 14.7222 42.407 14.7963V14.5398L42.136 14.4296L42.407 14.3564V14.0629L42.562 14.2814L42.87 14.1721L42.755 14.3916H42.716L42.87 14.6861ZM44.026 22.3773L43.746 22.2785L43.525 22.4884V22.1949L43.255 22.1217C43.371 22.0486 43.525 22.0856 43.525 21.9384V21.7199L43.718 21.9384L44.026 21.8291L43.872 22.1227L44.026 22.3773ZM44.026 20.1068L43.988 20.1438L43.718 20.1068L43.525 20.3253V19.9956L43.255 19.8854L43.525 19.8503V19.5197L43.757 19.7401L43.988 19.703H44.026L43.91 19.8845L43.871 19.8493L44.026 20.1068ZM43.718 17.8724L43.525 18.1298V17.8353L43.255 17.7631V17.69L43.563 17.6159V17.3603C43.718 17.4325 43.679 17.5418 43.795 17.5418C43.911 17.5418 43.95 17.5047 44.026 17.4696L43.872 17.7261L44.064 17.9826L43.718 17.8724ZM45.183 21.242L44.874 21.1679L44.682 21.3874V21.0948L44.412 20.9855L44.682 20.9485V20.6188L44.874 20.8373L45.183 20.7642L45.028 21.0216L45.183 21.242ZM45.183 19.0437L44.874 18.9715L44.682 19.228V18.8984L44.412 18.8252L44.682 18.715V18.4224C44.759 18.4585 44.874 18.6409 44.912 18.6409C45.028 18.6409 45.105 18.6048 45.221 18.5678C45.143 18.6409 45.028 18.7141 45.028 18.8252C45.028 18.8613 45.144 18.9715 45.183 19.0437ZM44.913 16.8103C44.797 16.8103 44.913 16.9575 44.683 16.9927V16.6991L44.413 16.6621L44.683 16.5528V16.2222L44.913 16.4426L45.184 16.4065L44.991 16.6991L45.068 16.6621L45.223 16.8825C45.106 16.8473 45.028 16.8103 44.913 16.8103ZM45.568 17.69L45.838 17.6159V17.3233L46.069 17.5418L46.338 17.5047L46.147 17.7251L46.338 17.9436L46.03 17.8714L45.837 18.1289V17.8344L45.567 17.7622L45.568 17.69ZM45.838 19.741V19.5567C45.954 19.5938 45.992 19.741 46.069 19.741C46.184 19.741 46.108 19.741 46.184 19.704H46.262L46.3 19.6669L46.338 19.704L46.147 19.8854L46.338 20.1058L46.3 20.1429L46.03 20.0688L45.837 20.2882V19.9947L45.567 19.8845C45.685 19.8512 45.838 19.8864 45.838 19.741ZM46.339 22.3402L46.031 22.268L45.838 22.4504V22.1939L45.568 22.1208L45.838 22.0106V21.718L46.031 21.9365L46.378 21.8272L46.147 22.1208L46.339 22.3402ZM46.108 15.7121C45.992 15.7121 45.916 15.8204 45.838 15.8935V15.638L45.568 15.5639L45.838 15.4537V15.162C45.916 15.2361 45.992 15.3444 46.108 15.3444C46.185 15.3444 46.224 15.3093 46.338 15.2722L46.147 15.5648L46.378 15.7843C46.108 15.7843 46.263 15.7121 46.108 15.7121Z" fill="white"/>
<path d="M40.865 45.9639H38.398V46.4389H40.865V45.9639Z" fill="white"/>
<path d="M43.718 22.2671L43.746 22.277L43.757 22.2671H43.718Z" fill="white"/>
<path d="M51.737 29.0795H53.24C53.318 29.0795 53.356 29.0425 53.356 28.9703V14.6129L51.737 14.8704V29.0795Z" fill="white"/>
<path d="M48.498 15.162V28.9702C48.498 29.0424 48.537 29.0795 48.614 29.0795H50.156V15.0166C49.808 15.0166 49.654 15.0527 49.307 15.0527C49.116 15.0527 48.498 14.9796 48.498 15.162Z" fill="white"/>
<path d="M41.675 13.5503H41.713V13.5566C41.727 13.5584 41.74 13.5593 41.755 13.5602C41.739 13.5449 41.697 13.5305 41.675 13.5503Z" fill="white"/>
<path d="M38.359 51.2382H38.977C39.015 51.2382 40.402 50.4668 40.441 50.4326H38.358L38.359 51.2382Z" fill="white"/>
<path d="M40.865 48.0862H38.398V48.6362H40.865V48.0862Z" fill="white"/>
<path d="M115.01 32.2801V36.8572H100.985V32.2801H104.635L103.281 27.6251H95.879L94.361 32.2801H98.175V36.8572H85.545V32.2801H89.072L94.628 14.3403H90.835V9.76318H109.453V14.3403H105.619L111.605 32.2801H115.01ZM102.111 23.6512L99.734 15.4898L97.171 23.6512H102.111Z" fill="white"/>
<path d="M115.952 36.8572V32.2801H120.278V14.3403H115.952V9.76318H129.464C132.307 9.76318 134.597 9.92848 136.332 10.26C138.068 10.5916 139.728 11.325 141.314 12.4612C142.9 13.5974 144.171 15.1202 145.127 17.0288C146.084 18.9373 146.563 21.0539 146.563 23.3786C146.563 25.2615 146.228 27.057 145.558 28.7641C144.888 30.4713 144.058 31.8488 143.067 32.8938C142.076 33.9388 140.89 34.77 139.51 35.3875C138.129 36.0041 136.862 36.4031 135.706 36.5855C134.55 36.7679 132.764 36.8581 130.345 36.8581L115.952 36.8572ZM127.68 32.2801H129.464C131.623 32.2801 133.335 32.0141 134.6 31.4811C135.865 30.9491 136.879 30.0105 137.645 28.6672C138.411 27.323 138.793 25.5674 138.793 23.3985C138.793 21.3342 138.406 19.5805 137.635 18.1393C136.863 16.6972 135.817 15.7045 134.497 15.1592C133.177 14.6139 131.5 14.3412 129.464 14.3412H127.68V32.2801Z" fill="white"/>
<path d="M149.927 36.8572V32.2801H153.494V14.3403H149.927V9.76318H163.705V14.3403H160.711V20.2816H168.482V14.3403H165.59V9.76318H179.266V14.3403H175.699V32.2801H179.266V36.8572H165.59V32.2801H168.482V24.8777H160.711V32.2801H163.705V36.8572H149.927Z" fill="white"/>
<path d="M181.461 36.8572V32.2801H185.787V14.3403H181.461V9.76318H197.576V14.3403H193.209V32.2801H197.576V36.8572H181.461Z" fill="white"/>
<path d="M87.016 53.5628C87.875 54.0863 89.108 54.4834 90.429 54.4834C92.388 54.4834 93.533 53.5001 93.533 52.078C93.533 50.7812 92.74 50.007 90.737 49.2954C88.315 48.4594 86.818 47.2463 86.818 45.2788C86.818 43.0824 88.734 41.4513 91.618 41.4513C93.115 41.4513 94.238 41.7866 94.877 42.1419L94.348 43.6268C93.886 43.3551 92.895 42.958 91.552 42.958C89.527 42.958 88.756 44.1084 88.756 45.0708C88.756 46.3884 89.659 47.0363 91.707 47.7897C94.217 48.7102 95.472 49.8607 95.472 51.9307C95.472 54.1062 93.799 56.01 90.298 56.01C88.867 56.01 87.303 55.592 86.511 55.0895L87.016 53.5628Z" fill="white"/>
<path d="M105.776 55.4249C105.269 55.6548 104.146 56.0101 102.715 56.0101C99.5 56.0101 97.408 53.9391 97.408 50.844C97.408 47.727 99.654 45.447 103.133 45.447C104.278 45.447 105.291 45.7187 105.82 45.9904L105.38 47.3926C104.917 47.1627 104.191 46.911 103.134 46.911C100.69 46.911 99.369 48.6476 99.369 50.7385C99.369 53.0812 100.954 54.5243 103.068 54.5243C104.17 54.5243 104.896 54.2735 105.446 54.0436L105.776 55.4249Z" fill="white"/>
<path d="M108.045 40.9288H109.983V47.2663H110.027C110.336 46.7438 110.82 46.2621 111.415 45.9486C111.987 45.6351 112.67 45.447 113.396 45.447C114.827 45.447 117.117 46.284 117.117 49.7562V55.7802H115.179V49.9652C115.179 48.3331 114.54 46.9746 112.713 46.9746C111.458 46.9746 110.489 47.8116 110.114 48.7939C110.005 49.0656 109.982 49.3382 109.982 49.6726V55.7811H108.044L108.045 40.9288Z" fill="white"/>
<path d="M129.909 50.634C129.909 54.378 127.157 56.0101 124.603 56.0101C121.741 56.0101 119.495 54.0027 119.495 50.8022C119.495 47.4344 121.85 45.447 124.779 45.447C127.84 45.447 129.909 47.5598 129.909 50.634ZM121.477 50.7385C121.477 52.9558 122.798 54.6297 124.692 54.6297C126.542 54.6297 127.928 52.9777 127.928 50.6967C127.928 48.981 127.026 46.8274 124.736 46.8274C122.468 46.8274 121.477 48.8347 121.477 50.7385Z" fill="white"/>
<path d="M141.998 50.634C141.998 54.378 139.246 56.0101 136.692 56.0101C133.83 56.0101 131.584 54.0027 131.584 50.8022C131.584 47.4344 133.939 45.447 136.868 45.447C139.929 45.447 141.998 47.5598 141.998 50.634ZM133.565 50.7385C133.565 52.9558 134.886 54.6297 136.78 54.6297C138.63 54.6297 140.016 52.9777 140.016 50.6967C140.016 48.981 139.114 46.8274 136.824 46.8274C134.557 46.8274 133.565 48.8347 133.565 50.7385Z" fill="white"/>
<path d="M144.443 40.9288H146.381V55.7802H144.443V40.9288Z" fill="white"/>
<path d="M149.375 53.9182C149.97 54.2535 150.982 54.6297 151.951 54.6297C153.339 54.6297 153.999 53.9809 153.999 53.124C153.999 52.2452 153.449 51.7854 152.04 51.2829C150.102 50.6141 149.199 49.6308 149.199 48.4167C149.199 46.7856 150.608 45.447 152.876 45.447C153.955 45.447 154.902 45.7187 155.475 46.074L155.012 47.4126C154.594 47.1618 153.824 46.8055 152.832 46.8055C151.687 46.8055 151.07 47.4335 151.07 48.1859C151.07 49.0228 151.687 49.399 153.074 49.9225C154.902 50.5713 155.871 51.4491 155.871 52.9549C155.871 54.7542 154.395 56.0091 151.907 56.0091C150.74 56.0091 149.661 55.7156 148.913 55.2976L149.375 53.9182Z" fill="white"/>
<path d="M157.654 54.6924C157.654 53.939 158.205 53.3738 158.975 53.3738C159.745 53.3738 160.275 53.9172 160.275 54.6924C160.275 55.4448 159.746 56.01 158.931 56.01C158.184 56.01 157.654 55.4448 157.654 54.6924Z" fill="white"/>
<path d="M167.387 41.6813H169.325V54.2526H175.667V55.7793H167.388V41.6813H167.387Z" fill="white"/>
<path d="M177.78 41.6813H179.718V54.2526H186.06V55.7793H177.781V41.6813H177.78Z" fill="white"/>
<path d="M197.687 55.3412C197.004 55.6756 195.573 56.01 193.767 56.01C189.583 56.01 186.457 53.4992 186.457 48.8565C186.457 44.4219 189.605 41.4513 194.207 41.4513C196.035 41.4513 197.224 41.8275 197.73 42.0792L197.246 43.5641C196.541 43.2287 195.506 42.9779 194.273 42.9779C190.794 42.9779 188.482 45.0917 188.482 48.7929C188.482 52.2651 190.574 54.4625 194.163 54.4625C195.352 54.4625 196.541 54.2326 197.311 53.8763L197.687 55.3412Z" fill="white"/>
</svg>
