<svg width="35" height="32" viewBox="0 0 35 32" fill="none" xmlns="http://www.w3.org/2000/svg">
<path d="M29.6115 7.97622C29.0803 7.55624 28.5206 7.17353 27.9365 6.83084C27.1724 5.62376 26.2075 4.55634 25.0833 3.67483C22.317 1.47752 18.6602 0.267578 14.7859 0.267578C10.9117 0.267578 7.25464 1.47816 4.48835 3.67483C1.61545 5.95667 0.0332031 9.02327 0.0332031 12.3097C0.0332031 15.5358 1.55832 18.5505 4.33268 20.8188L4.12667 26.0831C4.12105 26.2261 4.15163 26.3681 4.21557 26.4961C4.2795 26.6241 4.37472 26.7338 4.49239 26.8152C4.61006 26.8966 4.74637 26.9469 4.88868 26.9615C5.03099 26.9762 5.17469 26.9546 5.30645 26.8989L9.08835 25.3003C11.8461 27.4623 15.4728 28.6534 19.3133 28.6534C20.2866 28.6543 21.2583 28.5767 22.2191 28.4215L28.7934 31.2005C28.9252 31.2562 29.0689 31.2778 29.2112 31.2631C29.3535 31.2485 29.4898 31.1982 29.6075 31.1168C29.7252 31.0354 29.8204 30.9257 29.8843 30.7977C29.9482 30.6697 29.9788 30.5277 29.9732 30.3847L29.7672 25.1204C32.5413 22.8519 34.0667 19.8372 34.0667 16.6113C34.0667 13.3251 32.4844 10.2583 29.6115 7.97622ZM5.71571 19.746L5.69214 19.728C5.64329 19.6906 5.59423 19.653 5.54538 19.6139C3.08642 17.6607 1.73226 15.0666 1.73226 12.3097C1.73226 9.55274 3.08642 6.95763 5.54517 5.00499C8.01221 3.04576 11.2944 1.96664 14.7859 1.96664C18.2775 1.96664 21.5597 3.04576 24.0267 5.00499C26.4855 6.95891 27.8396 9.5521 27.8396 12.3097C27.8396 15.0673 26.4855 17.6617 24.0267 19.6139C21.5595 21.5736 18.2779 22.6527 14.7851 22.6527H14.7717C13.8177 22.6523 12.8655 22.5692 11.9258 22.4044C11.7646 22.3757 11.5986 22.3945 11.4479 22.4586L5.87691 24.8133L6.04682 20.4531C6.05218 20.3173 6.02491 20.1823 5.96729 20.0593C5.90968 19.9362 5.82341 19.8288 5.71571 19.746ZM28.5541 23.916C28.5057 23.9546 28.4566 23.9922 28.4077 24.0296L28.3842 24.0476C28.2764 24.1304 28.19 24.2378 28.1324 24.3608C28.0747 24.4838 28.0473 24.6189 28.0526 24.7547L28.2225 29.1149L22.6526 26.7602C22.5019 26.6962 22.3359 26.6774 22.1747 26.706C21.2344 26.8709 20.2816 26.954 19.3269 26.9543C16.218 26.9526 13.2697 26.0988 10.9165 24.5272L11.8803 24.1199C12.8361 24.2739 13.8027 24.3515 14.7709 24.3518H14.7855C18.6596 24.3518 22.3166 23.1412 25.0829 20.9443C27.9564 18.6623 29.538 15.5957 29.538 12.3097C29.5383 11.5 29.441 10.6932 29.2484 9.90678C31.2645 11.7757 32.367 14.1268 32.367 16.6113C32.3676 19.3682 31.0135 21.9625 28.5541 23.916Z" fill="#333333"/>
</svg>
